<?xml version="1.0" encoding="UTF-8" standalone="no"?>
<svg
   xmlns:dc="http://purl.org/dc/elements/1.1/"
   xmlns:cc="http://creativecommons.org/ns#"
   xmlns:rdf="http://www.w3.org/1999/02/22-rdf-syntax-ns#"
   xmlns:svg="http://www.w3.org/2000/svg"
   xmlns="http://www.w3.org/2000/svg"
   xmlns:sodipodi="http://sodipodi.sourceforge.net/DTD/sodipodi-0.dtd"
   xmlns:inkscape="http://www.inkscape.org/namespaces/inkscape"
   version="1.1"
   id="Layer_1"
   x="0px"
   y="0px"
   width="1092.2667"
   height="1092.2667"
   viewBox="0 0 1024 1024"
   enable-background="new 0 0 512 512"
   xml:space="preserve"
   inkscape:version="0.92.1 r15371"
   sodipodi:docname="ayinhebrew-x5e2.svg"><title
   id="title3743">Sinai 357</title><metadata
   id="metadata72"><rdf:RDF><cc:Work
       rdf:about=""><dc:format>image/svg+xml</dc:format><dc:type
         rdf:resource="http://purl.org/dc/dcmitype/StillImage" /><dc:title>Sinai 357</dc:title><dc:date>2017</dc:date><dc:creator><cc:Agent><dc:title>Celeste Claire Horner</dc:title></cc:Agent></dc:creator><dc:publisher><cc:Agent><dc:title>beitdina.net</dc:title></cc:Agent></dc:publisher></cc:Work></rdf:RDF></metadata><defs
   id="defs70" /><sodipodi:namedview
   pagecolor="#ffffff"
   bordercolor="#666666"
   borderopacity="1"
   objecttolerance="10"
   gridtolerance="10"
   guidetolerance="10"
   inkscape:pageopacity="0"
   inkscape:pageshadow="2"
   inkscape:window-width="1152"
   inkscape:window-height="814"
   id="namedview68"
   showgrid="false"
   inkscape:zoom="0.22086455"
   inkscape:cx="1218.4878"
   inkscape:cy="172.35203"
   inkscape:window-x="-8"
   inkscape:window-y="-8"
   inkscape:window-maximized="1"
   inkscape:current-layer="Layer_1"
   showguides="true"
   inkscape:guide-bbox="true" />
   
	<g
   id="Grid"
   transform="matrix(2.003984,0,0,1.9949797,0.501992,2.0729212)">
		<rect
   x="0"
   stroke-miterlimit="10"
   width="512"
   height="512"
   id="rect4"
   y="0"
   style="fill:none;stroke:#a9ccdb;stroke-miterlimit:10" />
		<line
   stroke-miterlimit="10"
   x1="0"
   y1="32"
   x2="512"
   y2="32"
   id="line6"
   style="fill:none;stroke:#a9ccdb;stroke-miterlimit:10" />
		<line
   stroke-miterlimit="10"
   x1="0"
   y1="64"
   x2="512"
   y2="64"
   id="line8"
   style="fill:none;stroke:#a9ccdb;stroke-miterlimit:10" />
		<line
   stroke-miterlimit="10"
   x1="0"
   y1="96"
   x2="512"
   y2="96"
   id="line10"
   style="fill:none;stroke:#a9ccdb;stroke-miterlimit:10" />
		<line
   stroke-miterlimit="10"
   x1="0"
   y1="128"
   x2="512"
   y2="128"
   id="line12"
   style="fill:none;stroke:#a9ccdb;stroke-miterlimit:10" />
		<line
   stroke-miterlimit="10"
   x1="0"
   y1="160"
   x2="512"
   y2="160"
   id="line14"
   style="fill:none;stroke:#a9ccdb;stroke-miterlimit:10" />
		<line
   stroke-miterlimit="10"
   x1="0"
   y1="192"
   x2="512"
   y2="192"
   id="line16"
   style="fill:none;stroke:#a9ccdb;stroke-miterlimit:10" />
		<line
   stroke-miterlimit="10"
   x1="0"
   y1="224"
   x2="512"
   y2="224"
   id="line18"
   style="fill:none;stroke:#a9ccdb;stroke-miterlimit:10" />
		<line
   stroke-miterlimit="10"
   x1="0"
   y1="256"
   x2="512"
   y2="256"
   id="line20"
   style="fill:none;stroke:#a9ccdb;stroke-miterlimit:10" />
		<line
   stroke-miterlimit="10"
   x1="0"
   y1="288"
   x2="512"
   y2="288"
   id="line22"
   style="fill:none;stroke:#a9ccdb;stroke-miterlimit:10" />
		<line
   stroke-miterlimit="10"
   x1="0"
   y1="320"
   x2="512"
   y2="320"
   id="line24"
   style="fill:none;stroke:#a9ccdb;stroke-miterlimit:10" />
		<line
   stroke-miterlimit="10"
   x1="0"
   y1="352"
   x2="512"
   y2="352"
   id="line26"
   style="fill:none;stroke:#a9ccdb;stroke-miterlimit:10" />
		<line
   stroke-miterlimit="10"
   x1="0"
   y1="384"
   x2="512"
   y2="384"
   id="line28"
   style="fill:none;stroke:#a9ccdb;stroke-miterlimit:10" />
		<line
   stroke-miterlimit="10"
   x1="0"
   y1="416"
   x2="512"
   y2="416"
   id="line30"
   style="fill:none;stroke:#a9ccdb;stroke-miterlimit:10" />
		<line
   stroke-miterlimit="10"
   x1="0"
   y1="448"
   x2="512"
   y2="448"
   id="line32"
   style="fill:none;stroke:#ff0000;stroke-miterlimit:10" />
		<line
   stroke-miterlimit="10"
   x1="0"
   y1="480"
   x2="512"
   y2="480"
   id="line34"
   style="fill:none;stroke:#a9ccdb;stroke-miterlimit:10" />
		<line
   stroke-miterlimit="10"
   x1="32"
   y1="0"
   x2="32"
   y2="512"
   id="line36"
   style="fill:none;stroke:#a9ccdb;stroke-miterlimit:10" />
		<line
   stroke-miterlimit="10"
   x1="64"
   y1="0"
   x2="64"
   y2="512"
   id="line38"
   style="fill:none;stroke:#a9ccdb;stroke-miterlimit:10" />
		<line
   stroke-miterlimit="10"
   x1="96"
   y1="0"
   x2="96"
   y2="512"
   id="line40"
   style="fill:none;stroke:#a9ccdb;stroke-miterlimit:10" />
		<line
   stroke-miterlimit="10"
   x1="128"
   y1="0"
   x2="128"
   y2="512"
   id="line42"
   style="fill:none;stroke:#a9ccdb;stroke-miterlimit:10" />
		<line
   stroke-miterlimit="10"
   x1="160"
   y1="0"
   x2="160"
   y2="512"
   id="line44"
   style="fill:none;stroke:#a9ccdb;stroke-miterlimit:10" />
		<line
   stroke-miterlimit="10"
   x1="192"
   y1="0"
   x2="192"
   y2="512"
   id="line46"
   style="fill:none;stroke:#a9ccdb;stroke-miterlimit:10" />
		<line
   stroke-miterlimit="10"
   x1="224"
   y1="0"
   x2="224"
   y2="512"
   id="line48"
   style="fill:none;stroke:#a9ccdb;stroke-miterlimit:10" />
		<line
   stroke-miterlimit="10"
   x1="256"
   y1="0"
   x2="256"
   y2="512"
   id="line50"
   style="fill:none;stroke:#a9ccdb;stroke-miterlimit:10" />
		<line
   stroke-miterlimit="10"
   x1="288"
   y1="0"
   x2="288"
   y2="512"
   id="line52"
   style="fill:none;stroke:#a9ccdb;stroke-miterlimit:10" />
		<line
   stroke-miterlimit="10"
   x1="320"
   y1="0"
   x2="320"
   y2="512"
   id="line54"
   style="fill:none;stroke:#a9ccdb;stroke-miterlimit:10" />
		<line
   stroke-miterlimit="10"
   x1="352"
   y1="0"
   x2="352"
   y2="512"
   id="line56"
   style="fill:none;stroke:#a9ccdb;stroke-miterlimit:10" />
		<line
   stroke-miterlimit="10"
   x1="384"
   y1="0"
   x2="384"
   y2="512"
   id="line58"
   style="fill:none;stroke:#a9ccdb;stroke-miterlimit:10" />
		<line
   stroke-miterlimit="10"
   x1="416"
   y1="0"
   x2="416"
   y2="512"
   id="line60"
   style="fill:none;stroke:#a9ccdb;stroke-miterlimit:10" />
		<line
   stroke-miterlimit="10"
   x1="448"
   y1="0"
   x2="448"
   y2="512"
   id="line62"
   style="fill:none;stroke:#a9ccdb;stroke-miterlimit:10" />
		<line
   stroke-miterlimit="10"
   x1="480"
   y1="0"
   x2="480"
   y2="512"
   id="line64"
   style="fill:none;stroke:#a9ccdb;stroke-miterlimit:10" />
	</g>
	

	<path
   style="fill:#552200;fill-opacity:1;stroke-width:1.13749707"
   d="m 242.55838,155.98486 c -14.03016,-20.10429 -23.25939,-19.39723 -33.82518,-20.73841 -17.40143,-7.69076 -30.81967,-9.26468 -46.80745,-14.542 -9.52481,-2.48041 -23.13724,1.88872 -28.59089,12.3463 -4.61772,15.90779 -2.06671,36.19011 0.85663,50.9098 4.80673,23.63399 10.83713,46.98734 13.46974,53.90886 3.50568,36.83434 38.50075,44.78575 54.75668,46.95903 2.36245,0.31582 4.23722,0.91096 5.44335,1.97296 1.50328,1.32359 1.968,3.37241 1.044,6.5095 -1.66726,20.16206 -33.51374,38.96582 -38.53127,67.70195 1.88755,7.30205 6.63933,-1.02777 7.99004,21.03612 1.58839,25.94646 10.33079,22.50921 10.70179,38.79084 4.65564,10.93085 -3.29472,23.88551 -13.31565,37.74262 -12.35489,17.08458 -11.06162,4.41786 -9.96674,22.14438 -1.01236,8.2512 -13.12173,28.50722 -12.15018,36.28303 1.50666,11.18551 9.06289,22.52153 17.46233,33.89324 9.05001,12.25249 16.69615,28.04723 21.19177,35.54805 11.01656,31.09471 21.96739,11.95614 31.17374,40.01214 5.83346,19.29789 12.9087,33.78451 21.82609,46.66561 0.84001,1.2184 1.5741,2.42364 2.46272,3.02078 1.19638,0.90626 1.65274,1.56881 2.9331,2.50293 3.83971,2.80127 8.31523,5.81924 12.26667,8.71291 0.69598,0.50969 1.37569,1.01551 2.03281,1.51557 1.09311,0.83193 1.1309,1.1262 2.06981,1.91788 3.7474,2.49676 7.88052,5.0012 10.87788,8.13251 1.24526,0.90011 2.94112,1.58414 4.58062,1.89066 1.99516,0.37298 4.70109,-1.11767 5.61584,-2.15405 3.28528,-3.92562 6.41302,-4.96909 9.59314,-8.08883 0.57639,-0.56542 1.1545,-1.19907 1.73556,-1.93043 0.44314,-0.52264 0.88006,-1.0203 1.31047,-1.50392 2.71061,-3.04601 5.16124,-5.53619 7.26079,-10.21083 0.31714,-1.20031 0.60636,-2.40564 0.8703,-3.61509 0.31462,-1.4415 0.5933,-2.88876 0.84062,-4.34041 2.45802,-14.42645 1.81749,-29.27756 2.51553,-43.04646 3.76743,-34.73884 14.97022,-75.79952 30.26933,-131.30465 16.67559,-60.49902 -0.79485,-34.7287 -0.91813,-38.95315 0.68794,-3.30205 1.14074,-6.2733 1.50846,-9.13578 0.8973,-6.98478 1.28809,-13.32202 3.35274,-22.2379 4.68806,-20.17336 -13.27932,-39.2616 -11.66065,-47.73267 14.34932,5.44112 9.70707,-25.86164 25.11832,-31.55539 45.44817,-4.07439 32.2343,-0.0488 73.6743,23.6099 7.22883,4.23308 15.80531,8.86664 23.35436,14.21974 7.81147,5.53926 14.52285,20.70434 17.50266,28.13818 6.00577,9.54802 8.32748,93.28906 9.22377,108.01068 -1.16672,13.21028 6.78356,23.8655 7.80543,33.0113 1.93544,17.3223 8.45928,7.70323 8.58921,21.30044 0.34544,19.10967 7.86144,37.00243 14.25762,47.13974 25.41409,40.27896 63.25272,59.49839 91.91032,11.11414 21.86779,-67.52795 -7.87032,-41.97539 -1.97486,-96.91665 -10.29916,-42.66656 -9.24605,-107.07242 -21.88524,-150.33163 -5.66733,-4.76975 -12.46542,-18.3147 -12.58536,-33.92956 -0.12317,-16.0392 16.1781,-44.02537 12.09644,-59.81849 -11.35017,-43.91673 -47.07534,-81.94042 -62.47085,-91.98001 -12.07166,-6.15494 -18.42633,3.26821 -62.86683,-0.40507 -14.49898,-1.19839 -43.00186,-1.41537 -66.41242,-2.43244 -35.71955,4.50317 -63.35486,-19.32843 -90.53863,-34.10558 -9.48602,-4.93369 -13.81616,-4.85856 -20.21478,-0.0412 -8.73583,6.57682 -11.64756,19.7183 -19.40265,25.50506 -3.4227,2.55404 -4.18349,3.92114 -7.44133,2.75655 -1.15461,-0.41279 -2.33678,-8.25673 -3.55498,-10.93405 -2.45461,-5.58505 -4.03518,-19.53958 -6.43085,-22.93862 z"
   id="path3841-1"
   inkscape:connector-curvature="0"
   sodipodi:nodetypes="ccccccssccscsccsccccsssccscscscsscscsccccsccscscccsscsccsssccc" /></svg>