<?xml version="1.0" encoding="UTF-8" standalone="no"?>
<svg
   xmlns:dc="http://purl.org/dc/elements/1.1/"
   xmlns:cc="http://creativecommons.org/ns#"
   xmlns:rdf="http://www.w3.org/1999/02/22-rdf-syntax-ns#"
   xmlns:svg="http://www.w3.org/2000/svg"
   xmlns="http://www.w3.org/2000/svg"
   xmlns:sodipodi="http://sodipodi.sourceforge.net/DTD/sodipodi-0.dtd"
   xmlns:inkscape="http://www.inkscape.org/namespaces/inkscape"
   version="1.1"
   id="Layer_1"
   x="0px"
   y="0px"
   width="1066.6666"
   height="1066.6666"
   viewBox="0 0 1000 1000"
   enable-background="new 0 0 512 512"
   xml:space="preserve"
   inkscape:version="0.92.1 r15371"
   sodipodi:docname="bethebrew-x5d1.svg"><title
   id="title3743">Sinai 357</title><metadata
   id="metadata72"><rdf:RDF><cc:Work
       rdf:about=""><dc:format>image/svg+xml</dc:format><dc:type
         rdf:resource="http://purl.org/dc/dcmitype/StillImage" /><dc:title>Sinai 357</dc:title><dc:date>2017</dc:date><dc:creator><cc:Agent><dc:title>Celeste Claire Horner</dc:title></cc:Agent></dc:creator><dc:publisher><cc:Agent><dc:title>beitdina.net</dc:title></cc:Agent></dc:publisher></cc:Work></rdf:RDF></metadata><defs
   id="defs70" /><sodipodi:namedview
   pagecolor="#ffffff"
   bordercolor="#666666"
   borderopacity="1"
   objecttolerance="10"
   gridtolerance="10"
   guidetolerance="10"
   inkscape:pageopacity="0"
   inkscape:pageshadow="2"
   inkscape:window-width="711"
   inkscape:window-height="574"
   id="namedview68"
   showgrid="false"
   inkscape:zoom="0.18966866"
   inkscape:cx="-90.188187"
   inkscape:cy="921.56219"
   inkscape:window-x="194"
   inkscape:window-y="149"
   inkscape:window-maximized="0"
   inkscape:current-layer="Layer_1" />
   
	<g
   id="Grid"
   transform="matrix(1.949083,0,0,1.9463791,0.47454151,1.9751009)">
		<rect
   x="0"
   stroke-miterlimit="10"
   width="512"
   height="512"
   id="rect4"
   y="0"
   style="fill:none;stroke:#a9ccdb;stroke-miterlimit:10" />
		<line
   stroke-miterlimit="10"
   x1="0"
   y1="32"
   x2="512"
   y2="32"
   id="line6"
   style="fill:none;stroke:#a9ccdb;stroke-miterlimit:10" />
		<line
   stroke-miterlimit="10"
   x1="0"
   y1="64"
   x2="512"
   y2="64"
   id="line8"
   style="fill:none;stroke:#a9ccdb;stroke-miterlimit:10" />
		<line
   stroke-miterlimit="10"
   x1="0"
   y1="96"
   x2="512"
   y2="96"
   id="line10"
   style="fill:none;stroke:#a9ccdb;stroke-miterlimit:10" />
		<line
   stroke-miterlimit="10"
   x1="0"
   y1="128"
   x2="512"
   y2="128"
   id="line12"
   style="fill:none;stroke:#a9ccdb;stroke-miterlimit:10" />
		<line
   stroke-miterlimit="10"
   x1="0"
   y1="160"
   x2="512"
   y2="160"
   id="line14"
   style="fill:none;stroke:#a9ccdb;stroke-miterlimit:10" />
		<line
   stroke-miterlimit="10"
   x1="0"
   y1="192"
   x2="512"
   y2="192"
   id="line16"
   style="fill:none;stroke:#a9ccdb;stroke-miterlimit:10" />
		<line
   stroke-miterlimit="10"
   x1="0"
   y1="224"
   x2="512"
   y2="224"
   id="line18"
   style="fill:none;stroke:#a9ccdb;stroke-miterlimit:10" />
		<line
   stroke-miterlimit="10"
   x1="0"
   y1="256"
   x2="512"
   y2="256"
   id="line20"
   style="fill:none;stroke:#a9ccdb;stroke-miterlimit:10" />
		<line
   stroke-miterlimit="10"
   x1="0"
   y1="288"
   x2="512"
   y2="288"
   id="line22"
   style="fill:none;stroke:#a9ccdb;stroke-miterlimit:10" />
		<line
   stroke-miterlimit="10"
   x1="0"
   y1="320"
   x2="512"
   y2="320"
   id="line24"
   style="fill:none;stroke:#a9ccdb;stroke-miterlimit:10" />
		<line
   stroke-miterlimit="10"
   x1="0"
   y1="352"
   x2="512"
   y2="352"
   id="line26"
   style="fill:none;stroke:#a9ccdb;stroke-miterlimit:10" />
		<line
   stroke-miterlimit="10"
   x1="0"
   y1="384"
   x2="512"
   y2="384"
   id="line28"
   style="fill:none;stroke:#a9ccdb;stroke-miterlimit:10" />
		<line
   stroke-miterlimit="10"
   x1="0"
   y1="416"
   x2="512"
   y2="416"
   id="line30"
   style="fill:none;stroke:#a9ccdb;stroke-miterlimit:10" />
		<line
   stroke-miterlimit="10"
   x1="0"
   y1="448"
   x2="512"
   y2="448"
   id="line32"
   style="fill:none;stroke:#ff0000;stroke-miterlimit:10" />
		<line
   stroke-miterlimit="10"
   x1="0"
   y1="480"
   x2="512"
   y2="480"
   id="line34"
   style="fill:none;stroke:#a9ccdb;stroke-miterlimit:10" />
		<line
   stroke-miterlimit="10"
   x1="32"
   y1="0"
   x2="32"
   y2="512"
   id="line36"
   style="fill:none;stroke:#a9ccdb;stroke-miterlimit:10" />
		<line
   stroke-miterlimit="10"
   x1="64"
   y1="0"
   x2="64"
   y2="512"
   id="line38"
   style="fill:none;stroke:#a9ccdb;stroke-miterlimit:10" />
		<line
   stroke-miterlimit="10"
   x1="96"
   y1="0"
   x2="96"
   y2="512"
   id="line40"
   style="fill:none;stroke:#a9ccdb;stroke-miterlimit:10" />
		<line
   stroke-miterlimit="10"
   x1="128"
   y1="0"
   x2="128"
   y2="512"
   id="line42"
   style="fill:none;stroke:#a9ccdb;stroke-miterlimit:10" />
		<line
   stroke-miterlimit="10"
   x1="160"
   y1="0"
   x2="160"
   y2="512"
   id="line44"
   style="fill:none;stroke:#a9ccdb;stroke-miterlimit:10" />
		<line
   stroke-miterlimit="10"
   x1="192"
   y1="0"
   x2="192"
   y2="512"
   id="line46"
   style="fill:none;stroke:#a9ccdb;stroke-miterlimit:10" />
		<line
   stroke-miterlimit="10"
   x1="224"
   y1="0"
   x2="224"
   y2="512"
   id="line48"
   style="fill:none;stroke:#a9ccdb;stroke-miterlimit:10" />
		<line
   stroke-miterlimit="10"
   x1="256"
   y1="0"
   x2="256"
   y2="512"
   id="line50"
   style="fill:none;stroke:#a9ccdb;stroke-miterlimit:10" />
		<line
   stroke-miterlimit="10"
   x1="288"
   y1="0"
   x2="288"
   y2="512"
   id="line52"
   style="fill:none;stroke:#a9ccdb;stroke-miterlimit:10" />
		<line
   stroke-miterlimit="10"
   x1="320"
   y1="0"
   x2="320"
   y2="512"
   id="line54"
   style="fill:none;stroke:#a9ccdb;stroke-miterlimit:10" />
		<line
   stroke-miterlimit="10"
   x1="352"
   y1="0"
   x2="352"
   y2="512"
   id="line56"
   style="fill:none;stroke:#a9ccdb;stroke-miterlimit:10" />
		<line
   stroke-miterlimit="10"
   x1="384"
   y1="0"
   x2="384"
   y2="512"
   id="line58"
   style="fill:none;stroke:#a9ccdb;stroke-miterlimit:10" />
		<line
   stroke-miterlimit="10"
   x1="416"
   y1="0"
   x2="416"
   y2="512"
   id="line60"
   style="fill:none;stroke:#a9ccdb;stroke-miterlimit:10" />
		<line
   stroke-miterlimit="10"
   x1="448"
   y1="0"
   x2="448"
   y2="512"
   id="line62"
   style="fill:none;stroke:#a9ccdb;stroke-miterlimit:10" />
		<line
   stroke-miterlimit="10"
   x1="480"
   y1="0"
   x2="480"
   y2="512"
   id="line64"
   style="fill:none;stroke:#a9ccdb;stroke-miterlimit:10" />
	</g>
	

<g
   id="g62"
   transform="translate(2401.7858,200.14886)"><path
     style="fill:#7e4737;fill-opacity:0.92957746;stroke-width:13.42956448"
     d="m -1730.6842,672.80183 c -20.982,-17.79993 -61.2794,-21.99371 -247.3498,-25.74184 -116.1011,-8.3499 -230.5005,8.23067 -288.4415,-35.70423 -16.1607,-19.52132 -26.8577,-47.20798 -29.9427,-74.14247 -3.0568,-26.95787 4.5458,-51.29088 19.0792,-69.91052 17.0677,-21.86654 43.6943,-35.85337 73.8406,-36.95814 31.021,-0.35964 70.6084,3.8194 113.1995,9.24119 53.8005,10.04861 104.5499,10.34339 154.1794,17.40788 45.9048,6.59257 92.1029,16.56949 132.2333,3.77372 15.1496,-5.03449 28.7523,-13.01473 38.4939,-23.69129 29.6516,-32.49745 27.9029,-86.47875 -13.2453,-109.10244 -20.52,-10.49632 -43.6349,-7.63762 -66.7988,-5.88352 -15.1135,2.1389 -29.9869,-0.46901 -43.8965,-2.57427 -26.3079,-3.98821 -50.524,-8.23763 -72.8391,-13.51952 -24.5526,-5.14914 -45.4516,-12.66181 -64.4583,-23.10867 -19.663,-10.80762 -37.3008,-24.75559 -54.8635,-42.47577 -14.8409,-15.13481 -25.0181,-30.27428 -36.9749,-51.46027 -8.858,-15.72224 -17.5115,-31.70426 -25.1813,-47.80365 -17.86,-36.75956 -19.8206,-71.093726 -18.6371,-104.350006 0.9791,-27.5161104 6.3702,-73.5934 20.5245,-100.39695 10.3915,-14.8008 25.1726,-22.032 40.7086,-23.7513 22.4625,-2.4858 46.5032,6.5505 61.1367,20.8896 23.2078,23.89549 32.8366,86.88203 74.3781,148.9652 22.8321,34.122366 66.1188,35.682826 144.931,5.22467 44.4915,-17.19444 91.244,-30.03894 136.5093,-25.70231 52.4672,7.86984 85.8641,27.21984 105.6434,54.781056 17.0398,23.74402 23.9729,53.58228 24.2854,87.42465 0.2053,22.2328 -2.4467,46.1937 -6.9675,71.29011 -8.587,104.75248 39.8253,230.55645 10.8875,321.50179 -4.4819,30.42411 -21.9882,55.40354 -45.1526,71.14064 -32.855,22.32057 -100.68,30.33712 -135.2815,4.63666 z"
     id="path68"
     inkscape:connector-curvature="0"
     sodipodi:nodetypes="ccccsccccsccccscccscscsscssccsc" /></g><g
   id="g76"
   transform="translate(-1113.9504,-1745.9385)"><path
     style="fill:#867668;stroke-width:13.76826096"
     d="m 1785.052,2618.8892 c -21.1034,-20.7929 -48.5281,-22.8681 -261.0658,-19.7546 -79.7323,-5.458 -187.6947,13.7503 -268.4371,-14.27 -28.1172,-9.7576 -52.9335,-25.2424 -72.1073,-49.4905 -24.0548,-40.2675 -27.4493,-70.7032 -17.3007,-93.7463 28.8223,-65.4428 166.8803,-71.2583 251.1448,-73.3155 49.3587,1.2674 87.671,7.5915 124.438,15.8066 42.7393,12.086 75.1235,20.7945 109.7392,23.1 22.0729,1.4702 45.0532,0.3368 72.2041,-4.1846 l 30.846,-19.7926 13.363,-25.8676 5.3609,-31.7167 -12.8661,-35.6385 c -18.1799,-50.3575 -7.1591,-69.6553 -47.387,-106.6781 -26.0629,-23.9863 -58.5641,-62.2097 -72.225,-84.9409 -13.6609,-22.7312 -30.665,-41.3294 -37.787,-41.3294 -14.7362,0 -3.4419,88.9403 -53.651,145.6071 -26.4263,29.8251 -43.2486,39.8781 -58.629,28.8021 -10.9427,-7.8802 -36.0448,-22.8195 -61.342,-27.6387 -51.2839,-9.7698 -121.6821,-87.2565 -121.6821,-133.9343 0,-15.2826 -6.5613,-31.4024 -14.5807,-35.8217 -25.2149,-13.8956 -16.1206,-44.9679 32.5728,-111.2905 42.5397,-57.9412 52.4659,-64.2251 101.4504,-64.2251 53.7161,0 37.5012,-20.4722 132.777,80.4616 15.961,16.9088 42.8314,27.0314 71.7551,27.0314 25.4314,0 57.8243,9.3489 71.9843,20.7753 30.0984,24.288 53.2606,15.0897 71.8633,-28.5388 9.9321,-23.2936 24.3198,-31.24 56.5626,-31.24 23.7832,0 47.5474,6.2114 52.8094,13.8031 5.2619,7.5917 25.333,19.1479 44.6023,25.6805 30.4433,10.3207 35.3131,20.8657 37.1548,80.4553 1.1657,37.7179 -0.1726,89.0548 -2.9743,114.082 -2.8016,25.0272 -4.3496,65.9809 -3.4399,91.0081 0.9097,25.0273 4.9673,73.3072 5.3104,142.5 6.8072,35.4888 10.2714,72.0932 8.1429,105.6158 1.0244,33.8124 -5.2298,65.6183 -26.573,90.3686 -19.2078,22.2739 -46.1487,38.8334 -73.9208,45.9985 -31.7123,8.1817 -64.5084,4.1142 -88.1125,-17.6816 z"
     id="path82"
     inkscape:connector-curvature="0"
     sodipodi:nodetypes="ccscsccsccccscssscssccscsccsccscsccssc" /></g></svg>