<?xml version="1.0" encoding="UTF-8" standalone="no"?>
<svg
   xmlns:dc="http://purl.org/dc/elements/1.1/"
   xmlns:cc="http://creativecommons.org/ns#"
   xmlns:rdf="http://www.w3.org/1999/02/22-rdf-syntax-ns#"
   xmlns:svg="http://www.w3.org/2000/svg"
   xmlns="http://www.w3.org/2000/svg"
   xmlns:sodipodi="http://sodipodi.sourceforge.net/DTD/sodipodi-0.dtd"
   xmlns:inkscape="http://www.inkscape.org/namespaces/inkscape"
   version="1.1"
   id="Layer_1"
   x="0px"
   y="0px"
   width="1066.6666"
   height="1066.6666"
   viewBox="0 0 1000 1000"
   enable-background="new 0 0 512 512"
   xml:space="preserve"
   inkscape:version="0.92.1 r15371"
   sodipodi:docname="dalhebrew-x5d3.svg"><title
   id="title3743">Sinai 357</title><metadata
   id="metadata72"><rdf:RDF><cc:Work
       rdf:about=""><dc:format>image/svg+xml</dc:format><dc:type
         rdf:resource="http://purl.org/dc/dcmitype/StillImage" /><dc:title>Sinai 357</dc:title><dc:date>2017</dc:date><dc:creator><cc:Agent><dc:title>Celeste Claire Horner</dc:title></cc:Agent></dc:creator><dc:publisher><cc:Agent><dc:title>beitdina.net</dc:title></cc:Agent></dc:publisher></cc:Work></rdf:RDF></metadata><defs
   id="defs70" /><sodipodi:namedview
   pagecolor="#ffffff"
   bordercolor="#666666"
   borderopacity="1"
   objecttolerance="10"
   gridtolerance="10"
   guidetolerance="10"
   inkscape:pageopacity="0"
   inkscape:pageshadow="2"
   inkscape:window-width="1152"
   inkscape:window-height="814"
   id="namedview68"
   showgrid="false"
   inkscape:zoom="0.19406249"
   inkscape:cx="-254.23147"
   inkscape:cy="810.54053"
   inkscape:window-x="-8"
   inkscape:window-y="-8"
   inkscape:window-maximized="1"
   inkscape:current-layer="Layer_1" />
   
	<g
   id="Grid"
   transform="matrix(1.949083,0,0,1.9463791,4.8939593,2.3372611)">
		<rect
   x="0"
   stroke-miterlimit="10"
   width="512"
   height="512"
   id="rect4"
   y="0"
   style="fill:none;stroke:#a9ccdb;stroke-miterlimit:10" />
		<line
   stroke-miterlimit="10"
   x1="0"
   y1="32"
   x2="512"
   y2="32"
   id="line6"
   style="fill:none;stroke:#a9ccdb;stroke-miterlimit:10" />
		<line
   stroke-miterlimit="10"
   x1="0"
   y1="64"
   x2="512"
   y2="64"
   id="line8"
   style="fill:none;stroke:#a9ccdb;stroke-miterlimit:10" />
		<line
   stroke-miterlimit="10"
   x1="0"
   y1="96"
   x2="512"
   y2="96"
   id="line10"
   style="fill:none;stroke:#a9ccdb;stroke-miterlimit:10" />
		<line
   stroke-miterlimit="10"
   x1="0"
   y1="128"
   x2="512"
   y2="128"
   id="line12"
   style="fill:none;stroke:#a9ccdb;stroke-miterlimit:10" />
		<line
   stroke-miterlimit="10"
   x1="0"
   y1="160"
   x2="512"
   y2="160"
   id="line14"
   style="fill:none;stroke:#a9ccdb;stroke-miterlimit:10" />
		<line
   stroke-miterlimit="10"
   x1="0"
   y1="192"
   x2="512"
   y2="192"
   id="line16"
   style="fill:none;stroke:#a9ccdb;stroke-miterlimit:10" />
		<line
   stroke-miterlimit="10"
   x1="0"
   y1="224"
   x2="512"
   y2="224"
   id="line18"
   style="fill:none;stroke:#a9ccdb;stroke-miterlimit:10" />
		<line
   stroke-miterlimit="10"
   x1="0"
   y1="256"
   x2="512"
   y2="256"
   id="line20"
   style="fill:none;stroke:#a9ccdb;stroke-miterlimit:10" />
		<line
   stroke-miterlimit="10"
   x1="0"
   y1="288"
   x2="512"
   y2="288"
   id="line22"
   style="fill:none;stroke:#a9ccdb;stroke-miterlimit:10" />
		<line
   stroke-miterlimit="10"
   x1="0"
   y1="320"
   x2="512"
   y2="320"
   id="line24"
   style="fill:none;stroke:#a9ccdb;stroke-miterlimit:10" />
		<line
   stroke-miterlimit="10"
   x1="0"
   y1="352"
   x2="512"
   y2="352"
   id="line26"
   style="fill:none;stroke:#a9ccdb;stroke-miterlimit:10" />
		<line
   stroke-miterlimit="10"
   x1="0"
   y1="384"
   x2="512"
   y2="384"
   id="line28"
   style="fill:none;stroke:#a9ccdb;stroke-miterlimit:10" />
		<line
   stroke-miterlimit="10"
   x1="0"
   y1="416"
   x2="512"
   y2="416"
   id="line30"
   style="fill:none;stroke:#a9ccdb;stroke-miterlimit:10" />
		<line
   stroke-miterlimit="10"
   x1="0"
   y1="448"
   x2="512"
   y2="448"
   id="line32"
   style="fill:none;stroke:#ff0000;stroke-miterlimit:10" />
		<line
   stroke-miterlimit="10"
   x1="0"
   y1="480"
   x2="512"
   y2="480"
   id="line34"
   style="fill:none;stroke:#a9ccdb;stroke-miterlimit:10" />
		<line
   stroke-miterlimit="10"
   x1="32"
   y1="0"
   x2="32"
   y2="512"
   id="line36"
   style="fill:none;stroke:#a9ccdb;stroke-miterlimit:10" />
		<line
   stroke-miterlimit="10"
   x1="64"
   y1="0"
   x2="64"
   y2="512"
   id="line38"
   style="fill:none;stroke:#a9ccdb;stroke-miterlimit:10" />
		<line
   stroke-miterlimit="10"
   x1="96"
   y1="0"
   x2="96"
   y2="512"
   id="line40"
   style="fill:none;stroke:#a9ccdb;stroke-miterlimit:10" />
		<line
   stroke-miterlimit="10"
   x1="128"
   y1="0"
   x2="128"
   y2="512"
   id="line42"
   style="fill:none;stroke:#a9ccdb;stroke-miterlimit:10" />
		<line
   stroke-miterlimit="10"
   x1="160"
   y1="0"
   x2="160"
   y2="512"
   id="line44"
   style="fill:none;stroke:#a9ccdb;stroke-miterlimit:10" />
		<line
   stroke-miterlimit="10"
   x1="192"
   y1="0"
   x2="192"
   y2="512"
   id="line46"
   style="fill:none;stroke:#a9ccdb;stroke-miterlimit:10" />
		<line
   stroke-miterlimit="10"
   x1="224"
   y1="0"
   x2="224"
   y2="512"
   id="line48"
   style="fill:none;stroke:#a9ccdb;stroke-miterlimit:10" />
		<line
   stroke-miterlimit="10"
   x1="256"
   y1="0"
   x2="256"
   y2="512"
   id="line50"
   style="fill:none;stroke:#a9ccdb;stroke-miterlimit:10" />
		<line
   stroke-miterlimit="10"
   x1="288"
   y1="0"
   x2="288"
   y2="512"
   id="line52"
   style="fill:none;stroke:#a9ccdb;stroke-miterlimit:10" />
		<line
   stroke-miterlimit="10"
   x1="320"
   y1="0"
   x2="320"
   y2="512"
   id="line54"
   style="fill:none;stroke:#a9ccdb;stroke-miterlimit:10" />
		<line
   stroke-miterlimit="10"
   x1="352"
   y1="0"
   x2="352"
   y2="512"
   id="line56"
   style="fill:none;stroke:#a9ccdb;stroke-miterlimit:10" />
		<line
   stroke-miterlimit="10"
   x1="384"
   y1="0"
   x2="384"
   y2="512"
   id="line58"
   style="fill:none;stroke:#a9ccdb;stroke-miterlimit:10" />
		<line
   stroke-miterlimit="10"
   x1="416"
   y1="0"
   x2="416"
   y2="512"
   id="line60"
   style="fill:none;stroke:#a9ccdb;stroke-miterlimit:10" />
		<line
   stroke-miterlimit="10"
   x1="448"
   y1="0"
   x2="448"
   y2="512"
   id="line62"
   style="fill:none;stroke:#a9ccdb;stroke-miterlimit:10" />
		<line
   stroke-miterlimit="10"
   x1="480"
   y1="0"
   x2="480"
   y2="512"
   id="line64"
   style="fill:none;stroke:#a9ccdb;stroke-miterlimit:10" />
	</g>

	 
<g
   id="g114"
   transform="matrix(0.81948273,0,0,0.80755306,2959.6369,-509.66968)"><path
     style="fill:#592208;stroke-width:1.24999988"
     d="m -2756.0531,1694.2393 c -2.7316,-0.3113 -3.2054,-0.7014 -1.875,-1.5434 1.4843,-0.9394 1.4446,-1.13 -0.2385,-1.1459 -3.7124,-0.035 -8.5214,-5.0619 -9.9484,-10.3987 -0.7715,-2.885 -2.713,-8.058 -4.3145,-11.4955 -2.0854,-4.4761 -3.1424,-9.6202 -3.724,-18.125 -0.4936,-7.218 -3.4507,-23.3948 -7.5404,-41.25 -3.7005,-16.1562 -11.0256,-48.7812 -16.2778,-72.5 -15.6428,-70.6419 -22.3242,-96.518 -36.9564,-143.1249 -4.101,-13.0625 -9.3571,-33.3125 -11.6804,-45 -6.0444,-30.4071 -10.981,-50.3192 -16.7345,-67.5 -2.7627,-8.25 -9.7996,-30.75 -15.6376,-50 -18.2124,-60.0535 -25.8705,-81.1692 -32.9566,-90.8708 -2.6632,-3.6461 -9.7417,-13.773 -15.7302,-22.5042 -14.2267,-20.7426 -26.8004,-35.8958 -34.4368,-41.5014 -18.4281,-13.5274 -39.552,-16.0577 -67.69,-8.1081 -9.1439,2.5834 -10.7153,2.6237 -70.1393,1.7992 l -60.7858,-0.8433 -11.5088,4.4447 c -6.3298,2.4446 -16.1012,6.9305 -21.7142,9.9686 -13.4607,7.286 -49.7806,22.5572 -63.2521,26.5951 -10.4154,3.122 -11.9,3.224 -55.1972,3.7947 -43.8868,0.5785 -44.5821,0.5485 -50.9663,-2.1979 -11.1424,-4.7933 -14.427,-10.7456 -15.9521,-28.9086 -1.3214,-15.7378 6.3512,-43.792 16.1035,-58.8806 11.3903,-17.6231 21.8824,-27.3398 62.1838,-57.58828 33.1068,-24.84855 46.2517,-36.20561 46.2453,-39.95554 -0.01,-3.71237 -3.2104,-8.52555 -12.9409,-19.43984 -11.9016,-13.34953 -13.0739,-18.67302 -6.2944,-28.58389 2.8973,-4.23547 3.1209,-5.36136 2.1789,-10.9699 -0.5773,-3.4375 -1.0529,-21.71875 -1.0568,-40.62499 l -0.01,-34.375 3.4625,-8.125 c 4.8521,-11.38595 12.081,-30.20832 19.2031,-50 6.5317,-18.1514 7.3624,-19.32346 21.2615,-29.99999 l 7.3229,-5.625 11.9248,0.34263 c 11.8076,0.33926 11.96,0.30578 15.5187,-3.40861 1.9766,-2.06318 5.5253,-4.38865 7.8858,-5.16771 5.3278,-1.75832 24.042,-0.39765 28.8207,2.09548 2.144,1.11861 7.4,1.7489 14.6,1.75083 9.0465,0.002 12.0516,-0.48572 15.3427,-2.49229 3.5494,-2.16406 6.3032,-2.49533 20.7438,-2.49533 18.8964,0 19.4579,0.25304 22.0359,9.93064 2.7703,10.39968 0.1852,21.45632 -13.1677,56.31935 -4.3448,11.34375 -8.8149,24.5625 -9.9336,29.375 -1.1186,4.8125 -3.3892,14.09375 -5.0457,20.625 -1.6566,6.53125 -3.6296,16.09375 -4.3845,21.25 -0.7549,5.15625 -3.3971,14.43749 -5.8714,20.62499 -3.836,9.59233 -4.5838,13.10361 -5.0752,23.82974 -1.0573,23.0783 3.9937,35.57988 23.1344,57.25957 2.9569,3.34912 10.1145,12.34912 15.9057,20 5.7912,7.65087 13.6209,16.94713 17.3993,20.65834 5.6949,5.59355 7.9001,6.91208 12.8931,7.7089 8.2608,1.31833 11.1261,0.38478 14.055,-4.57925 3.2717,-5.54513 5.749,-5.5084 23.449,0.34775 17.1082,5.6603 18.5126,5.30644 24.2786,-6.11711 2.1814,-4.32187 5.3416,-9.66153 7.0227,-11.86591 3.9269,-5.14939 18.316,-16.78219 24.9363,-20.1596 2.8982,-1.47857 7.1491,-5.37131 9.7816,-8.95743 2.5607,-3.48834 6.8155,-7.44424 9.4552,-8.7909 3.5772,-1.82495 5.1682,-3.6435 6.2479,-7.14128 0.811,-2.62763 1.8634,-18.9952 2.3914,-37.19282 0.5186,-17.875 1.0189,-32.65318 1.1117,-32.84042 0.093,-0.18724 2.4119,-2.77391 5.1535,-5.74816 9.6349,-10.45266 10.6639,-17.52951 5.6403,-38.7903 -4.6248,-19.57304 -4.5599,-19.96295 4.8041,-28.84776 11.1831,-10.61083 19.517,-15.23052 31.9882,-17.73187 7.9516,-1.59485 12.2173,-3.28216 17.9126,-7.08529 l 7.4754,-4.99193 7.6599,3.8328 c 4.2129,2.10804 11.8786,4.75205 17.0348,5.87557 14.9773,3.26349 24.5204,6.81911 32.2078,12.00019 9.7934,6.60043 12.7161,11.36547 14.2972,23.30917 1.5399,11.63225 3.577,15.91183 12.6274,26.52786 9.5876,11.24618 14.1399,19.25228 19.7694,34.76906 2.6881,7.4091 5.723,15.43983 6.7443,17.84608 1.0213,2.40625 2.9514,11.96875 4.2892,21.25 1.4468,10.03784 3.8517,20.67342 5.9357,26.25 l 3.5035,9.375 -0.022,33.74999 c -0.031,47.68255 -2.3911,58.50336 -15.0144,68.84726 -7.2517,5.9422 -8.5564,10.3202 -7.7542,26.0189 0.4739,9.2744 2.8281,22.273 8.8532,48.8838 11.8743,52.4437 21.4489,98.734 35.809,173.1251 15.5439,80.5236 22.3381,113.8918 34.9961,171.875 7.9225,36.2913 20.349,98.3075 22.9178,114.3749 0.459,2.8707 0.5278,2.8199 0.8459,-0.625 0.236,-2.5564 0.6114,-1.5617 1.1794,3.125 0.9514,7.8506 0.2968,13.6479 -1.2572,11.1336 -1.7241,-2.7897 -3.357,6.4832 -2.1117,11.9914 0.6218,2.75 0.7296,7.8125 0.2396,11.25 -0.49,3.4375 -0.9856,15.6011 -1.1015,27.0301 -0.168,16.5856 -0.6097,21.3893 -2.1884,23.7986 -3.1554,4.8157 -32.9974,24.6825 -44.0489,29.3247 -6.1265,2.5735 -12.9352,6.6738 -17.3274,10.4349 -6.6825,5.7222 -12.7767,8.5761 -19.0147,8.9044 -2.0441,0.1076 -1.9301,0.2989 0.625,1.0494 2.7784,0.816 2.5704,0.9755 -1.875,1.4379 -2.75,0.286 -6.6449,0.3326 -8.6554,0.1035 z"
     id="path116"
     inkscape:connector-curvature="0" /></g><g
   id="g132"
   transform="matrix(1.0168819,0,0,0.85302047,1776.2522,-288.56419)"><path
     style="fill:#592208;stroke-width:1.25000012"
     d="m -1057.3039,1344.7305 c -2.0625,-0.5227 -3.1875,-1.0298 -2.5,-1.1268 0.6875,-0.097 -0.5609,-1.0692 -2.7742,-2.1604 -3.0373,-1.4976 -4.6337,-3.6134 -6.51,-8.6282 -1.3672,-3.6542 -3.6344,-8.7871 -5.0383,-11.4064 -1.873,-3.4946 -2.5525,-7.0906 -2.5525,-13.508 0,-6.651 -2.241,-17.8829 -9.3563,-46.8936 -5.146,-20.9813 -13.8245,-56.4818 -19.2858,-78.89 -12.2861,-50.4118 -18.6789,-73.1239 -30.049,-106.7577 -4.9951,-14.7761 -10.5148,-34.1364 -12.6279,-44.2922 -2.0646,-9.9231 -5.1181,-23.4231 -6.7855,-30 -4.0022,-15.78579 -37.8272,-117.55227 -45.8743,-138.01827 -5.9838,-15.2184 -7.2824,-17.34815 -24.7697,-40.62501 -22.6678,-30.17259 -31.9595,-39.81169 -44.1304,-45.78071 -20.0981,-9.85673 -40.4427,-9.16365 -75.7096,2.57917 -17.6994,5.89338 -24.0081,8.72909 -46.9972,21.1248 -13.7071,7.39082 -13.7145,7.39306 -27.5,8.30468 -17.4359,1.153 -21.5995,2.31038 -59.8658,16.64132 -43.1226,16.14965 -73.6061,24.9505 -95.1735,27.47742 -3.4375,0.40275 -16.8075,2.13434 -29.7111,3.84799 -24.5136,3.25549 -30.0301,3.07613 -38.3926,-1.24831 -4.9737,-2.57198 -9.7904,-8.7588 -10.7336,-13.78687 -0.4465,-2.37998 -1.2364,-4.06486 -1.7553,-3.74415 -1.4688,0.90775 -2.4649,-14.32871 -1.3471,-20.60499 0.551,-3.09375 1.0896,-4.78125 1.197,-3.75 0.1074,1.03125 2.9861,-6.20712 6.397,-16.08529 10.9753,-31.78482 23.093,-53.88467 38.6851,-70.55272 4.3153,-4.61306 20.8543,-18.92332 36.7533,-31.80058 40.7765,-33.0265 53.7844,-44.39893 58.3134,-50.9816 3.6721,-5.33719 6.7772,-11.56773 21.5976,-43.33596 6.5251,-13.98691 12.2952,-20.34181 25.7015,-28.30634 14.7924,-8.78805 14.133,-6.65172 13.5436,-43.87592 -0.2781,-17.56515 -0.076,-35.12094 0.4496,-39.01287 0.5254,-3.89194 3.5957,-13.45444 6.8229,-21.25001 3.2272,-7.79556 7.7401,-19.5175 10.0287,-26.04875 8.683,-24.77964 10.8773,-29.0544 17.0032,-33.12501 3.1039,-2.0625 7.5031,-5.32434 9.7761,-7.24853 3.9326,-3.32924 4.6586,-3.48046 15.0038,-3.125 10.6751,0.36679 10.9534,0.30136 15.4298,-3.62731 2.5073,-2.20047 6.5494,-4.37431 8.9825,-4.83076 5.7039,-1.07007 19.659,0.42864 25.0794,2.6934 6.5148,2.72205 21.5256,2.30233 26.5179,-0.74147 3.5356,-2.15568 6.303,-2.49533 20.3309,-2.49533 h 16.2381 l 2.477,4.0625 c 3.0786,5.04934 3.3232,16.7218 0.5728,27.33598 -1.0524,4.06138 -5.5172,16.51758 -9.9217,27.68043 -4.4046,11.16286 -8.9276,24.2336 -10.0511,29.0461 -1.1236,4.8125 -3.1513,13.09531 -4.5062,18.40624 -1.3548,5.31093 -3.253,14.1477 -4.2182,19.63728 -0.9651,5.48956 -3.4726,13.8948 -5.5721,18.67828 -3.0755,7.00737 -3.8172,10.41332 -3.8172,17.52939 0,12.3484 -10.5633,50.16283 -18.2678,65.39478 -1.6402,3.24276 -2.9822,6.95934 -2.9822,8.25905 0,2.68968 28.6466,32.4971 37.9082,39.44439 5.0299,3.77298 7.0581,4.52562 12.1958,4.52562 3.3893,0 11.8811,0.85892 18.8705,1.90872 13.2644,1.99228 13.9424,1.85386 16.4879,-3.366 0.7918,-1.62354 5.1669,-4.85829 9.8637,-7.29273 4.6425,-2.40625 8.7104,-5.21875 9.0399,-6.25 0.3295,-1.03125 -0.5138,-5.53125 -1.8739,-10 -5.0693,-16.65511 -2.3584,-29.7342 7.5828,-36.58459 2.7613,-1.90277 5.3699,-4.37006 5.7969,-5.48286 0.427,-1.1128 0.102,-7.14974 -0.7222,-13.41542 -0.917,-6.97074 -1.6007,-31.94415 -1.7616,-64.3463 -0.2568,-51.69489 -0.2036,-52.99547 2.237,-54.69077 25.3523,-17.61065 30.9443,-19.85508 49.4692,-19.85508 13.0221,0 13.3763,0.0783 23.75,5.24944 14.3193,7.13797 20.6075,13.05593 41.4451,39.00522 15.293,19.04445 19.6288,25.49607 29.993,44.62906 6.6635,12.30147 13.7747,26.39726 15.8025,31.32398 2.0278,4.92674 5.1153,11.39549 6.8611,14.375 4.6041,7.85787 7.0541,18.75924 7.0541,31.38712 0,12.14438 1.0947,15.43279 5.7234,17.19261 4.1719,1.58614 5.8348,6.58643 5.2669,15.83689 -0.3834,6.24469 -1.2386,8.81157 -4.4047,13.22028 -5.3567,7.45905 -5.8943,10.57989 -3.5776,20.76586 3.3324,14.65156 1.8186,64.14168 -2.0368,66.58836 -0.8779,0.55712 -3.6858,1.02155 -6.2397,1.03208 -3.2986,0.0136 -5.0183,0.71941 -5.9375,2.43696 -2.5099,4.68976 -0.6772,46.19897 2.1652,49.04142 1.1001,1.10006 5.4547,1.5052 14.372,1.3371 7.0366,-0.13265 14.5758,0.33734 16.7539,1.0444 7.3214,2.37674 9.7219,9.01474 15.3366,42.40927 6.4557,38.39773 8.0892,58.52361 11.3628,140.00002 2.41305,60.0612 6.75685,92.0905 20.42776,150.625 2.4085,10.3125 6.1582,27.4687 8.3327,38.125 2.1745,10.6562 4.937,24.132 6.1389,29.9462 1.2019,5.8141 2.5078,9.7516 2.902,8.75 0.3942,-1.0017 0.8642,0.71 1.0444,3.8038 0.4959,8.5125 0.1189,11.5735 -1.5527,12.6065 -1.5366,0.9497 -2.9044,31.7229 -2.431,54.6933 0.2133,10.3469 0.1832,10.4544 -4.0177,14.375 -6.7874,6.3346 -32.24356,21.7074 -41.82966,25.2606 -5.3541,1.9846 -11.3681,5.4499 -15.3356,8.8365 -3.7119,3.1685 -8.8538,6.1938 -11.9212,7.0142 -2.9667,0.7935 -5.113,1.8975 -4.7694,2.4533 0.3435,0.5558 -1.0502,1.0106 -3.097,1.0106 -2.0468,0 -4.4707,0.213 -5.3863,0.4733 -0.9156,0.2604 -3.3522,0.046 -5.4147,-0.4771 z"
     id="path134"
     inkscape:connector-curvature="0" /></g></svg>