<?xml version="1.0" encoding="UTF-8" standalone="no"?>
<svg
   xmlns:dc="http://purl.org/dc/elements/1.1/"
   xmlns:cc="http://creativecommons.org/ns#"
   xmlns:rdf="http://www.w3.org/1999/02/22-rdf-syntax-ns#"
   xmlns:svg="http://www.w3.org/2000/svg"
   xmlns="http://www.w3.org/2000/svg"
   xmlns:sodipodi="http://sodipodi.sourceforge.net/DTD/sodipodi-0.dtd"
   xmlns:inkscape="http://www.inkscape.org/namespaces/inkscape"
   version="1.1"
   id="Layer_1"
   x="0px"
   y="0px"
   width="1066.6666"
   height="1066.6666"
   viewBox="0 0 1000 1000"
   enable-background="new 0 0 512 512"
   xml:space="preserve"
   inkscape:version="0.92.1 r15371"
   sodipodi:docname="dalhebrew-x5d3.svg"><title
   id="title3743">Sinai 357</title><metadata
   id="metadata72"><rdf:RDF><cc:Work
       rdf:about=""><dc:format>image/svg+xml</dc:format><dc:type
         rdf:resource="http://purl.org/dc/dcmitype/StillImage" /><dc:title>Sinai 357</dc:title><dc:date>2017</dc:date><dc:creator><cc:Agent><dc:title>Celeste Claire Horner</dc:title></cc:Agent></dc:creator><dc:publisher><cc:Agent><dc:title>beitdina.net</dc:title></cc:Agent></dc:publisher></cc:Work></rdf:RDF></metadata><defs
   id="defs70" /><sodipodi:namedview
   pagecolor="#ffffff"
   bordercolor="#666666"
   borderopacity="1"
   objecttolerance="10"
   gridtolerance="10"
   guidetolerance="10"
   inkscape:pageopacity="0"
   inkscape:pageshadow="2"
   inkscape:window-width="701"
   inkscape:window-height="643"
   id="namedview68"
   showgrid="false"
   inkscape:zoom="0.11313708"
   inkscape:cx="113.65945"
   inkscape:cy="472.99269"
   inkscape:window-x="138"
   inkscape:window-y="138"
   inkscape:window-maximized="0"
   inkscape:current-layer="Layer_1" />
   
	<g
   id="Grid"
   transform="matrix(1.949083,0,0,1.9463791,4.8939593,2.3372611)">
		<rect
   x="0"
   stroke-miterlimit="10"
   width="512"
   height="512"
   id="rect4"
   y="0"
   style="fill:none;stroke:#a9ccdb;stroke-miterlimit:10" />
		<line
   stroke-miterlimit="10"
   x1="0"
   y1="32"
   x2="512"
   y2="32"
   id="line6"
   style="fill:none;stroke:#a9ccdb;stroke-miterlimit:10" />
		<line
   stroke-miterlimit="10"
   x1="0"
   y1="64"
   x2="512"
   y2="64"
   id="line8"
   style="fill:none;stroke:#a9ccdb;stroke-miterlimit:10" />
		<line
   stroke-miterlimit="10"
   x1="0"
   y1="96"
   x2="512"
   y2="96"
   id="line10"
   style="fill:none;stroke:#a9ccdb;stroke-miterlimit:10" />
		<line
   stroke-miterlimit="10"
   x1="0"
   y1="128"
   x2="512"
   y2="128"
   id="line12"
   style="fill:none;stroke:#a9ccdb;stroke-miterlimit:10" />
		<line
   stroke-miterlimit="10"
   x1="0"
   y1="160"
   x2="512"
   y2="160"
   id="line14"
   style="fill:none;stroke:#a9ccdb;stroke-miterlimit:10" />
		<line
   stroke-miterlimit="10"
   x1="0"
   y1="192"
   x2="512"
   y2="192"
   id="line16"
   style="fill:none;stroke:#a9ccdb;stroke-miterlimit:10" />
		<line
   stroke-miterlimit="10"
   x1="0"
   y1="224"
   x2="512"
   y2="224"
   id="line18"
   style="fill:none;stroke:#a9ccdb;stroke-miterlimit:10" />
		<line
   stroke-miterlimit="10"
   x1="0"
   y1="256"
   x2="512"
   y2="256"
   id="line20"
   style="fill:none;stroke:#a9ccdb;stroke-miterlimit:10" />
		<line
   stroke-miterlimit="10"
   x1="0"
   y1="288"
   x2="512"
   y2="288"
   id="line22"
   style="fill:none;stroke:#a9ccdb;stroke-miterlimit:10" />
		<line
   stroke-miterlimit="10"
   x1="0"
   y1="320"
   x2="512"
   y2="320"
   id="line24"
   style="fill:none;stroke:#a9ccdb;stroke-miterlimit:10" />
		<line
   stroke-miterlimit="10"
   x1="0"
   y1="352"
   x2="512"
   y2="352"
   id="line26"
   style="fill:none;stroke:#a9ccdb;stroke-miterlimit:10" />
		<line
   stroke-miterlimit="10"
   x1="0"
   y1="384"
   x2="512"
   y2="384"
   id="line28"
   style="fill:none;stroke:#a9ccdb;stroke-miterlimit:10" />
		<line
   stroke-miterlimit="10"
   x1="0"
   y1="416"
   x2="512"
   y2="416"
   id="line30"
   style="fill:none;stroke:#a9ccdb;stroke-miterlimit:10" />
		<line
   stroke-miterlimit="10"
   x1="0"
   y1="448"
   x2="512"
   y2="448"
   id="line32"
   style="fill:none;stroke:#ff0000;stroke-miterlimit:10" />
		<line
   stroke-miterlimit="10"
   x1="0"
   y1="480"
   x2="512"
   y2="480"
   id="line34"
   style="fill:none;stroke:#a9ccdb;stroke-miterlimit:10" />
		<line
   stroke-miterlimit="10"
   x1="32"
   y1="0"
   x2="32"
   y2="512"
   id="line36"
   style="fill:none;stroke:#a9ccdb;stroke-miterlimit:10" />
		<line
   stroke-miterlimit="10"
   x1="64"
   y1="0"
   x2="64"
   y2="512"
   id="line38"
   style="fill:none;stroke:#a9ccdb;stroke-miterlimit:10" />
		<line
   stroke-miterlimit="10"
   x1="96"
   y1="0"
   x2="96"
   y2="512"
   id="line40"
   style="fill:none;stroke:#a9ccdb;stroke-miterlimit:10" />
		<line
   stroke-miterlimit="10"
   x1="128"
   y1="0"
   x2="128"
   y2="512"
   id="line42"
   style="fill:none;stroke:#a9ccdb;stroke-miterlimit:10" />
		<line
   stroke-miterlimit="10"
   x1="160"
   y1="0"
   x2="160"
   y2="512"
   id="line44"
   style="fill:none;stroke:#a9ccdb;stroke-miterlimit:10" />
		<line
   stroke-miterlimit="10"
   x1="192"
   y1="0"
   x2="192"
   y2="512"
   id="line46"
   style="fill:none;stroke:#a9ccdb;stroke-miterlimit:10" />
		<line
   stroke-miterlimit="10"
   x1="224"
   y1="0"
   x2="224"
   y2="512"
   id="line48"
   style="fill:none;stroke:#a9ccdb;stroke-miterlimit:10" />
		<line
   stroke-miterlimit="10"
   x1="256"
   y1="0"
   x2="256"
   y2="512"
   id="line50"
   style="fill:none;stroke:#a9ccdb;stroke-miterlimit:10" />
		<line
   stroke-miterlimit="10"
   x1="288"
   y1="0"
   x2="288"
   y2="512"
   id="line52"
   style="fill:none;stroke:#a9ccdb;stroke-miterlimit:10" />
		<line
   stroke-miterlimit="10"
   x1="320"
   y1="0"
   x2="320"
   y2="512"
   id="line54"
   style="fill:none;stroke:#a9ccdb;stroke-miterlimit:10" />
		<line
   stroke-miterlimit="10"
   x1="352"
   y1="0"
   x2="352"
   y2="512"
   id="line56"
   style="fill:none;stroke:#a9ccdb;stroke-miterlimit:10" />
		<line
   stroke-miterlimit="10"
   x1="384"
   y1="0"
   x2="384"
   y2="512"
   id="line58"
   style="fill:none;stroke:#a9ccdb;stroke-miterlimit:10" />
		<line
   stroke-miterlimit="10"
   x1="416"
   y1="0"
   x2="416"
   y2="512"
   id="line60"
   style="fill:none;stroke:#a9ccdb;stroke-miterlimit:10" />
		<line
   stroke-miterlimit="10"
   x1="448"
   y1="0"
   x2="448"
   y2="512"
   id="line62"
   style="fill:none;stroke:#a9ccdb;stroke-miterlimit:10" />
		<line
   stroke-miterlimit="10"
   x1="480"
   y1="0"
   x2="480"
   y2="512"
   id="line64"
   style="fill:none;stroke:#a9ccdb;stroke-miterlimit:10" />
	</g>

	 
<path
   style="fill:#592208;stroke-width:1.09226513"
   d="m 655.70913,221.38467 c -10.624,44.5137 -16.15197,64.56857 -25.98388,94.26728 -4.31935,13.04733 -9.09233,30.14254 -10.91957,39.11011 -1.78529,8.76219 -4.4257,20.6827 -5.86753,26.49014 -10.38776,29.30933 -18.80916,64.94739 -33.59884,93.33993 -10.70269,20.5465 -24.74016,37.29858 -45.27123,45.11239 -18.77352,6.97586 -39.4752,9.93972 -52.68591,10.5557 -39.63673,-0.25737 -78.96199,-1.53568 -117.7014,-2.64238 -37.33952,-1.06683 -74.13478,-1.97405 -110.13987,-1.65404 -15.16247,0.22551 -32.01607,-2.51247 -43.58148,2.81472 -4.30085,2.27103 -8.46593,7.73406 -9.28153,12.17388 -0.3861,2.10142 -1.06914,3.58921 -1.51784,3.30599 -1.27009,-0.80144 -2.13144,12.65229 -1.16486,18.19426 0.47646,2.73188 0.9422,4.22195 1.03507,3.31126 0.0929,-0.9105 2.58213,5.48088 5.53159,14.20337 6.62348,18.69199 17.16455,34.2344 29.0385,48.31823 15.09865,17.90875 32.35235,33.45899 46.44655,50.12713 13.91373,16.46565 30.2395,35.65828 39.73764,56.33979 5.64236,12.35049 10.63187,17.96192 22.22452,24.9946 12.79124,7.75991 12.22105,5.87344 11.71138,38.74249 -0.24047,15.51009 -0.0657,31.01189 0.38878,34.44852 0.45432,3.43654 3.10926,11.88027 5.89988,18.76382 2.79061,6.88345 6.693,17.23395 8.67199,23.00115 7.50834,21.88044 9.40578,25.65501 14.70295,29.24941 2.684,1.82119 6.48806,4.70138 8.45356,6.40049 3.40059,2.93972 4.02838,3.07319 12.97405,2.75937 9.23094,-0.32392 9.47159,-0.26611 13.34241,3.20293 2.1681,1.943 5.66338,3.86252 7.76732,4.26556 4.93226,0.94483 16.99947,-0.37855 21.68658,-2.37827 5.63346,-2.40359 18.61356,-2.03296 22.93048,0.65468 3.0573,1.90349 5.45032,2.20338 17.58048,2.20338 h 14.04136 l 2.14191,-3.58721 c 2.66211,-4.45857 2.87362,-14.76537 0.49531,-24.13771 -0.91003,-3.58621 -4.77082,-14.58511 -8.57947,-24.44189 -3.80873,-9.85687 -7.71984,-21.39828 -8.69135,-25.64773 -0.9716,-4.24945 -2.72499,-11.56317 -3.89659,-16.2528 -1.17152,-4.68955 -2.81293,-12.49252 -3.64755,-17.33984 -0.83454,-4.84723 -3.00282,-12.26911 -4.81829,-16.49288 -2.65944,-6.18754 -3.3008,-9.19509 -3.3008,-15.4785 0,-10.90366 -9.13427,-44.29401 -15.79648,-57.74374 -1.41831,-2.86343 -2.57876,-6.1452 -2.57876,-7.29287 0,-2.375 24.77121,-28.69498 32.77987,-34.82944 4.34944,-3.33148 6.10326,-3.99617 10.54592,-3.99617 2.93078,0 10.27379,-0.75838 16.31764,-1.68536 11.46995,-1.75919 12.05623,-1.63702 14.25737,2.97214 0.68468,1.43363 4.4679,4.28996 8.52931,6.43954 4.01445,2.12472 7.53203,4.60815 7.81695,5.51875 0.28493,0.91059 -0.44429,4.8841 -1.62039,8.83001 -4.38351,14.70647 -2.03935,26.25534 6.55698,32.30432 2.38774,1.68017 4.64344,3.85879 5.01267,4.8414 0.36924,0.98261 0.0882,6.31317 -0.62449,11.84585 -0.79295,6.15522 -1.38416,28.20681 -1.52329,56.81794 -0.22206,45.64671 -0.17606,46.7951 1.93437,48.2921 21.92257,15.55024 26.75807,17.53212 42.77686,17.53212 11.26044,0 11.56672,-0.0692 20.53703,-4.63538 12.38215,-6.3027 17.81966,-11.52839 35.83829,-34.44169 13.22412,-16.81617 16.97336,-22.51309 25.93546,-39.40755 5.76204,-10.86215 11.91122,-23.30878 13.66469,-27.65911 1.75347,-4.35041 4.42329,-10.06226 5.93291,-12.69317 3.98124,-6.93854 6.0998,-16.56453 6.0998,-27.71492 0,-10.72358 0.94661,-13.62726 4.94912,-15.18115 3.60751,-1.40049 5.04545,-5.81582 4.55438,-13.98406 -0.33153,-5.51401 -1.07104,-7.78058 -3.80882,-11.67351 -4.63203,-6.5863 -5.0969,-9.34203 -3.09361,-18.33628 2.88158,-12.93735 1.57257,-56.63732 -1.76126,-58.79773 -0.75913,-0.4919 -3.18717,-0.90195 -5.39557,-0.91133 -2.85236,-0.0127 -4.33941,-0.63528 -5.13426,-2.15176 -2.17035,-4.14111 -0.58559,-40.79383 1.87229,-43.30376 0.95127,-0.97132 4.71677,-1.32902 12.42771,-1.18062 6.08467,0.11708 12.60394,-0.29789 14.48738,-0.92225 6.33094,-2.09869 8.4067,-7.96002 13.26182,-37.44752 5.58236,-33.90527 6.99487,-51.67647 9.82561,-123.6203 2.08665,-53.03426 5.84281,-81.31619 17.66427,-133.00231 2.08267,-9.10596 5.3251,-24.25488 7.20542,-33.66447 1.88033,-9.4094 4.26911,-21.3086 5.30842,-26.44252 1.0393,-5.13392 2.16853,-8.6107 2.5094,-7.72632 0.34088,0.88456 0.74729,-0.62691 0.90312,-3.35879 0.42881,-7.51656 0.10281,-10.2194 -1.34265,-11.13154 -1.32872,-0.83859 -2.51148,-28.01144 -2.10213,-48.29428 -0.67171,-4.87664 -2.77003,-11.84103 -5.64643,-18.82755 -4.61586,-11.211295 -11.23561,-22.479495 -17.17976,-25.268825 -10.3396,-3.83439 -18.54187,-6.37991 -26.57025,-6.74717 -7.64211,-0.3496 -15.12676,1.27449 -24.14714,5.6392 -12.88497,8.62927 -19.84698,23.695535 -24.00195,37.630425 -3.53332,12.00536 -5.59489,24.46911 -8.21775,35.59064 -4.97697,21.09647 -10.03029,42.22336 -15.11439,63.5215 z"
   id="path134"
   inkscape:connector-curvature="0"
   sodipodi:nodetypes="ccccsccscccccscscccccssccsccccsccccccccscscscccsccscccssccccsccsccsccsccccccccccscsccccc" />
	 
</svg>