<?xml version="1.0" encoding="UTF-8" standalone="no"?>
<svg
   xmlns:dc="http://purl.org/dc/elements/1.1/"
   xmlns:cc="http://creativecommons.org/ns#"
   xmlns:rdf="http://www.w3.org/1999/02/22-rdf-syntax-ns#"
   xmlns:svg="http://www.w3.org/2000/svg"
   xmlns="http://www.w3.org/2000/svg"
   xmlns:sodipodi="http://sodipodi.sourceforge.net/DTD/sodipodi-0.dtd"
   xmlns:inkscape="http://www.inkscape.org/namespaces/inkscape"
   version="1.1"
   id="Layer_1"
   x="0px"
   y="0px"
   width="1066.6666"
   height="1066.6666"
   viewBox="0 0 1000 1000"
   enable-background="new 0 0 512 512"
   xml:space="preserve"
   inkscape:version="0.92.1 r15371"
   sodipodi:docname="dalhebrew-x5d3.svg"><title
   id="title3743">Sinai 357</title><metadata
   id="metadata72"><rdf:RDF><cc:Work
       rdf:about=""><dc:format>image/svg+xml</dc:format><dc:type
         rdf:resource="http://purl.org/dc/dcmitype/StillImage" /><dc:title>Sinai 357</dc:title><dc:date>2017</dc:date><dc:creator><cc:Agent><dc:title>Celeste Claire Horner</dc:title></cc:Agent></dc:creator><dc:publisher><cc:Agent><dc:title>beitdina.net</dc:title></cc:Agent></dc:publisher></cc:Work></rdf:RDF></metadata><defs
   id="defs70" /><sodipodi:namedview
   pagecolor="#ffffff"
   bordercolor="#666666"
   borderopacity="1"
   objecttolerance="10"
   gridtolerance="10"
   guidetolerance="10"
   inkscape:pageopacity="0"
   inkscape:pageshadow="2"
   inkscape:window-width="701"
   inkscape:window-height="643"
   id="namedview68"
   showgrid="false"
   inkscape:zoom="0.11313708"
   inkscape:cx="-1344.9924"
   inkscape:cy="472.99269"
   inkscape:window-x="330"
   inkscape:window-y="28"
   inkscape:window-maximized="0"
   inkscape:current-layer="Layer_1" />
   
	<g
   id="Grid"
   transform="matrix(1.949083,0,0,1.9463791,4.8939593,2.3372611)">
		<rect
   x="0"
   stroke-miterlimit="10"
   width="512"
   height="512"
   id="rect4"
   y="0"
   style="fill:none;stroke:#a9ccdb;stroke-miterlimit:10" />
		<line
   stroke-miterlimit="10"
   x1="0"
   y1="32"
   x2="512"
   y2="32"
   id="line6"
   style="fill:none;stroke:#a9ccdb;stroke-miterlimit:10" />
		<line
   stroke-miterlimit="10"
   x1="0"
   y1="64"
   x2="512"
   y2="64"
   id="line8"
   style="fill:none;stroke:#a9ccdb;stroke-miterlimit:10" />
		<line
   stroke-miterlimit="10"
   x1="0"
   y1="96"
   x2="512"
   y2="96"
   id="line10"
   style="fill:none;stroke:#a9ccdb;stroke-miterlimit:10" />
		<line
   stroke-miterlimit="10"
   x1="0"
   y1="128"
   x2="512"
   y2="128"
   id="line12"
   style="fill:none;stroke:#a9ccdb;stroke-miterlimit:10" />
		<line
   stroke-miterlimit="10"
   x1="0"
   y1="160"
   x2="512"
   y2="160"
   id="line14"
   style="fill:none;stroke:#a9ccdb;stroke-miterlimit:10" />
		<line
   stroke-miterlimit="10"
   x1="0"
   y1="192"
   x2="512"
   y2="192"
   id="line16"
   style="fill:none;stroke:#a9ccdb;stroke-miterlimit:10" />
		<line
   stroke-miterlimit="10"
   x1="0"
   y1="224"
   x2="512"
   y2="224"
   id="line18"
   style="fill:none;stroke:#a9ccdb;stroke-miterlimit:10" />
		<line
   stroke-miterlimit="10"
   x1="0"
   y1="256"
   x2="512"
   y2="256"
   id="line20"
   style="fill:none;stroke:#a9ccdb;stroke-miterlimit:10" />
		<line
   stroke-miterlimit="10"
   x1="0"
   y1="288"
   x2="512"
   y2="288"
   id="line22"
   style="fill:none;stroke:#a9ccdb;stroke-miterlimit:10" />
		<line
   stroke-miterlimit="10"
   x1="0"
   y1="320"
   x2="512"
   y2="320"
   id="line24"
   style="fill:none;stroke:#a9ccdb;stroke-miterlimit:10" />
		<line
   stroke-miterlimit="10"
   x1="0"
   y1="352"
   x2="512"
   y2="352"
   id="line26"
   style="fill:none;stroke:#a9ccdb;stroke-miterlimit:10" />
		<line
   stroke-miterlimit="10"
   x1="0"
   y1="384"
   x2="512"
   y2="384"
   id="line28"
   style="fill:none;stroke:#a9ccdb;stroke-miterlimit:10" />
		<line
   stroke-miterlimit="10"
   x1="0"
   y1="416"
   x2="512"
   y2="416"
   id="line30"
   style="fill:none;stroke:#a9ccdb;stroke-miterlimit:10" />
		<line
   stroke-miterlimit="10"
   x1="0"
   y1="448"
   x2="512"
   y2="448"
   id="line32"
   style="fill:none;stroke:#ff0000;stroke-miterlimit:10" />
		<line
   stroke-miterlimit="10"
   x1="0"
   y1="480"
   x2="512"
   y2="480"
   id="line34"
   style="fill:none;stroke:#a9ccdb;stroke-miterlimit:10" />
		<line
   stroke-miterlimit="10"
   x1="32"
   y1="0"
   x2="32"
   y2="512"
   id="line36"
   style="fill:none;stroke:#a9ccdb;stroke-miterlimit:10" />
		<line
   stroke-miterlimit="10"
   x1="64"
   y1="0"
   x2="64"
   y2="512"
   id="line38"
   style="fill:none;stroke:#a9ccdb;stroke-miterlimit:10" />
		<line
   stroke-miterlimit="10"
   x1="96"
   y1="0"
   x2="96"
   y2="512"
   id="line40"
   style="fill:none;stroke:#a9ccdb;stroke-miterlimit:10" />
		<line
   stroke-miterlimit="10"
   x1="128"
   y1="0"
   x2="128"
   y2="512"
   id="line42"
   style="fill:none;stroke:#a9ccdb;stroke-miterlimit:10" />
		<line
   stroke-miterlimit="10"
   x1="160"
   y1="0"
   x2="160"
   y2="512"
   id="line44"
   style="fill:none;stroke:#a9ccdb;stroke-miterlimit:10" />
		<line
   stroke-miterlimit="10"
   x1="192"
   y1="0"
   x2="192"
   y2="512"
   id="line46"
   style="fill:none;stroke:#a9ccdb;stroke-miterlimit:10" />
		<line
   stroke-miterlimit="10"
   x1="224"
   y1="0"
   x2="224"
   y2="512"
   id="line48"
   style="fill:none;stroke:#a9ccdb;stroke-miterlimit:10" />
		<line
   stroke-miterlimit="10"
   x1="256"
   y1="0"
   x2="256"
   y2="512"
   id="line50"
   style="fill:none;stroke:#a9ccdb;stroke-miterlimit:10" />
		<line
   stroke-miterlimit="10"
   x1="288"
   y1="0"
   x2="288"
   y2="512"
   id="line52"
   style="fill:none;stroke:#a9ccdb;stroke-miterlimit:10" />
		<line
   stroke-miterlimit="10"
   x1="320"
   y1="0"
   x2="320"
   y2="512"
   id="line54"
   style="fill:none;stroke:#a9ccdb;stroke-miterlimit:10" />
		<line
   stroke-miterlimit="10"
   x1="352"
   y1="0"
   x2="352"
   y2="512"
   id="line56"
   style="fill:none;stroke:#a9ccdb;stroke-miterlimit:10" />
		<line
   stroke-miterlimit="10"
   x1="384"
   y1="0"
   x2="384"
   y2="512"
   id="line58"
   style="fill:none;stroke:#a9ccdb;stroke-miterlimit:10" />
		<line
   stroke-miterlimit="10"
   x1="416"
   y1="0"
   x2="416"
   y2="512"
   id="line60"
   style="fill:none;stroke:#a9ccdb;stroke-miterlimit:10" />
		<line
   stroke-miterlimit="10"
   x1="448"
   y1="0"
   x2="448"
   y2="512"
   id="line62"
   style="fill:none;stroke:#a9ccdb;stroke-miterlimit:10" />
		<line
   stroke-miterlimit="10"
   x1="480"
   y1="0"
   x2="480"
   y2="512"
   id="line64"
   style="fill:none;stroke:#a9ccdb;stroke-miterlimit:10" />
	</g>

	 
<g
   id="g114"
   transform="matrix(0.81948273,0,0,0.80755306,2959.6369,-509.66968)"><path
     style="fill:#592208;stroke-width:1.24999988"
     d="m -2799.9717,1537.7808 c -15.6428,-70.6419 -22.3242,-96.518 -36.9564,-143.1249 -4.101,-13.0625 -9.3571,-33.3125 -11.6804,-45 -6.0444,-30.4071 -10.981,-50.3192 -16.7345,-67.5 -2.7627,-8.25 -9.7996,-30.75 -15.6376,-50 -18.2124,-60.0535 -25.8705,-81.1692 -32.9566,-90.8708 -2.6632,-3.6461 -9.7417,-13.773 -15.7302,-22.5042 -14.2267,-20.7426 -26.8004,-35.8958 -34.4368,-41.5014 -18.4281,-13.5274 -39.552,-16.0577 -67.69,-8.1081 -9.1439,2.5834 -10.7153,2.6237 -70.1393,1.7992 l -60.7858,-0.8433 -11.5088,4.4447 c -6.3298,2.4446 -16.1012,6.9305 -21.7142,9.9686 -13.4607,7.286 -49.7806,22.5572 -63.2521,26.5951 -10.4154,3.122 -11.9,3.224 -55.1972,3.7947 -43.8868,0.5785 -44.5821,0.5485 -50.9663,-2.1979 -11.1424,-4.7933 -14.427,-10.7456 -15.9521,-28.9086 -1.3214,-15.7378 6.3512,-43.792 16.1035,-58.8806 11.3903,-17.6231 21.8824,-27.3398 62.1838,-57.58828 33.1068,-24.84855 46.2517,-36.20561 46.2453,-39.95554 -0.01,-3.71237 -3.2104,-8.52555 -12.9409,-19.43984 -11.9016,-13.34953 -13.0739,-18.67302 -6.2944,-28.58389 2.8973,-4.23547 3.1209,-5.36136 2.1789,-10.9699 -0.5773,-3.4375 -1.0529,-21.71875 -1.0568,-40.62499 l -0.01,-34.375 3.4625,-8.125 c 4.8521,-11.38595 12.081,-30.20832 19.2031,-50 6.5317,-18.1514 7.3624,-19.32346 21.2615,-29.99999 l 7.3229,-5.625 11.9248,0.34263 c 11.8076,0.33926 11.96,0.30578 15.5187,-3.40861 1.9766,-2.06318 5.5253,-4.38865 7.8858,-5.16771 5.3278,-1.75832 24.042,-0.39765 28.8207,2.09548 2.144,1.11861 7.4,1.7489 14.6,1.75083 9.0465,0.002 12.0516,-0.48572 15.3427,-2.49229 3.5494,-2.16406 6.3032,-2.49533 20.7438,-2.49533 18.8964,0 19.4579,0.25304 22.0359,9.93064 2.7703,10.39968 0.1852,21.45632 -13.1677,56.31935 -4.3448,11.34375 -8.8149,24.5625 -9.9336,29.375 -1.1186,4.8125 -3.3892,14.09375 -5.0457,20.625 -1.6566,6.53125 -3.6296,16.09375 -4.3845,21.25 -0.7549,5.15625 -3.3971,14.43749 -5.8714,20.62499 -3.836,9.59233 -4.5838,13.10361 -5.0752,23.82974 -1.0573,23.0783 3.9937,35.57988 23.1344,57.25957 2.9569,3.34912 10.1145,12.34912 15.9057,20 5.7912,7.65087 13.6209,16.94713 17.3993,20.65834 5.6949,5.59355 7.9001,6.91208 12.8931,7.7089 8.2608,1.31833 11.1261,0.38478 14.055,-4.57925 3.2717,-5.54513 5.749,-5.5084 23.449,0.34775 17.1082,5.6603 18.5126,5.30644 24.2786,-6.11711 2.1814,-4.32187 5.3416,-9.66153 7.0227,-11.86591 3.9269,-5.14939 18.316,-16.78219 24.9363,-20.1596 2.8982,-1.47857 7.1491,-5.37131 9.7816,-8.95743 2.5607,-3.48834 6.8155,-7.44424 9.4552,-8.7909 3.5772,-1.82495 5.1682,-3.6435 6.2479,-7.14128 0.811,-2.62763 1.8634,-18.9952 2.3914,-37.19282 0.5186,-17.875 1.0189,-32.65318 1.1117,-32.84042 0.093,-0.18724 2.4119,-2.77391 5.1535,-5.74816 9.6349,-10.45266 10.6639,-17.52951 5.6403,-38.7903 -4.6248,-19.57304 -4.5599,-19.96295 4.8041,-28.84776 11.1831,-10.61083 19.517,-15.23052 31.9882,-17.73187 7.9516,-1.59485 12.2173,-3.28216 17.9126,-7.08529 l 7.4754,-4.99193 7.6599,3.8328 c 4.2129,2.10804 11.8786,4.75205 17.0348,5.87557 14.9773,3.26349 24.5204,6.81911 32.2078,12.00019 9.7934,6.60043 12.7161,11.36547 14.2972,23.30917 1.5399,11.63225 3.577,15.91183 12.6274,26.52786 9.5876,11.24618 14.1399,19.25228 19.7694,34.76906 2.6881,7.4091 5.723,15.43983 6.7443,17.84608 1.0213,2.40625 2.9514,11.96875 4.2892,21.25 1.4468,10.03784 3.8517,20.67342 5.9357,26.25 l 3.5035,9.375 -0.022,33.74999 c -0.031,47.68255 -2.3911,58.50336 -15.0144,68.84726 -7.2517,5.9422 -8.5564,10.3202 -7.7542,26.0189 0.4739,9.2744 2.8281,22.273 8.8532,48.8838 11.8743,52.4437 21.4489,98.734 35.809,173.1251 15.5439,80.5236 22.3381,113.8918 34.9961,171.875 7.9225,36.2913 20.349,98.3075 22.9178,114.3749 0.459,2.8707 0.5278,2.8199 0.8459,-0.625 0.236,-2.5564 0.6114,-1.5617 1.1794,3.125 0.9514,7.8506 0.2968,13.6479 -1.2572,11.1336 -1.7241,-2.7897 -3.357,6.4832 -2.1117,11.9914 0.6218,2.75 0.7296,7.8125 0.2396,11.25 -0.49,3.4375 -0.9856,15.6011 -1.1015,27.0301 -0.168,16.5856 -0.6097,21.3893 -2.1884,23.7986 -12.1548,9.4073 -10.6205,25.0872 -27.5802,32.5756 -12.2004,5.3869 -43.1195,6.5348 -52.7027,-1.9412 -17.5882,-16.2692 -23.997,-33.0814 -30.4075,-53.3062 -9.228,-29.1307 -18.9223,-61.7754 -23.5218,-82.5319 z"
     id="path116"
     inkscape:connector-curvature="0"
     sodipodi:nodetypes="cccccccsccccccscccscsccccccccscccccsccccscscscccccccccccccsssccccccscscscccccsccccccsccsccc" /></g><g
   id="g132"
   transform="matrix(1.0092379,0,0,0.77885643,2406.2814,-714.99757)"><path
     style="fill:#592208;stroke-width:1.25000012"
     d="m -1754.4573,1766.589 c -12.2861,-50.4118 -18.6789,-73.1239 -30.049,-106.7577 -4.9951,-14.7761 -10.5148,-34.1364 -12.6279,-44.2922 -2.0646,-9.9231 -5.1181,-23.4231 -6.7855,-30 -12.0129,-33.1928 -21.7518,-73.5529 -38.8553,-105.7075 -12.3771,-23.2689 -28.6107,-42.2406 -52.3538,-51.0897 -21.7106,-7.9002 -45.651,-11.2567 -60.9285,-11.9544 -45.8378,0.2915 -91.3154,1.7392 -136.1155,2.9926 -43.1812,1.2081 -85.733,2.2356 -127.371,1.8732 -17.5346,-0.2554 -37.0249,2.8453 -50.3997,-3.1877 -4.9737,-2.572 -9.7904,-8.7588 -10.7336,-13.7869 -0.4465,-2.3799 -1.2364,-4.0648 -1.7553,-3.7441 -1.4688,0.9077 -2.4649,-14.3287 -1.3471,-20.605 0.551,-3.0938 1.0896,-4.7813 1.197,-3.75 0.1074,1.0312 2.9861,-6.2071 6.397,-16.0853 7.6597,-21.1686 19.8499,-38.7704 33.5815,-54.7203 17.4608,-20.2817 37.4138,-37.8923 53.713,-56.769 16.0905,-18.6473 34.9704,-40.383 45.9545,-63.8048 6.5251,-13.9869 12.2952,-20.3418 25.7015,-28.3063 14.7924,-8.7881 14.133,-6.6517 13.5436,-43.8759 -0.2781,-17.5652 -0.076,-35.121 0.4496,-39.0129 0.5254,-3.8919 3.5957,-13.4544 6.8229,-21.25 3.2272,-7.7956 7.7401,-19.5175 10.0287,-26.0488 8.683,-24.7796 10.8773,-29.05436 17.0032,-33.12497 3.1039,-2.0625 7.5031,-5.32434 9.7761,-7.24853 3.9326,-3.32924 4.6586,-3.48046 15.0038,-3.125 10.6751,0.36679 10.9534,0.30136 15.4298,-3.62731 2.5073,-2.20047 6.5494,-4.37431 8.9825,-4.83076 5.7039,-1.07007 19.659,0.42864 25.0794,2.6934 6.5148,2.72205 21.5256,2.30233 26.5179,-0.74147 3.5356,-2.15568 6.303,-2.49533 20.3309,-2.49533 h 16.2381 l 2.477,4.0625 c 3.0786,5.04934 3.3232,16.7218 0.5728,27.33597 -1.0524,4.0614 -5.5172,16.5176 -9.9217,27.6804 -4.4046,11.1629 -8.9276,24.2336 -10.0511,29.0461 -1.1236,4.8125 -3.1513,13.0953 -4.5062,18.4063 -1.3548,5.3109 -3.253,14.1477 -4.2182,19.6373 -0.9651,5.4895 -3.4726,13.8948 -5.5721,18.6782 -3.0755,7.0074 -3.8172,10.4134 -3.8172,17.5294 0,12.3484 -10.5633,50.1629 -18.2678,65.3948 -1.6402,3.2428 -2.9822,6.9594 -2.9822,8.2591 0,2.6897 28.6466,32.4971 37.9082,39.4444 5.0299,3.7729 7.0581,4.5256 12.1958,4.5256 3.3893,0 11.8811,0.8589 18.8705,1.9087 13.2644,1.9923 13.9424,1.8539 16.4879,-3.366 0.7918,-1.6235 5.1669,-4.8583 9.8637,-7.2927 4.6425,-2.4063 8.7104,-5.2188 9.0399,-6.25 0.3295,-1.0313 -0.5138,-5.5313 -1.8739,-10 -5.0693,-16.6551 -2.3584,-29.7342 7.5828,-36.5846 2.7613,-1.9028 5.3699,-4.3701 5.7969,-5.4829 0.427,-1.1128 0.102,-7.1497 -0.7222,-13.4154 -0.917,-6.9708 -1.6007,-31.9442 -1.7616,-64.3463 -0.2568,-51.6949 -0.2036,-52.9955 2.237,-54.6908 25.3523,-17.6106 30.9443,-19.8551 49.4692,-19.8551 13.0221,0 13.3763,0.078 23.75,5.2495 14.3193,7.1379 20.6075,13.0559 41.4451,39.0052 15.293,19.0444 19.6288,25.4961 29.993,44.6291 6.6635,12.3014 13.7747,26.3972 15.8025,31.3239 2.0278,4.9268 5.1153,11.3955 6.8611,14.375 4.6041,7.8579 7.0541,18.7593 7.0541,31.3872 0,12.1444 1.0947,15.4328 5.7234,17.1926 4.1719,1.5861 5.8348,6.5864 5.2669,15.8369 -0.3834,6.2447 -1.2386,8.8115 -4.4047,13.2203 -5.3567,7.459 -5.8943,10.5798 -3.5776,20.7658 3.3324,14.6516 1.8186,64.1417 -2.0368,66.5884 -0.8779,0.5571 -3.6858,1.0215 -6.2397,1.0321 -3.2986,0.014 -5.0183,0.7194 -5.9375,2.4369 -2.5099,4.6898 -0.6772,46.199 2.1652,49.0414 1.1001,1.1001 5.4547,1.5052 14.372,1.3371 7.0366,-0.1326 14.5758,0.3374 16.7539,1.0444 7.3214,2.3768 9.7219,9.0148 15.3366,42.4093 6.4557,38.3977 8.0892,58.5236 11.3628,140 2.4131,60.0612 6.7569,92.0905 20.4278,150.625 2.4085,10.3125 6.1582,27.4687 8.3327,38.125 2.1745,10.6562 4.937,24.132 6.1389,29.9462 1.2019,5.8141 2.5078,9.7516 2.902,8.75 0.3942,-1.0017 0.8642,0.71 1.0444,3.8038 0.4959,8.5125 0.1189,11.5735 -1.5527,12.6065 -1.5366,0.9497 -2.9044,31.7229 -2.431,54.6933 -0.7768,5.5227 -3.2034,13.4099 -6.5298,21.3221 -5.338,12.6968 -12.9934,25.4581 -19.8675,28.617 -11.9572,4.3424 -21.4427,7.2252 -30.7271,7.6411 -8.8377,0.396 -17.4933,-1.4433 -27.9249,-6.3864 -14.9008,-9.7726 -22.952,-26.8351 -27.757,-42.6164 -4.0861,-13.596 -6.4702,-27.7112 -9.5034,-40.3064 -5.7556,-23.8917 -11.5995,-47.8179 -17.479,-71.938 z"
     id="path134"
     inkscape:connector-curvature="0"
     sodipodi:nodetypes="ccccsccscccccscscccccssccsccccsccccccccscscscccsccscccssccccsccsccsccsccccccccccscsccccc" /></g></svg>