<?xml version="1.0" encoding="UTF-8" standalone="no"?>
<svg
   xmlns:dc="http://purl.org/dc/elements/1.1/"
   xmlns:cc="http://creativecommons.org/ns#"
   xmlns:rdf="http://www.w3.org/1999/02/22-rdf-syntax-ns#"
   xmlns:svg="http://www.w3.org/2000/svg"
   xmlns="http://www.w3.org/2000/svg"
   xmlns:sodipodi="http://sodipodi.sourceforge.net/DTD/sodipodi-0.dtd"
   xmlns:inkscape="http://www.inkscape.org/namespaces/inkscape"
   version="1.1"
   id="Layer_1"
   x="0px"
   y="0px"
   width="1092.2667"
   height="1198.9333"
   viewBox="0 0 1024 1124"
   enable-background="new 0 0 512 512"
   xml:space="preserve"
   inkscape:version="0.92.1 r15371"
   sodipodi:docname="finalnunhebrew-x5df.svg"><title
   id="title3743">Sinai 357</title><metadata
   id="metadata72"><rdf:RDF><cc:Work
       rdf:about=""><dc:format>image/svg+xml</dc:format><dc:type
         rdf:resource="http://purl.org/dc/dcmitype/StillImage" /><dc:title>Sinai 357</dc:title><dc:date>2017</dc:date><dc:creator><cc:Agent><dc:title>Celeste Claire Horner</dc:title></cc:Agent></dc:creator><dc:publisher><cc:Agent><dc:title>beitdina.net</dc:title></cc:Agent></dc:publisher></cc:Work></rdf:RDF></metadata><defs
   id="defs70"><linearGradient
     id="linearGradient4587"><stop
       id="stop4589"
       offset="0"
       style="stop-color:#ee9751;stop-opacity:1;" /><stop
       id="stop4591"
       offset="1"
       style="stop-color:#ee9751;stop-opacity:0;" /></linearGradient><linearGradient
     id="linearGradient4617"><stop
       id="stop4619"
       offset="0"
       style="stop-color:#030303;stop-opacity:1;" /><stop
       id="stop4621"
       offset="1"
       style="stop-color:#030303;stop-opacity:0;" /></linearGradient></defs><sodipodi:namedview
   pagecolor="#ffffff"
   bordercolor="#666666"
   borderopacity="1"
   objecttolerance="10"
   gridtolerance="10"
   guidetolerance="10"
   inkscape:pageopacity="0"
   inkscape:pageshadow="2"
   inkscape:window-width="1152"
   inkscape:window-height="814"
   id="namedview68"
   showgrid="false"
   inkscape:zoom="0.43297288"
   inkscape:cx="1112.6905"
   inkscape:cy="829.49096"
   inkscape:window-x="-8"
   inkscape:window-y="-8"
   inkscape:window-maximized="1"
   inkscape:current-layer="Layer_1" />
   
	<g
   id="Grid"
   transform="matrix(2.0004581,0,0,2.1916553,0.50019527,7.8100839)">
		<rect
   x="0"
   stroke-miterlimit="10"
   width="512"
   height="512"
   id="rect4"
   y="0"
   style="fill:none;stroke:#a9ccdb;stroke-miterlimit:10" />
		<line
   stroke-miterlimit="10"
   x1="0"
   y1="32"
   x2="512"
   y2="32"
   id="line6"
   style="fill:none;stroke:#a9ccdb;stroke-miterlimit:10" />
		<line
   stroke-miterlimit="10"
   x1="0"
   y1="64"
   x2="512"
   y2="64"
   id="line8"
   style="fill:none;stroke:#a9ccdb;stroke-miterlimit:10" />
		<line
   stroke-miterlimit="10"
   x1="0"
   y1="96"
   x2="512"
   y2="96"
   id="line10"
   style="fill:none;stroke:#a9ccdb;stroke-miterlimit:10" />
		<line
   stroke-miterlimit="10"
   x1="0"
   y1="128"
   x2="512"
   y2="128"
   id="line12"
   style="fill:none;stroke:#a9ccdb;stroke-miterlimit:10" />
		<line
   stroke-miterlimit="10"
   x1="0"
   y1="160"
   x2="512"
   y2="160"
   id="line14"
   style="fill:none;stroke:#a9ccdb;stroke-miterlimit:10" />
		<line
   stroke-miterlimit="10"
   x1="0"
   y1="192"
   x2="512"
   y2="192"
   id="line16"
   style="fill:none;stroke:#a9ccdb;stroke-miterlimit:10" />
		<line
   stroke-miterlimit="10"
   x1="0"
   y1="224"
   x2="512"
   y2="224"
   id="line18"
   style="fill:none;stroke:#a9ccdb;stroke-miterlimit:10" />
		<line
   stroke-miterlimit="10"
   x1="0"
   y1="256"
   x2="512"
   y2="256"
   id="line20"
   style="fill:none;stroke:#a9ccdb;stroke-miterlimit:10" />
		<line
   stroke-miterlimit="10"
   x1="0"
   y1="288"
   x2="512"
   y2="288"
   id="line22"
   style="fill:none;stroke:#a9ccdb;stroke-miterlimit:10" />
		<line
   stroke-miterlimit="10"
   x1="0"
   y1="320"
   x2="512"
   y2="320"
   id="line24"
   style="fill:none;stroke:#a9ccdb;stroke-miterlimit:10" />
		<line
   stroke-miterlimit="10"
   x1="0"
   y1="352"
   x2="512"
   y2="352"
   id="line26"
   style="fill:none;stroke:#a9ccdb;stroke-miterlimit:10" />
		<line
   stroke-miterlimit="10"
   x1="0"
   y1="384"
   x2="512"
   y2="384"
   id="line28"
   style="fill:none;stroke:#a9ccdb;stroke-miterlimit:10" />
		<line
   stroke-miterlimit="10"
   x1="0"
   y1="416"
   x2="512"
   y2="416"
   id="line30"
   style="fill:none;stroke:#a9ccdb;stroke-miterlimit:10" />
		<line
   stroke-miterlimit="10"
   x1="0"
   y1="448"
   x2="512"
   y2="448"
   id="line32"
   style="fill:none;stroke:#ff0000;stroke-miterlimit:10" />
		<line
   stroke-miterlimit="10"
   x1="0"
   y1="480"
   x2="512"
   y2="480"
   id="line34"
   style="fill:none;stroke:#a9ccdb;stroke-miterlimit:10" />
		<line
   stroke-miterlimit="10"
   x1="32"
   y1="0"
   x2="32"
   y2="512"
   id="line36"
   style="fill:none;stroke:#a9ccdb;stroke-miterlimit:10" />
		<line
   stroke-miterlimit="10"
   x1="64"
   y1="0"
   x2="64"
   y2="512"
   id="line38"
   style="fill:none;stroke:#a9ccdb;stroke-miterlimit:10" />
		<line
   stroke-miterlimit="10"
   x1="96"
   y1="0"
   x2="96"
   y2="512"
   id="line40"
   style="fill:none;stroke:#a9ccdb;stroke-miterlimit:10" />
		<line
   stroke-miterlimit="10"
   x1="128"
   y1="0"
   x2="128"
   y2="512"
   id="line42"
   style="fill:none;stroke:#a9ccdb;stroke-miterlimit:10" />
		<line
   stroke-miterlimit="10"
   x1="160"
   y1="0"
   x2="160"
   y2="512"
   id="line44"
   style="fill:none;stroke:#a9ccdb;stroke-miterlimit:10" />
		<line
   stroke-miterlimit="10"
   x1="192"
   y1="0"
   x2="192"
   y2="512"
   id="line46"
   style="fill:none;stroke:#a9ccdb;stroke-miterlimit:10" />
		<line
   stroke-miterlimit="10"
   x1="224"
   y1="0"
   x2="224"
   y2="512"
   id="line48"
   style="fill:none;stroke:#a9ccdb;stroke-miterlimit:10" />
		<line
   stroke-miterlimit="10"
   x1="256"
   y1="0"
   x2="256"
   y2="512"
   id="line50"
   style="fill:none;stroke:#a9ccdb;stroke-miterlimit:10" />
		<line
   stroke-miterlimit="10"
   x1="288"
   y1="0"
   x2="288"
   y2="512"
   id="line52"
   style="fill:none;stroke:#a9ccdb;stroke-miterlimit:10" />
		<line
   stroke-miterlimit="10"
   x1="320"
   y1="0"
   x2="320"
   y2="512"
   id="line54"
   style="fill:none;stroke:#a9ccdb;stroke-miterlimit:10" />
		<line
   stroke-miterlimit="10"
   x1="352"
   y1="0"
   x2="352"
   y2="512"
   id="line56"
   style="fill:none;stroke:#a9ccdb;stroke-miterlimit:10" />
		<line
   stroke-miterlimit="10"
   x1="384"
   y1="0"
   x2="384"
   y2="512"
   id="line58"
   style="fill:none;stroke:#a9ccdb;stroke-miterlimit:10" />
		<line
   stroke-miterlimit="10"
   x1="416"
   y1="0"
   x2="416"
   y2="512"
   id="line60"
   style="fill:none;stroke:#a9ccdb;stroke-miterlimit:10" />
		<line
   stroke-miterlimit="10"
   x1="448"
   y1="0"
   x2="448"
   y2="512"
   id="line62"
   style="fill:none;stroke:#a9ccdb;stroke-miterlimit:10" />
		<line
   stroke-miterlimit="10"
   x1="480"
   y1="0"
   x2="480"
   y2="512"
   id="line64"
   style="fill:none;stroke:#a9ccdb;stroke-miterlimit:10" />
	</g>
	
<path
   style="fill:#62574d;stroke-width:0.90522319"
   d="m 363.11521,144.05144 c -0.23805,13.67095 12.51268,24.63715 23.75646,36.13591 14.25939,11.49846 26.3598,25.4427 36.45697,40.85637 12.08767,18.45133 21.30525,39.00836 27.92136,59.99602 -0.37622,13.59842 -4.74162,25.38867 -4.10385,38.03444 0.52838,9.79539 3.58588,17.12353 6.26374,27.75763 2.6021,10.43692 1.5846,14.65486 -2.63636,25.54803 -8.57819,22.13865 -9.24591,25.82619 -11.82084,65.28268 -1.31239,20.11251 -4.3488,37.49941 -7.05007,40.37264 -9.49706,10.10193 -35.22787,55.91611 -40.09925,71.3967 -4.27744,12.41822 -12.36805,18.70972 -20.6153,25.33497 -4.42368,3.55386 -8.89264,7.20376 -12.84174,11.9468 -18.52069,17.56927 -36.1349,37.7712 -52.95729,57.55911 -16.32173,21.83931 -37.4395,38.17527 -51.97389,59.17634 -7.85058,11.30797 -20.10951,10.81314 -33.48081,12.04295 -15.44706,1.81082 -25.30509,4.59539 -34.3897,9.24164 -8.40855,4.30053 -16.15513,10.19594 -27.05783,18.39041 -18.48617,14.27499 -24.62698,17.29688 -18.03311,66.30318 4.21333,15.71532 -3.52939,32.09884 -0.24953,47.61936 5.34559,25.28849 21.51139,48.28598 29.1796,62.36943 12.3676,18.19092 31.06951,27.48341 41.8395,46.22763 14.24864,32.92918 37.74902,-2.4132 38.16173,-17.6025 0.0691,-3.33016 2.7339,-10.47105 5.91925,-15.86872 2.57036,-8.80315 5.86402,-17.03443 9.62572,-24.86708 10.51652,-21.89808 24.68876,-40.68082 36.92044,-60.13418 11.01836,-24.08829 25.21938,-44.66939 40.95516,-63.52402 22.05089,-26.42111 47.11516,-49.45192 70.65857,-73.99223 6.45409,-6.92666 11.25947,-15.66024 17.60874,-25.7781 30.96397,-42.85283 48.37653,-63.52742 69.95742,-102.63505 11.32437,-20.71827 18.08645,-45.0512 27.60387,-62.86061 9.28473,-21.24129 14.87564,-45.00705 19.53746,-65.90949 0.65767,-26.73728 0.54255,-57.60852 -0.9411,-81.77418 -2.18481,-19.99068 -7.04469,-38.03881 -13.36868,-55.13426 -8.51713,-23.02565 -19.68981,-44.32338 -30.55656,-66.31206 -7.87281,-15.84176 -16.37847,-30.5267 -29.45764,-41.6294 -21.29637,-21.49196 -40.2843,-48.62339 -55.19232,-70.54121 -5.03454,-7.54766 -14.66332,-9.73804 -25.66823,-14.12868 -16.12743,-6.47421 -28.11262,6.79749 -29.87269,21.09953 z"
   id="path3771"
   inkscape:connector-curvature="0"
   sodipodi:nodetypes="ccscccssscsccccsccsccccscsccccccscccccc" />
</svg>