<?xml version="1.0" encoding="UTF-8" standalone="no"?>
<svg
   xmlns:dc="http://purl.org/dc/elements/1.1/"
   xmlns:cc="http://creativecommons.org/ns#"
   xmlns:rdf="http://www.w3.org/1999/02/22-rdf-syntax-ns#"
   xmlns:svg="http://www.w3.org/2000/svg"
   xmlns="http://www.w3.org/2000/svg"
   xmlns:sodipodi="http://sodipodi.sourceforge.net/DTD/sodipodi-0.dtd"
   xmlns:inkscape="http://www.inkscape.org/namespaces/inkscape"
   version="1.1"
   id="Layer_1"
   x="0px"
   y="0px"
   width="1066.6666"
   height="1092.2667"
   viewBox="0 0 1000 1024"
   enable-background="new 0 0 512 512"
   xml:space="preserve"
   inkscape:version="0.92.1 r15371"
   sodipodi:docname="hehebrew-x5d4.svg"
   inkscape:export-filename="C:\Fonts\Astronomical-Book-of-Enoch-4Q208-Font\trunk\hehebrew-x5d4.png"
   inkscape:export-xdpi="96"
   inkscape:export-ydpi="96"><title
   id="title3743">Sinai 357</title><metadata
   id="metadata72"><rdf:RDF><cc:Work
       rdf:about=""><dc:format>image/svg+xml</dc:format><dc:type
         rdf:resource="http://purl.org/dc/dcmitype/StillImage" /><dc:title>Sinai 357</dc:title><dc:date>2017</dc:date><dc:creator><cc:Agent><dc:title>Celeste Claire Horner</dc:title></cc:Agent></dc:creator><dc:publisher><cc:Agent><dc:title>beitdina.net</dc:title></cc:Agent></dc:publisher></cc:Work></rdf:RDF></metadata><defs
   id="defs70" /><sodipodi:namedview
   pagecolor="#ffffff"
   bordercolor="#666666"
   borderopacity="1"
   objecttolerance="10"
   gridtolerance="10"
   guidetolerance="10"
   inkscape:pageopacity="0"
   inkscape:pageshadow="2"
   inkscape:window-width="532"
   inkscape:window-height="518"
   id="namedview68"
   showgrid="false"
   inkscape:zoom="0.21233707"
   inkscape:cx="731.57695"
   inkscape:cy="567.64312"
   inkscape:window-x="243"
   inkscape:window-y="179"
   inkscape:window-maximized="0"
   inkscape:current-layer="g51" />
   
	<g
   id="Grid"
   transform="matrix(1.940304,0,0,1.9922665,4.3973279,2.4578361)">
		<rect
   x="0"
   stroke-miterlimit="10"
   width="512"
   height="512"
   id="rect4"
   y="0"
   style="fill:none;stroke:#a9ccdb;stroke-miterlimit:10" />
		<line
   stroke-miterlimit="10"
   x1="0"
   y1="32"
   x2="512"
   y2="32"
   id="line6"
   style="fill:none;stroke:#a9ccdb;stroke-miterlimit:10" />
		<line
   stroke-miterlimit="10"
   x1="0"
   y1="64"
   x2="512"
   y2="64"
   id="line8"
   style="fill:none;stroke:#a9ccdb;stroke-miterlimit:10" />
		<line
   stroke-miterlimit="10"
   x1="0"
   y1="96"
   x2="512"
   y2="96"
   id="line10"
   style="fill:none;stroke:#a9ccdb;stroke-miterlimit:10" />
		<line
   stroke-miterlimit="10"
   x1="0"
   y1="128"
   x2="512"
   y2="128"
   id="line12"
   style="fill:none;stroke:#a9ccdb;stroke-miterlimit:10" />
		<line
   stroke-miterlimit="10"
   x1="0"
   y1="160"
   x2="512"
   y2="160"
   id="line14"
   style="fill:none;stroke:#a9ccdb;stroke-miterlimit:10" />
		<line
   stroke-miterlimit="10"
   x1="0"
   y1="192"
   x2="512"
   y2="192"
   id="line16"
   style="fill:none;stroke:#a9ccdb;stroke-miterlimit:10" />
		<line
   stroke-miterlimit="10"
   x1="0"
   y1="224"
   x2="512"
   y2="224"
   id="line18"
   style="fill:none;stroke:#a9ccdb;stroke-miterlimit:10" />
		<line
   stroke-miterlimit="10"
   x1="0"
   y1="256"
   x2="512"
   y2="256"
   id="line20"
   style="fill:none;stroke:#a9ccdb;stroke-miterlimit:10" />
		<line
   stroke-miterlimit="10"
   x1="0"
   y1="288"
   x2="512"
   y2="288"
   id="line22"
   style="fill:none;stroke:#a9ccdb;stroke-miterlimit:10" />
		<line
   stroke-miterlimit="10"
   x1="0"
   y1="320"
   x2="512"
   y2="320"
   id="line24"
   style="fill:none;stroke:#a9ccdb;stroke-miterlimit:10" />
		<line
   stroke-miterlimit="10"
   x1="0"
   y1="352"
   x2="512"
   y2="352"
   id="line26"
   style="fill:none;stroke:#a9ccdb;stroke-miterlimit:10" />
		<line
   stroke-miterlimit="10"
   x1="0"
   y1="384"
   x2="512"
   y2="384"
   id="line28"
   style="fill:none;stroke:#a9ccdb;stroke-miterlimit:10" />
		<line
   stroke-miterlimit="10"
   x1="0"
   y1="416"
   x2="512"
   y2="416"
   id="line30"
   style="fill:none;stroke:#a9ccdb;stroke-miterlimit:10" />
		<line
   stroke-miterlimit="10"
   x1="0"
   y1="448"
   x2="512"
   y2="448"
   id="line32"
   style="fill:none;stroke:#ff0000;stroke-miterlimit:10" />
		<line
   stroke-miterlimit="10"
   x1="0"
   y1="480"
   x2="512"
   y2="480"
   id="line34"
   style="fill:none;stroke:#a9ccdb;stroke-miterlimit:10" />
		<line
   stroke-miterlimit="10"
   x1="32"
   y1="0"
   x2="32"
   y2="512"
   id="line36"
   style="fill:none;stroke:#a9ccdb;stroke-miterlimit:10" />
		<line
   stroke-miterlimit="10"
   x1="64"
   y1="0"
   x2="64"
   y2="512"
   id="line38"
   style="fill:none;stroke:#a9ccdb;stroke-miterlimit:10" />
		<line
   stroke-miterlimit="10"
   x1="96"
   y1="0"
   x2="96"
   y2="512"
   id="line40"
   style="fill:none;stroke:#a9ccdb;stroke-miterlimit:10" />
		<line
   stroke-miterlimit="10"
   x1="128"
   y1="0"
   x2="128"
   y2="512"
   id="line42"
   style="fill:none;stroke:#a9ccdb;stroke-miterlimit:10" />
		<line
   stroke-miterlimit="10"
   x1="160"
   y1="0"
   x2="160"
   y2="512"
   id="line44"
   style="fill:none;stroke:#a9ccdb;stroke-miterlimit:10" />
		<line
   stroke-miterlimit="10"
   x1="192"
   y1="0"
   x2="192"
   y2="512"
   id="line46"
   style="fill:none;stroke:#a9ccdb;stroke-miterlimit:10" />
		<line
   stroke-miterlimit="10"
   x1="224"
   y1="0"
   x2="224"
   y2="512"
   id="line48"
   style="fill:none;stroke:#a9ccdb;stroke-miterlimit:10" />
		<line
   stroke-miterlimit="10"
   x1="256"
   y1="0"
   x2="256"
   y2="512"
   id="line50"
   style="fill:none;stroke:#a9ccdb;stroke-miterlimit:10" />
		<line
   stroke-miterlimit="10"
   x1="288"
   y1="0"
   x2="288"
   y2="512"
   id="line52"
   style="fill:none;stroke:#a9ccdb;stroke-miterlimit:10" />
		<line
   stroke-miterlimit="10"
   x1="320"
   y1="0"
   x2="320"
   y2="512"
   id="line54"
   style="fill:none;stroke:#a9ccdb;stroke-miterlimit:10" />
		<line
   stroke-miterlimit="10"
   x1="352"
   y1="0"
   x2="352"
   y2="512"
   id="line56"
   style="fill:none;stroke:#a9ccdb;stroke-miterlimit:10" />
		<line
   stroke-miterlimit="10"
   x1="384"
   y1="0"
   x2="384"
   y2="512"
   id="line58"
   style="fill:none;stroke:#a9ccdb;stroke-miterlimit:10" />
		<line
   stroke-miterlimit="10"
   x1="416"
   y1="0"
   x2="416"
   y2="512"
   id="line60"
   style="fill:none;stroke:#a9ccdb;stroke-miterlimit:10" />
		<line
   stroke-miterlimit="10"
   x1="448"
   y1="0"
   x2="448"
   y2="512"
   id="line62"
   style="fill:none;stroke:#a9ccdb;stroke-miterlimit:10" />
		<line
   stroke-miterlimit="10"
   x1="480"
   y1="0"
   x2="480"
   y2="512"
   id="line64"
   style="fill:none;stroke:#a9ccdb;stroke-miterlimit:10" />
	</g>

<g
   id="g51"
   transform="translate(-980.30246,12.487929)"><path
     style="fill:#6d5c4c;stroke-width:11.29444981"
     d="m 1269.3305,828.06176 c -43.6783,-40.6773 -53.5243,-94.21974 -23.0924,-125.57642 9.185,-9.46416 30.7859,-51.5411 48.002,-93.50433 98.3996,-239.84396 98.5139,-234.3401 -4.8679,-234.3401 -82.5108,0 -154.7503,-22.12951 -163.5074,-62.36468 -3.2619,-14.98686 3.618,-31.54647 -3.2437,-51.62497 -8.6627,-18.64475 -11.2846,-33.05208 -8.7889,-44.05565 3.978,-17.53923 20.9582,-26.43051 47.2017,-30.04993 33.0157,-4.03447 78.9295,-0.97118 126.2351,0.11022 79.8534,1.82543 121.0756,-7.60469 146.1452,-2.68025 22.5922,4.43777 34.814,27.07611 52.3036,40.79659 43.8499,34.3999 62.2829,37.12618 84.2619,12.46268 13.2298,-14.84563 -9.6822,-18.01468 -32.2917,-54.60037 -21.1176,-34.17163 -26.8019,-61.57095 -15.7715,-73.94852 4.0067,-4.49611 21.4723,-16.003569 38.3826,-17.279509 15.4246,-1.16384 30.3872,7.71334 34.2527,7.71334 17.1532,0 72.2574,48.751559 95.5617,90.701139 9.3298,16.79429 -23.9744,27.89141 -19.7849,43.02448 7.4837,27.03215 21.7358,68.76852 31.6714,92.7475 9.9356,23.97899 18.2959,62.14866 18.5784,84.82152 0.2825,22.67284 8.4137,58.83158 18.0692,80.35275 9.6555,21.52118 17.5555,48.80943 17.5555,60.64056 0,11.83114 7.2111,34.52991 16.0247,50.44172 8.8136,15.91181 27.2469,49.21755 40.9629,74.01275 30.7367,55.56473 31.8077,102.64535 3.0865,135.67762 l -21.8516,25.13147 -30.0881,-30.23497 c -16.5485,-16.62924 -33.3863,-44.21958 -37.4173,-61.31187 -4.0601,-17.21533 -25.2655,-43.81759 -47.5415,-59.64093 -42.9706,-30.52337 -51.1091,-59.96141 -22.6568,-81.95236 23.0677,-17.82912 21.8251,-39.23337 -5.5366,-95.37097 -19.228,-39.44977 -27.7596,-46.32304 -57.4994,-46.32304 -63.1327,0 -88.4151,16.64633 -118.2104,77.8316 -15.6449,32.12695 -38.1072,71.72749 -49.9162,88.00118 -11.8091,16.27369 -24.6072,54.24861 -28.4402,84.38871 -3.833,30.14009 -14.1402,60.34275 -22.9049,67.11702 -8.7647,6.77427 -15.9358,21.12473 -15.9358,31.8899 0,63.10369 -32.7244,69.35664 -88.9479,16.99612 z"
     id="path55"
     inkscape:connector-curvature="0"
     sodipodi:nodetypes="sccsccscssscscssssssssscccccscssccssss" /></g></svg>