<?xml version="1.0" encoding="UTF-8" standalone="no"?>
<svg
   xmlns:dc="http://purl.org/dc/elements/1.1/"
   xmlns:cc="http://creativecommons.org/ns#"
   xmlns:rdf="http://www.w3.org/1999/02/22-rdf-syntax-ns#"
   xmlns:svg="http://www.w3.org/2000/svg"
   xmlns="http://www.w3.org/2000/svg"
   xmlns:sodipodi="http://sodipodi.sourceforge.net/DTD/sodipodi-0.dtd"
   xmlns:inkscape="http://www.inkscape.org/namespaces/inkscape"
   version="1.1"
   id="Layer_1"
   x="0px"
   y="0px"
   width="1066.6666"
   height="1092.2667"
   viewBox="0 0 1000 1024"
   enable-background="new 0 0 512 512"
   xml:space="preserve"
   inkscape:version="0.92.1 r15371"
   sodipodi:docname="hethebrew-x5d7.svg"><title
   id="title3743">Sinai 357</title><metadata
   id="metadata72"><rdf:RDF><cc:Work
       rdf:about=""><dc:format>image/svg+xml</dc:format><dc:type
         rdf:resource="http://purl.org/dc/dcmitype/StillImage" /><dc:title>Sinai 357</dc:title><dc:date>2017</dc:date><dc:creator><cc:Agent><dc:title>Celeste Claire Horner</dc:title></cc:Agent></dc:creator><dc:publisher><cc:Agent><dc:title>beitdina.net</dc:title></cc:Agent></dc:publisher></cc:Work></rdf:RDF></metadata><defs
   id="defs70" /><sodipodi:namedview
   pagecolor="#ffffff"
   bordercolor="#666666"
   borderopacity="1"
   objecttolerance="10"
   gridtolerance="10"
   guidetolerance="10"
   inkscape:pageopacity="0"
   inkscape:pageshadow="2"
   inkscape:window-width="708"
   inkscape:window-height="550"
   id="namedview68"
   showgrid="false"
   inkscape:zoom="0.24562924"
   inkscape:cx="528.49977"
   inkscape:cy="472.89345"
   inkscape:window-x="265"
   inkscape:window-y="160"
   inkscape:window-maximized="0"
   inkscape:current-layer="Layer_1"
   inkscape:snap-center="true" />
   
	<g
   id="Grid"
   transform="matrix(1.951787,0,0,2.0005106,3.2501362,4.7867761)">
		<rect
   x="0"
   stroke-miterlimit="10"
   width="512"
   height="512"
   id="rect4"
   y="0"
   style="fill:none;stroke:#a9ccdb;stroke-miterlimit:10" />
		<line
   stroke-miterlimit="10"
   x1="0"
   y1="32"
   x2="512"
   y2="32"
   id="line6"
   style="fill:none;stroke:#a9ccdb;stroke-miterlimit:10" />
		<line
   stroke-miterlimit="10"
   x1="0"
   y1="64"
   x2="512"
   y2="64"
   id="line8"
   style="fill:none;stroke:#a9ccdb;stroke-miterlimit:10" />
		<line
   stroke-miterlimit="10"
   x1="0"
   y1="96"
   x2="512"
   y2="96"
   id="line10"
   style="fill:none;stroke:#a9ccdb;stroke-miterlimit:10" />
		<line
   stroke-miterlimit="10"
   x1="0"
   y1="128"
   x2="512"
   y2="128"
   id="line12"
   style="fill:none;stroke:#a9ccdb;stroke-miterlimit:10" />
		<line
   stroke-miterlimit="10"
   x1="0"
   y1="160"
   x2="512"
   y2="160"
   id="line14"
   style="fill:none;stroke:#a9ccdb;stroke-miterlimit:10" />
		<line
   stroke-miterlimit="10"
   x1="0"
   y1="192"
   x2="512"
   y2="192"
   id="line16"
   style="fill:none;stroke:#a9ccdb;stroke-miterlimit:10" />
		<line
   stroke-miterlimit="10"
   x1="0"
   y1="224"
   x2="512"
   y2="224"
   id="line18"
   style="fill:none;stroke:#a9ccdb;stroke-miterlimit:10" />
		<line
   stroke-miterlimit="10"
   x1="0"
   y1="256"
   x2="512"
   y2="256"
   id="line20"
   style="fill:none;stroke:#a9ccdb;stroke-miterlimit:10" />
		<line
   stroke-miterlimit="10"
   x1="0"
   y1="288"
   x2="512"
   y2="288"
   id="line22"
   style="fill:none;stroke:#a9ccdb;stroke-miterlimit:10" />
		<line
   stroke-miterlimit="10"
   x1="0"
   y1="320"
   x2="512"
   y2="320"
   id="line24"
   style="fill:none;stroke:#a9ccdb;stroke-miterlimit:10" />
		<line
   stroke-miterlimit="10"
   x1="0"
   y1="352"
   x2="512"
   y2="352"
   id="line26"
   style="fill:none;stroke:#a9ccdb;stroke-miterlimit:10" />
		<line
   stroke-miterlimit="10"
   x1="0"
   y1="384"
   x2="512"
   y2="384"
   id="line28"
   style="fill:none;stroke:#a9ccdb;stroke-miterlimit:10" />
		<line
   stroke-miterlimit="10"
   x1="0"
   y1="416"
   x2="512"
   y2="416"
   id="line30"
   style="fill:none;stroke:#a9ccdb;stroke-miterlimit:10" />
		<line
   stroke-miterlimit="10"
   x1="0"
   y1="448"
   x2="512"
   y2="448"
   id="line32"
   style="fill:none;stroke:#ff0000;stroke-miterlimit:10" />
		<line
   stroke-miterlimit="10"
   x1="0"
   y1="480"
   x2="512"
   y2="480"
   id="line34"
   style="fill:none;stroke:#a9ccdb;stroke-miterlimit:10" />
		<line
   stroke-miterlimit="10"
   x1="32"
   y1="0"
   x2="32"
   y2="512"
   id="line36"
   style="fill:none;stroke:#a9ccdb;stroke-miterlimit:10" />
		<line
   stroke-miterlimit="10"
   x1="64"
   y1="0"
   x2="64"
   y2="512"
   id="line38"
   style="fill:none;stroke:#a9ccdb;stroke-miterlimit:10" />
		<line
   stroke-miterlimit="10"
   x1="96"
   y1="0"
   x2="96"
   y2="512"
   id="line40"
   style="fill:none;stroke:#a9ccdb;stroke-miterlimit:10" />
		<line
   stroke-miterlimit="10"
   x1="128"
   y1="0"
   x2="128"
   y2="512"
   id="line42"
   style="fill:none;stroke:#a9ccdb;stroke-miterlimit:10" />
		<line
   stroke-miterlimit="10"
   x1="160"
   y1="0"
   x2="160"
   y2="512"
   id="line44"
   style="fill:none;stroke:#a9ccdb;stroke-miterlimit:10" />
		<line
   stroke-miterlimit="10"
   x1="192"
   y1="0"
   x2="192"
   y2="512"
   id="line46"
   style="fill:none;stroke:#a9ccdb;stroke-miterlimit:10" />
		<line
   stroke-miterlimit="10"
   x1="224"
   y1="0"
   x2="224"
   y2="512"
   id="line48"
   style="fill:none;stroke:#a9ccdb;stroke-miterlimit:10" />
		<line
   stroke-miterlimit="10"
   x1="256"
   y1="0"
   x2="256"
   y2="512"
   id="line50"
   style="fill:none;stroke:#a9ccdb;stroke-miterlimit:10" />
		<line
   stroke-miterlimit="10"
   x1="288"
   y1="0"
   x2="288"
   y2="512"
   id="line52"
   style="fill:none;stroke:#a9ccdb;stroke-miterlimit:10" />
		<line
   stroke-miterlimit="10"
   x1="320"
   y1="0"
   x2="320"
   y2="512"
   id="line54"
   style="fill:none;stroke:#a9ccdb;stroke-miterlimit:10" />
		<line
   stroke-miterlimit="10"
   x1="352"
   y1="0"
   x2="352"
   y2="512"
   id="line56"
   style="fill:none;stroke:#a9ccdb;stroke-miterlimit:10" />
		<line
   stroke-miterlimit="10"
   x1="384"
   y1="0"
   x2="384"
   y2="512"
   id="line58"
   style="fill:none;stroke:#a9ccdb;stroke-miterlimit:10" />
		<line
   stroke-miterlimit="10"
   x1="416"
   y1="0"
   x2="416"
   y2="512"
   id="line60"
   style="fill:none;stroke:#a9ccdb;stroke-miterlimit:10" />
		<line
   stroke-miterlimit="10"
   x1="448"
   y1="0"
   x2="448"
   y2="512"
   id="line62"
   style="fill:none;stroke:#a9ccdb;stroke-miterlimit:10" />
		<line
   stroke-miterlimit="10"
   x1="480"
   y1="0"
   x2="480"
   y2="512"
   id="line64"
   style="fill:none;stroke:#a9ccdb;stroke-miterlimit:10" />
	</g>
	

<path
   style="fill:#ee4437;fill-opacity:0.59565214;stroke-width:1.00403392"
   d="m 289.51365,811.60844 c -1.32483,-19.6271 1.66536,-52.6721 -0.0472,-71.1128 -1.48602,-16.2168 -2.26537,-31.9478 -0.75334,-46.3572 1.3338,-12.004 1.92524,-23.8738 1.83996,-34.1732 -2.22616,-32.1057 51.21034,-79.83619 41.48364,-110.60369 -9.58962,-19.602 -7.93733,-52.1808 -7.60364,-108.486 0.11326,-19.1102 17.74089,-66.93387 -3.15709,-93.23727 -12.52958,-15.7705 -10.15492,-18.6265 -18.49572,-32.6919 -14.98695,-33.51 6.22623,-54.89252 9.11411,-58.47764 19.0162,-24.38817 -12.88599,-61.87061 -9.85424,-83.85192 4.30587,-31.21916 -13.89415,-50.81121 3.1587,-71.90777 12.12755,-15.003406 30.90403,-27.759756 49.6043,-36.616616 11.90981,-5.64071 78.91386,-12.040519 94.59511,-12.249119 8.87144,0.60697 27.72575,21.865192 33.79774,41.220262 10.28431,32.700413 10.53092,93.350153 19.71163,103.772213 13.09461,11.5571 53.97413,9.22948 70.83705,9.12268 6.92519,-0.6446 34.05379,0.82262 40.26941,1.77212 17.81273,-1.2093 30.93176,5.9141 46.4225,-2.9994 8.96765,-17.12809 -4.92705,-50.27222 -1.76944,-63.99445 2.66295,-6.78514 5.55504,-22.57776 7.85286,-28.28717 2.50188,-7.72218 6.72252,-12.587915 11.34515,-16.937145 4.54847,-4.27945 9.48613,-8.05884 13.55858,-13.56728 3.25104,-4.4261 6.03384,-8.84331 9.36035,-11.49406 5.34587,-4.09399 20.27307,-14.67582 28.22256,-15.91588 17.87312,-2.78807 29.7188,-3.63706 39.76471,-1.6224 10.6076,2.12725 22.00539,7.44723 33.57752,17.04845 6.67578,2.71811 10.41403,7.98786 15.98022,11.09623 4.44385,1.57975 6.6283,3.76721 8.66246,6.89087 -1.29874,12.424025 -3.73921,46.221695 -3.26901,59.079175 0.60682,16.59317 1.40349,32.96431 -0.92212,47.60831 -3.23929,19.7366 -1.22676,43.5936 -1.83043,61.2995 -0.61306,33.42334 -0.34169,30.89374 5.68292,62.34704 2.56354,13.3838 25.47299,-3.90793 24.46105,37.84037 -0.99982,41.2483 -1.96617,80.4159 0.61561,86.0341 10.13774,22.0606 -15.25457,116.13519 -12.0739,134.19089 15.15012,27.9855 10.96659,63.1394 14.21234,93.4086 -0.51465,24.9878 -16.74539,120.62677 -21.18844,143.38397 -7.21215,34.8062 -55.19551,46.40919 -101.43118,52.77599 -29.70477,4.0905 -37.39382,-0.6531 -52.37974,-10.9389 -17.97273,-12.3359 -3.01108,-106.73207 -4.07058,-155.65987 -0.45675,-21.0936 18.07076,-78.7632 8.02765,-104.1443 -7.74565,-19.575 -11.54405,-17.0262 -15.76976,-25.0552 -2.39962,-13.2282 4.36509,-126.58879 2.81232,-139.21239 -1.71744,-13.9623 25.20647,-57.31403 18.99027,-70.08093 -7.61578,-5.4874 -13.61251,-10.9856 -17.44255,-14.3348 -6.45408,-5.6438 -8.25583,-15.2423 -21.10818,-19.4995 -26.50007,4.10771 -43.80843,-1.17047 -53.86954,3.9697 -4.61189,2.35619 -20.78972,2.57684 -35.55233,12.01606 -9.98502,6.38442 -20.96784,22.74442 -20.98993,24.79691 0.0647,9.04735 23.50314,48.70309 33.78629,69.16875 9.5705,19.04736 5.91995,19.03774 8.89549,25.55292 9.15119,30.6858 3.78771,52.2717 -6.67636,66.419 -13.62892,8.4534 -14.76495,15.3862 -22.37162,21.8275 -12.05038,10.2042 -10.99011,38.43869 -14.74095,56.98569 -2.62787,12.9942 -7.61496,26.6857 -6.53448,39.1827 -0.61859,17.3431 -1.15337,11.6438 -11.29465,29.3595 -10.80873,18.8817 -48.81016,35.4227 -62.98377,53.0422 -21.01972,26.1301 -13.63502,82.0811 -21.05769,100.6866 -1.30244,24.2336 -11.94026,29.30397 -19.91905,36.72487 -9.99162,23.0075 -11.21772,18.65823 -40.52767,17.34593 -7.31426,-0.3365 -15.09314,-0.8958 -22.14458,-1.3657 -23.74532,2.3572 -36.75818,-22.4466 -44.22053,-36.764 -5.80929,-10.327 -18.61972,-15.5946 -17.93866,-19.6838 z"
   id="path3762-4"
   inkscape:connector-curvature="0"
   sodipodi:nodetypes="cccccssccsssccccccccsccsscccsccssscccsssscscscsscsccsscssccccccc" /></svg>