<?xml version="1.0" encoding="UTF-8" standalone="no"?>
<svg
   xmlns:dc="http://purl.org/dc/elements/1.1/"
   xmlns:cc="http://creativecommons.org/ns#"
   xmlns:rdf="http://www.w3.org/1999/02/22-rdf-syntax-ns#"
   xmlns:svg="http://www.w3.org/2000/svg"
   xmlns="http://www.w3.org/2000/svg"
   xmlns:sodipodi="http://sodipodi.sourceforge.net/DTD/sodipodi-0.dtd"
   xmlns:inkscape="http://www.inkscape.org/namespaces/inkscape"
   version="1.1"
   id="Layer_1"
   x="0px"
   y="0px"
   width="1092.2667"
   height="1092.2667"
   viewBox="0 0 1024 1024"
   enable-background="new 0 0 512 512"
   xml:space="preserve"
   inkscape:version="0.92.1 r15371"
   sodipodi:docname="memhebrew-x5de.svg"><title
   id="title3743">Sinai 357</title><metadata
   id="metadata72"><rdf:RDF><cc:Work
       rdf:about=""><dc:format>image/svg+xml</dc:format><dc:type
         rdf:resource="http://purl.org/dc/dcmitype/StillImage" /><dc:title>Sinai 357</dc:title><dc:date>2017</dc:date><dc:creator><cc:Agent><dc:title>Celeste Claire Horner</dc:title></cc:Agent></dc:creator><dc:publisher><cc:Agent><dc:title>beitdina.net</dc:title></cc:Agent></dc:publisher></cc:Work></rdf:RDF></metadata><defs
   id="defs70" /><sodipodi:namedview
   pagecolor="#ffffff"
   bordercolor="#666666"
   borderopacity="1"
   objecttolerance="10"
   gridtolerance="10"
   guidetolerance="10"
   inkscape:pageopacity="0"
   inkscape:pageshadow="2"
   inkscape:window-width="976"
   inkscape:window-height="679"
   id="namedview68"
   showgrid="false"
   inkscape:zoom="0.23895264"
   inkscape:cx="38.31233"
   inkscape:cy="498.05231"
   inkscape:window-x="82"
   inkscape:window-y="78"
   inkscape:window-maximized="0"
   inkscape:current-layer="Layer_1"
   showguides="true"
   inkscape:guide-bbox="true" />
   
	<g
   id="Grid"
   transform="matrix(2.0004581,0,0,2.0004578,0.50019527,4.813853)">
		<rect
   x="0"
   stroke-miterlimit="10"
   width="512"
   height="512"
   id="rect4"
   y="0"
   style="fill:none;stroke:#a9ccdb;stroke-miterlimit:10" />
		<line
   stroke-miterlimit="10"
   x1="0"
   y1="32"
   x2="512"
   y2="32"
   id="line6"
   style="fill:none;stroke:#a9ccdb;stroke-miterlimit:10" />
		<line
   stroke-miterlimit="10"
   x1="0"
   y1="64"
   x2="512"
   y2="64"
   id="line8"
   style="fill:none;stroke:#a9ccdb;stroke-miterlimit:10" />
		<line
   stroke-miterlimit="10"
   x1="0"
   y1="96"
   x2="512"
   y2="96"
   id="line10"
   style="fill:none;stroke:#a9ccdb;stroke-miterlimit:10" />
		<line
   stroke-miterlimit="10"
   x1="0"
   y1="128"
   x2="512"
   y2="128"
   id="line12"
   style="fill:none;stroke:#a9ccdb;stroke-miterlimit:10" />
		<line
   stroke-miterlimit="10"
   x1="0"
   y1="160"
   x2="512"
   y2="160"
   id="line14"
   style="fill:none;stroke:#a9ccdb;stroke-miterlimit:10" />
		<line
   stroke-miterlimit="10"
   x1="0"
   y1="192"
   x2="512"
   y2="192"
   id="line16"
   style="fill:none;stroke:#a9ccdb;stroke-miterlimit:10" />
		<line
   stroke-miterlimit="10"
   x1="0"
   y1="224"
   x2="512"
   y2="224"
   id="line18"
   style="fill:none;stroke:#a9ccdb;stroke-miterlimit:10" />
		<line
   stroke-miterlimit="10"
   x1="0"
   y1="256"
   x2="512"
   y2="256"
   id="line20"
   style="fill:none;stroke:#a9ccdb;stroke-miterlimit:10" />
		<line
   stroke-miterlimit="10"
   x1="0"
   y1="288"
   x2="512"
   y2="288"
   id="line22"
   style="fill:none;stroke:#a9ccdb;stroke-miterlimit:10" />
		<line
   stroke-miterlimit="10"
   x1="0"
   y1="320"
   x2="512"
   y2="320"
   id="line24"
   style="fill:none;stroke:#a9ccdb;stroke-miterlimit:10" />
		<line
   stroke-miterlimit="10"
   x1="0"
   y1="352"
   x2="512"
   y2="352"
   id="line26"
   style="fill:none;stroke:#a9ccdb;stroke-miterlimit:10" />
		<line
   stroke-miterlimit="10"
   x1="0"
   y1="384"
   x2="512"
   y2="384"
   id="line28"
   style="fill:none;stroke:#a9ccdb;stroke-miterlimit:10" />
		<line
   stroke-miterlimit="10"
   x1="0"
   y1="416"
   x2="512"
   y2="416"
   id="line30"
   style="fill:none;stroke:#a9ccdb;stroke-miterlimit:10" />
		<line
   stroke-miterlimit="10"
   x1="0"
   y1="448"
   x2="512"
   y2="448"
   id="line32"
   style="fill:none;stroke:#ff0000;stroke-miterlimit:10" />
		<line
   stroke-miterlimit="10"
   x1="0"
   y1="480"
   x2="512"
   y2="480"
   id="line34"
   style="fill:none;stroke:#a9ccdb;stroke-miterlimit:10" />
		<line
   stroke-miterlimit="10"
   x1="32"
   y1="0"
   x2="32"
   y2="512"
   id="line36"
   style="fill:none;stroke:#a9ccdb;stroke-miterlimit:10" />
		<line
   stroke-miterlimit="10"
   x1="64"
   y1="0"
   x2="64"
   y2="512"
   id="line38"
   style="fill:none;stroke:#a9ccdb;stroke-miterlimit:10" />
		<line
   stroke-miterlimit="10"
   x1="96"
   y1="0"
   x2="96"
   y2="512"
   id="line40"
   style="fill:none;stroke:#a9ccdb;stroke-miterlimit:10" />
		<line
   stroke-miterlimit="10"
   x1="128"
   y1="0"
   x2="128"
   y2="512"
   id="line42"
   style="fill:none;stroke:#a9ccdb;stroke-miterlimit:10" />
		<line
   stroke-miterlimit="10"
   x1="160"
   y1="0"
   x2="160"
   y2="512"
   id="line44"
   style="fill:none;stroke:#a9ccdb;stroke-miterlimit:10" />
		<line
   stroke-miterlimit="10"
   x1="192"
   y1="0"
   x2="192"
   y2="512"
   id="line46"
   style="fill:none;stroke:#a9ccdb;stroke-miterlimit:10" />
		<line
   stroke-miterlimit="10"
   x1="224"
   y1="0"
   x2="224"
   y2="512"
   id="line48"
   style="fill:none;stroke:#a9ccdb;stroke-miterlimit:10" />
		<line
   stroke-miterlimit="10"
   x1="256"
   y1="0"
   x2="256"
   y2="512"
   id="line50"
   style="fill:none;stroke:#a9ccdb;stroke-miterlimit:10" />
		<line
   stroke-miterlimit="10"
   x1="288"
   y1="0"
   x2="288"
   y2="512"
   id="line52"
   style="fill:none;stroke:#a9ccdb;stroke-miterlimit:10" />
		<line
   stroke-miterlimit="10"
   x1="320"
   y1="0"
   x2="320"
   y2="512"
   id="line54"
   style="fill:none;stroke:#a9ccdb;stroke-miterlimit:10" />
		<line
   stroke-miterlimit="10"
   x1="352"
   y1="0"
   x2="352"
   y2="512"
   id="line56"
   style="fill:none;stroke:#a9ccdb;stroke-miterlimit:10" />
		<line
   stroke-miterlimit="10"
   x1="384"
   y1="0"
   x2="384"
   y2="512"
   id="line58"
   style="fill:none;stroke:#a9ccdb;stroke-miterlimit:10" />
		<line
   stroke-miterlimit="10"
   x1="416"
   y1="0"
   x2="416"
   y2="512"
   id="line60"
   style="fill:none;stroke:#a9ccdb;stroke-miterlimit:10" />
		<line
   stroke-miterlimit="10"
   x1="448"
   y1="0"
   x2="448"
   y2="512"
   id="line62"
   style="fill:none;stroke:#a9ccdb;stroke-miterlimit:10" />
		<line
   stroke-miterlimit="10"
   x1="480"
   y1="0"
   x2="480"
   y2="512"
   id="line64"
   style="fill:none;stroke:#a9ccdb;stroke-miterlimit:10" />
	</g>
	

	<path
   style="fill:#a61e20;fill-opacity:0.85652173;stroke:#c10714;stroke-width:0.97060758;stroke-opacity:0.92608696"
   d="m 318.86514,235.57917 c 13.01599,25.24892 38.60329,51.75184 57.13528,52.78158 12.16545,0.68647 27.28524,-1.9785 39.10499,-2.36044 74.91838,6.65856 32.6756,-6.45619 84.44499,20.14431 38.51671,13.94127 47.32503,13.60185 61.14713,13.28306 9.35029,-0.21566 18.84534,-10.95988 39.36302,2.96764 10.50537,6.99389 69.21517,-1.52469 82.03257,-1.52469 -1.61656,30.37957 -8.15424,121.41042 -13.97041,146.84952 -2.55542,9.56335 -8.31018,15.56401 -20.8855,15.43303 -2.49865,25.90856 -52.06135,72.65695 -51.91791,99.23953 l -36.32553,0.6596 c -14.4713,0.52537 1.59862,-7.36696 -12.8667,-7.78597 -2.19499,-2.85034 -7.23866,-1.51164 -14.19347,-4.19467 -12.05501,-4.65057 -18.72319,-15.53674 -25.11342,-21.21037 -10.88517,-9.66449 -28.03656,-17.82895 -26.04252,-30.00583 1.97307,-12.04888 -19.33608,-10.45009 -25.11453,-12.82847 -11.12884,-4.58057 -18.26704,-7.02036 -30.18762,-12.68084 -30.55852,-14.12734 -90.21898,-49.53244 -120.6894,-49.53244 -18.93875,-6.69519 -56.14719,-41.95477 -75.85893,-41.95477 h -17.10055 -32.84856 c -9.65331,0.3714 -29.80688,33.97606 -31.46263,34.05468 -8.00172,13.61157 12.54542,48.50952 20.82199,53.41793 16.89718,7.65108 6.43,15.22654 22.94409,23.04724 18.14361,6.54962 5.46251,13.30843 36.43535,21.49173 11.16435,2.94972 -19.24666,18.26001 -1.35573,25.65047 13.27649,7.59907 34.25458,10.81675 49.54383,14.7997 8.66089,2.25624 23.00163,1.72307 23.00163,9.89867 -8.08516,-1.88556 -13.43652,-2.01686 -16.3467,1.84945 -1.13422,2.33653 -1.7461,4.08067 -1.86264,5.49431 -0.30552,3.70584 2.7928,5.14051 8.8082,9.02183 -0.0266,9.11275 1.89698,8.41234 -6.18002,8.41234 h -6.15534 c -9.4592,0.24702 -9.23682,-2.24565 -9.23682,6.66538 l 5.12467,12.14773 h -10.63411 -10.63398 l 1.91995,20.38431 c -0.0324,10.4198 2.48186,14.68055 1.00706,21.34815 -6.02667,18.08616 -23.52212,2.75349 -23.52212,18.96296 l -6.79221,11.92034 c 3.59085,9.94301 -1.06717,3.06389 -6.58002,12.95023 -7.32997,13.14514 -3.62205,8.68669 -3.41523,20.09596 -4.81572,16.40456 8.05611,52.50004 14.09094,57.04374 3.51409,2.64575 7.53357,15.34047 10.50473,20.63871 3.79269,6.75772 5.11948,5.04702 5.48837,15.80436 0.681,9.1622 -3.123,32.60123 6.01742,39.2717 12.75562,9.14657 14.70809,10.13615 22.25677,10.58425 11.70352,-2.52001 12.45506,3.28371 18.5439,9.63805 5.70198,5.95068 28.40317,7.91529 35.087,8.44796 12.68936,0.84249 23.1158,-12.32991 27.64564,-15.34705 7.00015,-5.04134 4.21454,-10.63054 12.99891,-16.23329 6.5251,-5.04823 11.00555,-10.72672 17.40749,-10.75598 13.52673,1.8438 20.38094,-1.62987 24.06109,-7.96963 3.25915,-5.61451 -0.92641,-16.00946 4.97216,-23.77065 3.84371,-5.05743 18.60373,-7.06801 19.68844,-12.53849 l 3.87842,-41.44601 c 27.37362,-0.40246 12.16169,-33.71602 35.94765,-33.4155 0.98734,20.68068 60.90677,14.17181 83.73065,17.56782 25.90155,4.44087 35.8423,16.25847 52.01661,16.07096 37.90007,-2.2501 60.01144,-4.89765 89.90584,-18.53484 28.25605,-7.92665 52.63073,-38.83039 52.63073,-68.10947 l 3.62367,-55.19472 c 0.22732,-7.64982 18.03961,-7.93887 18.9556,-15.1271 11.82353,-92.78327 91.72567,-172.55162 87.77286,-280.66644 5.57456,-23.86058 23.4614,-33.96892 14.08948,-49.1586 -4.75422,-9.39283 -6.71326,-23.75573 -11.44004,-27.90589 -6.20613,-5.44909 38.65705,-37.034 -20.42805,-33.87394 -32.97662,-13.28173 -46.73047,-13.686 -69.55453,-31.02574 -20.32258,-11.92248 -40.71722,-6.66147 -46.97571,-7.3192 -5.88075,-0.61803 -13.16831,-20.90942 -30.84443,-21.38086 -16.99615,-0.45331 -53.203,13.55681 -71.10668,4.62973 -62.28261,-26.21009 -42.56203,-2.16986 -107.58732,-13.78011 -33.91202,-6.30164 -64.34429,12.77641 -79.11293,-0.78667 -8.41484,-3.42204 -17.71083,-5.85323 -27.32931,-7.35704 -18.82867,-2.94378 -44.32854,18.20618 -61.43899,21.8928 -9.38622,2.12003 -17.01258,5.34571 -21.32141,9.71573 -15.89517,16.67307 -18.6372,39.99501 -9.71712,61.49822 z"
   id="path3785"
   inkscape:connector-curvature="0"
   sodipodi:nodetypes="ccccscccccccssssccccccccscsccscccccccccccscsccccsccccssccccccccsccsccsscccsccc" /></svg>