<?xml version="1.0" encoding="UTF-8" standalone="no"?>
<svg
   xmlns:dc="http://purl.org/dc/elements/1.1/"
   xmlns:cc="http://creativecommons.org/ns#"
   xmlns:rdf="http://www.w3.org/1999/02/22-rdf-syntax-ns#"
   xmlns:svg="http://www.w3.org/2000/svg"
   xmlns="http://www.w3.org/2000/svg"
   xmlns:sodipodi="http://sodipodi.sourceforge.net/DTD/sodipodi-0.dtd"
   xmlns:inkscape="http://www.inkscape.org/namespaces/inkscape"
   version="1.1"
   id="Layer_1"
   x="0px"
   y="0px"
   width="1092.2667"
   height="1092.2667"
   viewBox="0 0 1024 1024"
   enable-background="new 0 0 512 512"
   xml:space="preserve"
   inkscape:version="0.92.1 r15371"
   sodipodi:docname="nunhebrew-x5e0.svg"><title
   id="title3743">Sinai 357</title><metadata
   id="metadata72"><rdf:RDF><cc:Work
       rdf:about=""><dc:format>image/svg+xml</dc:format><dc:type
         rdf:resource="http://purl.org/dc/dcmitype/StillImage" /><dc:title>Sinai 357</dc:title><dc:date>2017</dc:date><dc:creator><cc:Agent><dc:title>Celeste Claire Horner</dc:title></cc:Agent></dc:creator><dc:publisher><cc:Agent><dc:title>beitdina.net</dc:title></cc:Agent></dc:publisher></cc:Work></rdf:RDF></metadata><defs
   id="defs70" /><sodipodi:namedview
   pagecolor="#ffffff"
   bordercolor="#666666"
   borderopacity="1"
   objecttolerance="10"
   gridtolerance="10"
   guidetolerance="10"
   inkscape:pageopacity="0"
   inkscape:pageshadow="2"
   inkscape:window-width="1152"
   inkscape:window-height="814"
   id="namedview68"
   showgrid="false"
   inkscape:zoom="0.31234964"
   inkscape:cx="47.753176"
   inkscape:cy="578.24169"
   inkscape:window-x="-8"
   inkscape:window-y="-8"
   inkscape:window-maximized="1"
   inkscape:current-layer="Layer_1" />
   
	<g
   id="Grid"
   transform="matrix(2.0059908,0,0,2.0059908,0.50299541,-3.5702931)">
		<rect
   x="-0.47926444"
   stroke-miterlimit="10"
   width="512.47925"
   height="510.08289"
   id="rect4"
   y="1.9170578"
   style="fill:none;stroke:#a9ccdb;stroke-miterlimit:10"
   ry="0" />
		<line
   stroke-miterlimit="10"
   x1="0"
   y1="32"
   x2="512"
   y2="32"
   id="line6"
   style="fill:none;stroke:#a9ccdb;stroke-miterlimit:10" />
		<line
   stroke-miterlimit="10"
   x1="0"
   y1="64"
   x2="512"
   y2="64"
   id="line8"
   style="fill:none;stroke:#a9ccdb;stroke-miterlimit:10" />
		<line
   stroke-miterlimit="10"
   x1="0"
   y1="96"
   x2="512"
   y2="96"
   id="line10"
   style="fill:none;stroke:#a9ccdb;stroke-miterlimit:10" />
		<line
   stroke-miterlimit="10"
   x1="0"
   y1="128"
   x2="512"
   y2="128"
   id="line12"
   style="fill:none;stroke:#a9ccdb;stroke-miterlimit:10" />
		<line
   stroke-miterlimit="10"
   x1="0"
   y1="160"
   x2="512"
   y2="160"
   id="line14"
   style="fill:none;stroke:#a9ccdb;stroke-miterlimit:10" />
		<line
   stroke-miterlimit="10"
   x1="0"
   y1="192"
   x2="512"
   y2="192"
   id="line16"
   style="fill:none;stroke:#a9ccdb;stroke-miterlimit:10" />
		<line
   stroke-miterlimit="10"
   x1="0"
   y1="224"
   x2="512"
   y2="224"
   id="line18"
   style="fill:none;stroke:#a9ccdb;stroke-miterlimit:10" />
		<line
   stroke-miterlimit="10"
   x1="0"
   y1="256"
   x2="512"
   y2="256"
   id="line20"
   style="fill:none;stroke:#a9ccdb;stroke-miterlimit:10" />
		<line
   stroke-miterlimit="10"
   x1="0"
   y1="288"
   x2="512"
   y2="288"
   id="line22"
   style="fill:none;stroke:#a9ccdb;stroke-miterlimit:10" />
		<line
   stroke-miterlimit="10"
   x1="0"
   y1="320"
   x2="512"
   y2="320"
   id="line24"
   style="fill:none;stroke:#a9ccdb;stroke-miterlimit:10" />
		<line
   stroke-miterlimit="10"
   x1="0"
   y1="352"
   x2="512"
   y2="352"
   id="line26"
   style="fill:none;stroke:#a9ccdb;stroke-miterlimit:10" />
		<line
   stroke-miterlimit="10"
   x1="0"
   y1="384"
   x2="512"
   y2="384"
   id="line28"
   style="fill:none;stroke:#a9ccdb;stroke-miterlimit:10" />
		<line
   stroke-miterlimit="10"
   x1="0"
   y1="416"
   x2="512"
   y2="416"
   id="line30"
   style="fill:none;stroke:#a9ccdb;stroke-miterlimit:10" />
		<line
   stroke-miterlimit="10"
   x1="0"
   y1="448"
   x2="512"
   y2="448"
   id="line32"
   style="fill:none;stroke:#ff0000;stroke-miterlimit:10" />
		<line
   stroke-miterlimit="10"
   x1="0"
   y1="480"
   x2="512"
   y2="480"
   id="line34"
   style="fill:none;stroke:#a9ccdb;stroke-miterlimit:10" />
		<line
   stroke-miterlimit="10"
   x1="32"
   y1="0"
   x2="32"
   y2="512"
   id="line36"
   style="fill:none;stroke:#a9ccdb;stroke-miterlimit:10" />
		<line
   stroke-miterlimit="10"
   x1="64"
   y1="0"
   x2="64"
   y2="512"
   id="line38"
   style="fill:none;stroke:#a9ccdb;stroke-miterlimit:10" />
		<line
   stroke-miterlimit="10"
   x1="96"
   y1="0"
   x2="96"
   y2="512"
   id="line40"
   style="fill:none;stroke:#a9ccdb;stroke-miterlimit:10" />
		<line
   stroke-miterlimit="10"
   x1="128"
   y1="0"
   x2="128"
   y2="512"
   id="line42"
   style="fill:none;stroke:#a9ccdb;stroke-miterlimit:10" />
		<line
   stroke-miterlimit="10"
   x1="160"
   y1="0"
   x2="160"
   y2="512"
   id="line44"
   style="fill:none;stroke:#a9ccdb;stroke-miterlimit:10" />
		<line
   stroke-miterlimit="10"
   x1="192"
   y1="0"
   x2="192"
   y2="512"
   id="line46"
   style="fill:none;stroke:#a9ccdb;stroke-miterlimit:10" />
		<line
   stroke-miterlimit="10"
   x1="224"
   y1="0"
   x2="224"
   y2="512"
   id="line48"
   style="fill:none;stroke:#a9ccdb;stroke-miterlimit:10" />
		<line
   stroke-miterlimit="10"
   x1="256"
   y1="0"
   x2="256"
   y2="512"
   id="line50"
   style="fill:none;stroke:#a9ccdb;stroke-miterlimit:10" />
		<line
   stroke-miterlimit="10"
   x1="288"
   y1="0"
   x2="288"
   y2="512"
   id="line52"
   style="fill:none;stroke:#a9ccdb;stroke-miterlimit:10" />
		<line
   stroke-miterlimit="10"
   x1="320"
   y1="0"
   x2="320"
   y2="512"
   id="line54"
   style="fill:none;stroke:#a9ccdb;stroke-miterlimit:10" />
		<line
   stroke-miterlimit="10"
   x1="352"
   y1="0"
   x2="352"
   y2="512"
   id="line56"
   style="fill:none;stroke:#a9ccdb;stroke-miterlimit:10" />
		<line
   stroke-miterlimit="10"
   x1="384"
   y1="0"
   x2="384"
   y2="512"
   id="line58"
   style="fill:none;stroke:#a9ccdb;stroke-miterlimit:10" />
		<line
   stroke-miterlimit="10"
   x1="416"
   y1="0"
   x2="416"
   y2="512"
   id="line60"
   style="fill:none;stroke:#a9ccdb;stroke-miterlimit:10" />
		<line
   stroke-miterlimit="10"
   x1="448"
   y1="0"
   x2="448"
   y2="512"
   id="line62"
   style="fill:none;stroke:#a9ccdb;stroke-miterlimit:10" />
		<line
   stroke-miterlimit="10"
   x1="480"
   y1="0"
   x2="480"
   y2="512"
   id="line64"
   style="fill:none;stroke:#a9ccdb;stroke-miterlimit:10" />
	</g>

<path
   sodipodi:nodetypes="ccccccscccsccssssccccscsccsscsccsccccccsccccccccccccccccsccccccccssccsccscc"
   inkscape:connector-curvature="0"
   id="path3786-4"
   d="m 152.36289,113.56617 c -4.67765,3.00385 -14.52045,14.0871 -21.55255,28.04002 -2.10876,16.46975 -7.24633,47.17316 9.18026,61.61747 9.09929,7.52827 16.60241,15.53767 24.45248,23.22036 8.8388,8.62895 6.00111,1.32684 21.14359,10.30007 l 10.16015,1.13192 c 4.10543,-0.11312 7.74627,-0.56865 10.79138,0.0189 6.48427,1.25115 11.26738,4.23154 19.11357,4.22687 8.57359,-0.51188 19.63047,-0.20728 27.7374,0.2561 5.78117,0.32451 4.74415,3.10354 9.35465,2.72774 3.33722,4.70098 14.6506,5.74873 17.94616,7.54144 4.85937,2.64337 10.23216,3.64356 17.76608,7.4785 5.32574,1.97535 10.80191,4.37806 16.3683,6.49182 8.12249,3.0601 10.66527,1.92386 14.26457,5.21906 5.11691,4.68459 33.33974,20.10645 43.4323,23.42323 12.89655,4.23826 25.22064,-4.70759 37.15949,1.40236 5.08201,2.60082 57.04173,9.1972 62.1167,11.47942 18.94094,8.51775 48.07162,-8.09604 65.14643,0.54325 -1.76864,6.48035 -5.46957,54.59384 -7.53467,59.92903 -0.48802,5.98152 -6.97489,59.05086 -7.85259,64.36092 0.1521,5.91244 0.28051,9.30535 -0.16475,12.15706 -2.67915,7.34476 13.16213,24.03186 8.54392,31.71895 -6.01038,10.00437 -27.36628,0.50667 -30.65944,9.79014 -6.13643,16.41909 -4.2931,18.77285 -12.23043,33.57907 -5.4538,10.17351 -0.11918,21.53661 -5.21418,31.35233 -3.45554,7.3463 8.97138,34.51871 0.31293,46.16963 -4.79838,6.65788 -11.76419,3.82063 -16.39186,9.53501 -2.95079,3.64371 -4.95092,10.76437 -4.83232,26.04069 0.11166,14.38228 -9.46155,8.79436 -20.0664,17.52934 -13.70156,11.48172 -18.18641,40.57877 -24.70915,56.10024 -4.40551,10.48335 -6.83619,22.51915 -6.83619,36.95978 -5.84924,15.15722 7.9763,21.0782 8.82575,27.44248 -3.01132,8.56701 -1.09235,17.30854 2.15131,26.16532 4.17408,11.39724 10.5418,22.98531 11.41985,34.63787 -9.58428,4.97622 18.03727,26.74448 22.01816,21.9637 20.22727,5.53695 55.61731,11.9556 74.93461,13.08628 5.07546,3.0102 10.80392,4.63812 14.39793,2.73261 6.31302,-3.22591 8.84657,-8.03262 12.23638,-13.31616 2.80887,-4.59086 8.09105,-7.35208 10.37763,-10.63573 4.7307,-10.85857 15.30301,-18.4132 20.06824,-26.50777 5.85137,-9.93954 5.99509,-19.93109 13.0981,-28.53294 2.24826,-2.93711 3.96289,-6.04978 5.8426,-8.767 19.1507,-14.89218 1.62663,-15.67904 1.41822,-25.02946 v -8.85104 h 8.60578 c 8.0856,-1.43273 11.36074,-14.0313 12.5727,-22.18023 7.55067,-18.96081 -10.48678,-26.63497 -12.33136,-35.59372 -1.94195,-14.1678 2.0164,-35.51777 2.16198,-44.50472 -1.12092,-7.08693 0.52987,-14.1987 2.81114,-21.3188 14.90851,-30.91475 -15.47362,-108.4556 -6.93603,-140.20436 1.91935,-11.71733 -1.77585,-24.38275 1.3526,-34.45597 4.3927,-14.28105 7.26326,-18.47552 8.59089,-31.10535 1.25397,-17.59241 8.74598,-46.05654 8.65611,-62.03875 -1.21275,-1.79308 2.28823,-7.29256 3.40423,-11.28543 l 5.92379,-43.41525 c 1.29358,-8.5748 -9.61491,-6.37132 -3.78098,-9.81317 9.53309,-5.69252 15.21326,-16.16646 19.83828,-26.65816 2.71932,-6.16865 5.07386,-12.34345 7.63229,-17.55613 3.26839,-5.19943 5.77427,-10.39092 7.1328,-15.93838 4.33971,-17.89041 1.51827,-35.43341 -2.37729,-49.45978 -3.60244,-6.54185 -2.29412,-6.59387 -1.66816,-12.60971 1.48686,-13.47583 -5.46873,-55.72418 -14.45759,-54.30884 -34.05024,-10.70044 -51.50621,13.60095 -87.71529,1.94054 -7.22797,-0.36786 -14.21078,-5.1085 -20.70212,-5.6334 -7.87914,-0.55618 -12.98969,4.09044 -22.7846,4.09044 -13.52575,3.83635 -29.70476,0.77983 -45.91819,-3.64539 -16.57126,-4.52288 -33.17847,-10.47553 -47.02549,-11.95988 -21.91442,-2.349153 -16.6248,3.55379 -37.82843,-1.431623 -7.0445,-1.76793 -21.49379,3.658993 -25.9348,3.394863 -52.21646,-2.16365 -74.67967,-4.281943 -110.17401,-4.435093 -8.94114,-0.0386 -18.7092,0.0475 -29.98802,0.28905 -9.24576,0.19615 -18.41109,0.34813 -27.13149,0.62798 -9.88094,0.8984 -19.42424,2.907483 -28.30453,6.107983 -6.13896,2.21253 -11.96106,4.99443 -17.35882,8.37239 z"
   style="fill:#97704f;stroke-width:1" />   
</svg>