<?xml version="1.0" encoding="UTF-8" standalone="no"?>
<svg
   xmlns:dc="http://purl.org/dc/elements/1.1/"
   xmlns:cc="http://creativecommons.org/ns#"
   xmlns:rdf="http://www.w3.org/1999/02/22-rdf-syntax-ns#"
   xmlns:svg="http://www.w3.org/2000/svg"
   xmlns="http://www.w3.org/2000/svg"
   xmlns:sodipodi="http://sodipodi.sourceforge.net/DTD/sodipodi-0.dtd"
   xmlns:inkscape="http://www.inkscape.org/namespaces/inkscape"
   version="1.1"
   id="Layer_1"
   x="0px"
   y="0px"
   width="1092.2667"
   height="1092.2667"
   viewBox="0 0 1024 1024"
   enable-background="new 0 0 512 512"
   xml:space="preserve"
   inkscape:version="0.92.1 r15371"
   sodipodi:docname="reshhebrew-x5e8.svg"><title
   id="title3743">Sinai 357</title><metadata
   id="metadata72"><rdf:RDF><cc:Work
       rdf:about=""><dc:format>image/svg+xml</dc:format><dc:type
         rdf:resource="http://purl.org/dc/dcmitype/StillImage" /><dc:title>Sinai 357</dc:title><dc:date>2017</dc:date><dc:creator><cc:Agent><dc:title>Celeste Claire Horner</dc:title></cc:Agent></dc:creator><dc:publisher><cc:Agent><dc:title>beitdina.net</dc:title></cc:Agent></dc:publisher></cc:Work></rdf:RDF></metadata><defs
   id="defs70" /><sodipodi:namedview
   pagecolor="#ffffff"
   bordercolor="#666666"
   borderopacity="1"
   objecttolerance="10"
   gridtolerance="10"
   guidetolerance="10"
   inkscape:pageopacity="0"
   inkscape:pageshadow="2"
   inkscape:window-width="1152"
   inkscape:window-height="814"
   id="namedview68"
   showgrid="false"
   inkscape:zoom="0.31234964"
   inkscape:cx="-65.548583"
   inkscape:cy="648.95274"
   inkscape:window-x="-8"
   inkscape:window-y="-8"
   inkscape:window-maximized="1"
   inkscape:current-layer="Layer_1" />
   
	<g
   id="Grid"
   transform="matrix(2.0004581,0,0,2.0004578,0.50019527,4.813853)">
		<rect
   x="0"
   stroke-miterlimit="10"
   width="512"
   height="512"
   id="rect4"
   y="0"
   style="fill:none;stroke:#a9ccdb;stroke-miterlimit:10" />
		<line
   stroke-miterlimit="10"
   x1="0"
   y1="32"
   x2="512"
   y2="32"
   id="line6"
   style="fill:none;stroke:#a9ccdb;stroke-miterlimit:10" />
		<line
   stroke-miterlimit="10"
   x1="0"
   y1="64"
   x2="512"
   y2="64"
   id="line8"
   style="fill:none;stroke:#a9ccdb;stroke-miterlimit:10" />
		<line
   stroke-miterlimit="10"
   x1="0"
   y1="96"
   x2="512"
   y2="96"
   id="line10"
   style="fill:none;stroke:#a9ccdb;stroke-miterlimit:10" />
		<line
   stroke-miterlimit="10"
   x1="0"
   y1="128"
   x2="512"
   y2="128"
   id="line12"
   style="fill:none;stroke:#a9ccdb;stroke-miterlimit:10" />
		<line
   stroke-miterlimit="10"
   x1="0"
   y1="160"
   x2="512"
   y2="160"
   id="line14"
   style="fill:none;stroke:#a9ccdb;stroke-miterlimit:10" />
		<line
   stroke-miterlimit="10"
   x1="0"
   y1="192"
   x2="512"
   y2="192"
   id="line16"
   style="fill:none;stroke:#a9ccdb;stroke-miterlimit:10" />
		<line
   stroke-miterlimit="10"
   x1="0"
   y1="224"
   x2="512"
   y2="224"
   id="line18"
   style="fill:none;stroke:#a9ccdb;stroke-miterlimit:10" />
		<line
   stroke-miterlimit="10"
   x1="0"
   y1="256"
   x2="512"
   y2="256"
   id="line20"
   style="fill:none;stroke:#a9ccdb;stroke-miterlimit:10" />
		<line
   stroke-miterlimit="10"
   x1="0"
   y1="288"
   x2="512"
   y2="288"
   id="line22"
   style="fill:none;stroke:#a9ccdb;stroke-miterlimit:10" />
		<line
   stroke-miterlimit="10"
   x1="0"
   y1="320"
   x2="512"
   y2="320"
   id="line24"
   style="fill:none;stroke:#a9ccdb;stroke-miterlimit:10" />
		<line
   stroke-miterlimit="10"
   x1="0"
   y1="352"
   x2="512"
   y2="352"
   id="line26"
   style="fill:none;stroke:#a9ccdb;stroke-miterlimit:10" />
		<line
   stroke-miterlimit="10"
   x1="0"
   y1="384"
   x2="512"
   y2="384"
   id="line28"
   style="fill:none;stroke:#a9ccdb;stroke-miterlimit:10" />
		<line
   stroke-miterlimit="10"
   x1="0"
   y1="416"
   x2="512"
   y2="416"
   id="line30"
   style="fill:none;stroke:#a9ccdb;stroke-miterlimit:10" />
		<line
   stroke-miterlimit="10"
   x1="0"
   y1="448"
   x2="512"
   y2="448"
   id="line32"
   style="fill:none;stroke:#ff0000;stroke-miterlimit:10" />
		<line
   stroke-miterlimit="10"
   x1="0"
   y1="480"
   x2="512"
   y2="480"
   id="line34"
   style="fill:none;stroke:#a9ccdb;stroke-miterlimit:10" />
		<line
   stroke-miterlimit="10"
   x1="32"
   y1="0"
   x2="32"
   y2="512"
   id="line36"
   style="fill:none;stroke:#a9ccdb;stroke-miterlimit:10" />
		<line
   stroke-miterlimit="10"
   x1="64"
   y1="0"
   x2="64"
   y2="512"
   id="line38"
   style="fill:none;stroke:#a9ccdb;stroke-miterlimit:10" />
		<line
   stroke-miterlimit="10"
   x1="96"
   y1="0"
   x2="96"
   y2="512"
   id="line40"
   style="fill:none;stroke:#a9ccdb;stroke-miterlimit:10" />
		<line
   stroke-miterlimit="10"
   x1="128"
   y1="0"
   x2="128"
   y2="512"
   id="line42"
   style="fill:none;stroke:#a9ccdb;stroke-miterlimit:10" />
		<line
   stroke-miterlimit="10"
   x1="160"
   y1="0"
   x2="160"
   y2="512"
   id="line44"
   style="fill:none;stroke:#a9ccdb;stroke-miterlimit:10" />
		<line
   stroke-miterlimit="10"
   x1="192"
   y1="0"
   x2="192"
   y2="512"
   id="line46"
   style="fill:none;stroke:#a9ccdb;stroke-miterlimit:10" />
		<line
   stroke-miterlimit="10"
   x1="224"
   y1="0"
   x2="224"
   y2="512"
   id="line48"
   style="fill:none;stroke:#a9ccdb;stroke-miterlimit:10" />
		<line
   stroke-miterlimit="10"
   x1="256"
   y1="0"
   x2="256"
   y2="512"
   id="line50"
   style="fill:none;stroke:#a9ccdb;stroke-miterlimit:10" />
		<line
   stroke-miterlimit="10"
   x1="288"
   y1="0"
   x2="288"
   y2="512"
   id="line52"
   style="fill:none;stroke:#a9ccdb;stroke-miterlimit:10" />
		<line
   stroke-miterlimit="10"
   x1="320"
   y1="0"
   x2="320"
   y2="512"
   id="line54"
   style="fill:none;stroke:#a9ccdb;stroke-miterlimit:10" />
		<line
   stroke-miterlimit="10"
   x1="352"
   y1="0"
   x2="352"
   y2="512"
   id="line56"
   style="fill:none;stroke:#a9ccdb;stroke-miterlimit:10" />
		<line
   stroke-miterlimit="10"
   x1="384"
   y1="0"
   x2="384"
   y2="512"
   id="line58"
   style="fill:none;stroke:#a9ccdb;stroke-miterlimit:10" />
		<line
   stroke-miterlimit="10"
   x1="416"
   y1="0"
   x2="416"
   y2="512"
   id="line60"
   style="fill:none;stroke:#a9ccdb;stroke-miterlimit:10" />
		<line
   stroke-miterlimit="10"
   x1="448"
   y1="0"
   x2="448"
   y2="512"
   id="line62"
   style="fill:none;stroke:#a9ccdb;stroke-miterlimit:10" />
		<line
   stroke-miterlimit="10"
   x1="480"
   y1="0"
   x2="480"
   y2="512"
   id="line64"
   style="fill:none;stroke:#a9ccdb;stroke-miterlimit:10" />
	</g>
	

<path
   style="fill:#5e5247;stroke-width:1.02996421"
   d="m 116.08307,845.86103 c 24.7274,33.46045 56.711,51.89645 81.4193,36.5596 6.171,-5.05874 9.8766,-44.49572 8.5061,-90.52171 -0.2653,-8.91179 -0.3812,-15.24241 -0.3626,-19.73859 0.8558,-12.02253 6.2606,-17.47977 15.5535,-27.46888 3.3331,-3.54899 7.1676,-6.95557 11.1745,-9.76569 9.3326,-6.50661 14.8213,-7.13217 20.3831,-5.96568 10.3678,3.6248 152.7072,1.41665 186.1955,14.12768 31.83617,12.08395 71.95435,27.10732 81.10788,30.43031 8.25675,2.23905 18.02249,4.13886 27.6868,5.45902 9.70969,1.32636 19.317,2.06762 27.18874,1.97997 11.61612,-0.002 20.87767,-1.34856 31.82226,-3.13137 18.6091,-3.19555 33.31884,-19.55522 42.54071,-29.20163 10.3711,-10.84855 17.15197,-29.19922 23.84574,-54.2954 13.45782,-50.55144 25.39202,-102.05784 35.5904,-154.06086 11.0431,-56.3096 11.0479,-20.15688 17.75619,-77.04918 4.87405,-39.5121 9.50802,-78.64111 9.15706,-116.05853 -2.19529,-30.91437 1.1148,-64.83798 -9.27404,-92.76987 -7.92341,-21.30627 -26.88057,-39.12641 -44.24877,-49.46538 -34.66528,-12.63674 -47.31882,-9.34711 -51.08856,2.58966 3.67373,57.94316 -8.17136,112.51183 -16.91582,167.83744 -3.0086,10.5708 -7.36915,24.03454 -11.53478,36.60795 -3.74821,11.31347 -7.33862,21.90611 -9.64434,29.02178 -3.01544,11.88498 -8.06832,33.30581 -10.82173,45.24805 -0.69541,15.74897 -5.14443,26.98679 -10.24714,37.51144 -3.71968,7.67208 -7.78674,14.96521 -11.00033,23.35058 -2.14299,7.8276 -3.70189,16.25656 -8.30847,22.35549 -4.4578,5.90197 -11.85392,9.60512 -20.42244,9.46439 -7.2259,-0.40867 -14.75233,-3.55957 -21.73429,-7.44184 -18.33093,-10.26064 -43.31348,-21.30642 -65.33577,-27.32701 -29.6973,-8.11881 -170.7466,1.45445 -180.0358,2.26531 -23.1939,-4.6043 -43.0324,-4.40629 -64.0726,-4.22999 -1.5921,0.007 -8.5341,-0.48932 -15.7149,0.84237 -2.3731,0.50824 -4.4008,0.8844 -6.4894,1.31789 -3.6551,1.12273 -7.2102,1.64572 -10.6135,1.39733 -2.6258,-0.19165 -5.1613,-0.8425 -7.5826,-2.03145 -2.5092,-1.21396 -4.6227,-1.53769 -7.594,-1.8366 -7.9754,-1.95186 -13.341,-1.69038 -17.8398,-0.29277 -6.1928,1.92386 -10.7429,6.00053 -18.1963,9.42032 -11.1277,4.81185 -21.026202,17.13711 -30.167902,35.07039 -14.2548,28.38598 -13.6747,73.13353 -14.5493,105.02069 -0.6107,26.17171 -2.1499,64.81823 0.9626,90.47269 3.4238,22.72551 9.9269,28.41266 16.6302,32.55691 6.4619,12.68581 19.534102,22.98958 26.274602,31.74522 z"
   id="path3773-2-2"
   inkscape:connector-curvature="0"
   sodipodi:nodetypes="cccccccscsccscsccscccsccscsccsccccsccsccccccc" /></svg>