<?xml version="1.0" encoding="UTF-8" standalone="no"?>
<svg
   xmlns:dc="http://purl.org/dc/elements/1.1/"
   xmlns:cc="http://creativecommons.org/ns#"
   xmlns:rdf="http://www.w3.org/1999/02/22-rdf-syntax-ns#"
   xmlns:svg="http://www.w3.org/2000/svg"
   xmlns="http://www.w3.org/2000/svg"
   xmlns:sodipodi="http://sodipodi.sourceforge.net/DTD/sodipodi-0.dtd"
   xmlns:inkscape="http://www.inkscape.org/namespaces/inkscape"
   version="1.1"
   id="Layer_1"
   x="0px"
   y="0px"
   width="1092.2667"
   height="1092.2667"
   viewBox="0 0 1024 1024"
   enable-background="new 0 0 512 512"
   xml:space="preserve"
   inkscape:version="0.92.1 r15371"
   sodipodi:docname="shinhebrew-x5e9.svg"><title
   id="title3743">Sinai 357</title><metadata
   id="metadata72"><rdf:RDF><cc:Work
       rdf:about=""><dc:format>image/svg+xml</dc:format><dc:type
         rdf:resource="http://purl.org/dc/dcmitype/StillImage" /><dc:title>Sinai 357</dc:title><dc:date>2017</dc:date><dc:creator><cc:Agent><dc:title>Celeste Claire Horner</dc:title></cc:Agent></dc:creator><dc:publisher><cc:Agent><dc:title>beitdina.net</dc:title></cc:Agent></dc:publisher></cc:Work></rdf:RDF></metadata><defs
   id="defs70" /><sodipodi:namedview
   pagecolor="#ffffff"
   bordercolor="#666666"
   borderopacity="1"
   objecttolerance="10"
   gridtolerance="10"
   guidetolerance="10"
   inkscape:pageopacity="0"
   inkscape:pageshadow="2"
   inkscape:window-width="475"
   inkscape:window-height="602"
   id="namedview68"
   showgrid="false"
   inkscape:zoom="0.11266559"
   inkscape:cx="845.38752"
   inkscape:cy="565.93249"
   inkscape:window-x="296"
   inkscape:window-y="103"
   inkscape:window-maximized="0"
   inkscape:current-layer="Layer_1"
   showguides="false"><sodipodi:guide
     position="1100.2884,-2.9419477"
     orientation="0.70710678,0.70710678"
     id="guide51"
     inkscape:locked="false" /></sodipodi:namedview>
   
	<g
   id="Grid"
   transform="matrix(2.0004581,0,0,2.0004578,0.50019527,4.813853)">
		<rect
   x="0"
   stroke-miterlimit="10"
   width="512"
   height="512"
   id="rect4"
   y="0"
   style="fill:none;stroke:#a9ccdb;stroke-miterlimit:10" />
		<line
   stroke-miterlimit="10"
   x1="0"
   y1="32"
   x2="512"
   y2="32"
   id="line6"
   style="fill:none;stroke:#a9ccdb;stroke-miterlimit:10" />
		<line
   stroke-miterlimit="10"
   x1="0"
   y1="64"
   x2="512"
   y2="64"
   id="line8"
   style="fill:none;stroke:#a9ccdb;stroke-miterlimit:10" />
		<line
   stroke-miterlimit="10"
   x1="0"
   y1="96"
   x2="512"
   y2="96"
   id="line10"
   style="fill:none;stroke:#a9ccdb;stroke-miterlimit:10" />
		<line
   stroke-miterlimit="10"
   x1="0"
   y1="128"
   x2="512"
   y2="128"
   id="line12"
   style="fill:none;stroke:#a9ccdb;stroke-miterlimit:10" />
		<line
   stroke-miterlimit="10"
   x1="0"
   y1="160"
   x2="512"
   y2="160"
   id="line14"
   style="fill:none;stroke:#a9ccdb;stroke-miterlimit:10" />
		<line
   stroke-miterlimit="10"
   x1="0"
   y1="192"
   x2="512"
   y2="192"
   id="line16"
   style="fill:none;stroke:#a9ccdb;stroke-miterlimit:10" />
		<line
   stroke-miterlimit="10"
   x1="0"
   y1="224"
   x2="512"
   y2="224"
   id="line18"
   style="fill:none;stroke:#a9ccdb;stroke-miterlimit:10" />
		<line
   stroke-miterlimit="10"
   x1="0"
   y1="256"
   x2="512"
   y2="256"
   id="line20"
   style="fill:none;stroke:#a9ccdb;stroke-miterlimit:10" />
		<line
   stroke-miterlimit="10"
   x1="0"
   y1="288"
   x2="512"
   y2="288"
   id="line22"
   style="fill:none;stroke:#a9ccdb;stroke-miterlimit:10" />
		<line
   stroke-miterlimit="10"
   x1="0"
   y1="320"
   x2="512"
   y2="320"
   id="line24"
   style="fill:none;stroke:#a9ccdb;stroke-miterlimit:10" />
		<line
   stroke-miterlimit="10"
   x1="0"
   y1="352"
   x2="512"
   y2="352"
   id="line26"
   style="fill:none;stroke:#a9ccdb;stroke-miterlimit:10" />
		<line
   stroke-miterlimit="10"
   x1="0"
   y1="384"
   x2="512"
   y2="384"
   id="line28"
   style="fill:none;stroke:#a9ccdb;stroke-miterlimit:10" />
		<line
   stroke-miterlimit="10"
   x1="0"
   y1="416"
   x2="512"
   y2="416"
   id="line30"
   style="fill:none;stroke:#a9ccdb;stroke-miterlimit:10" />
		<line
   stroke-miterlimit="10"
   x1="0"
   y1="448"
   x2="512"
   y2="448"
   id="line32"
   style="fill:none;stroke:#ff0000;stroke-miterlimit:10" />
		<line
   stroke-miterlimit="10"
   x1="0"
   y1="480"
   x2="512"
   y2="480"
   id="line34"
   style="fill:none;stroke:#a9ccdb;stroke-miterlimit:10" />
		<line
   stroke-miterlimit="10"
   x1="32"
   y1="0"
   x2="32"
   y2="512"
   id="line36"
   style="fill:none;stroke:#a9ccdb;stroke-miterlimit:10" />
		<line
   stroke-miterlimit="10"
   x1="64"
   y1="0"
   x2="64"
   y2="512"
   id="line38"
   style="fill:none;stroke:#a9ccdb;stroke-miterlimit:10" />
		<line
   stroke-miterlimit="10"
   x1="96"
   y1="0"
   x2="96"
   y2="512"
   id="line40"
   style="fill:none;stroke:#a9ccdb;stroke-miterlimit:10" />
		<line
   stroke-miterlimit="10"
   x1="128"
   y1="0"
   x2="128"
   y2="512"
   id="line42"
   style="fill:none;stroke:#a9ccdb;stroke-miterlimit:10" />
		<line
   stroke-miterlimit="10"
   x1="160"
   y1="0"
   x2="160"
   y2="512"
   id="line44"
   style="fill:none;stroke:#a9ccdb;stroke-miterlimit:10" />
		<line
   stroke-miterlimit="10"
   x1="192"
   y1="0"
   x2="192"
   y2="512"
   id="line46"
   style="fill:none;stroke:#a9ccdb;stroke-miterlimit:10" />
		<line
   stroke-miterlimit="10"
   x1="224"
   y1="0"
   x2="224"
   y2="512"
   id="line48"
   style="fill:none;stroke:#a9ccdb;stroke-miterlimit:10" />
		<line
   stroke-miterlimit="10"
   x1="256"
   y1="0"
   x2="256"
   y2="512"
   id="line50"
   style="fill:none;stroke:#a9ccdb;stroke-miterlimit:10" />
		<line
   stroke-miterlimit="10"
   x1="288"
   y1="0"
   x2="288"
   y2="512"
   id="line52"
   style="fill:none;stroke:#a9ccdb;stroke-miterlimit:10" />
		<line
   stroke-miterlimit="10"
   x1="320"
   y1="0"
   x2="320"
   y2="512"
   id="line54"
   style="fill:none;stroke:#a9ccdb;stroke-miterlimit:10" />
		<line
   stroke-miterlimit="10"
   x1="352"
   y1="0"
   x2="352"
   y2="512"
   id="line56"
   style="fill:none;stroke:#a9ccdb;stroke-miterlimit:10" />
		<line
   stroke-miterlimit="10"
   x1="384"
   y1="0"
   x2="384"
   y2="512"
   id="line58"
   style="fill:none;stroke:#a9ccdb;stroke-miterlimit:10" />
		<line
   stroke-miterlimit="10"
   x1="416"
   y1="0"
   x2="416"
   y2="512"
   id="line60"
   style="fill:none;stroke:#a9ccdb;stroke-miterlimit:10" />
		<line
   stroke-miterlimit="10"
   x1="448"
   y1="0"
   x2="448"
   y2="512"
   id="line62"
   style="fill:none;stroke:#a9ccdb;stroke-miterlimit:10" />
		<line
   stroke-miterlimit="10"
   x1="480"
   y1="0"
   x2="480"
   y2="512"
   id="line64"
   style="fill:none;stroke:#a9ccdb;stroke-miterlimit:10" />
	</g>
	

	
<path
   style="fill:#6c5946"
   d="m 97.531494,766.32069 c 4.951166,22.10369 13.736376,41.56403 28.848426,54.4609 6.08168,5.19021 13.18804,9.31741 21.48155,12.12611 15.36886,5.11583 32.90275,5.66206 49.92469,5.46499 20.46197,-4.52017 32.54396,-13.75303 39.73228,-25.89817 7.52011,-12.70573 9.68437,-28.5988 10.48446,-45.61781 2.11525,-34.0896 10.26113,-95.4191 5.71266,-128.57972 -2.92944,-21.35708 -18.19166,-39.69512 0.20419,-38.0187 4.9806,3.65712 27.1667,10.57551 32.04632,14.45996 24.65172,24.31661 28.44558,67.39099 40.27029,101.88578 8.01725,37.82557 20.88014,67.9152 46.20996,91.66358 19.37833,17.18978 43.16932,39.14593 67.3862,35.40606 27.29062,-9.08095 53.25677,-22.27337 53.65236,-52.45795 -0.0218,-9.61912 -8.4885,-23.41089 -8.38114,-34.57761 -9.45153,-40.95464 -18.73849,-75.51793 -61.37882,-106.48689 -13.19817,-9.58562 -19.45384,-27.53492 -23.06398,-37.24386 -7.24694,-19.48958 -9.38084,-37.06904 -30.06491,-44.0722 -14.9527,-4.43819 -17.93738,-5.96957 -36.18838,-14.4125 -6.303,-5.68007 -36.28596,-15.43843 -47.82495,-19.43523 -11.12155,-3.85222 -19.97514,-9.68492 -21.85858,-13.52253 -2.15764,-32.34399 -2.82501,-67.52143 1.08997,-98.31502 0.10121,-1.19817 13.09388,-14.07422 27.76067,-8.20918 24.52576,16.20226 44.84442,34.25099 64.63138,52.22781 26.75566,24.30801 48.37861,25.60157 82.27683,44.90375 39.85859,21.56842 72.79442,33.77848 90.39639,46.86675 38.58689,23.24127 31.63961,12.68108 80.94196,31.82258 29.29104,11.37216 72.1937,10.5892 80.32588,32.23938 6.27815,17.73038 17.82053,59.40785 20.32333,78.70222 1.63546,29.55985 13.28025,58.78184 29.31825,79.60799 15.40913,18.34881 32.9282,18.97673 47.09624,23.93617 10.3526,3.0499 12.658,4.75158 22.6064,4.32296 11.68761,-2.36449 23.26043,-8.32248 33.06403,-16.3195 10.82585,-8.8309 19.4943,-20.14824 23.77753,-31.85884 4.14123,-11.7037 5.8642,-24.59745 6.63355,-37.73984 0.59248,-11.22401 -0.56293,-22.16691 -3.55524,-36.81157 -1.51056,-27.81769 -42.04044,-90.07063 -58.07772,-108.71422 -13.40343,-13.23074 -21.99628,-29.54705 -35.46602,-40.66442 -11.6952,-9.57273 -38.42266,-18.52698 -49.50305,-29.58022 -32.04681,-23.46392 -40.97903,-47.40416 -82.51954,-63.73053 -44.66384,-26.12899 -84.38191,-43.57795 -131.43488,-63.40769 -45.56804,-7.92936 -76.842,-19.62791 -120.90918,-34.93963 -17.42994,-6.11778 -33.99436,-13.44362 -49.0345,-24.9941 -12.58734,-9.73469 -24.21127,-20.52183 -34.73254,-32.1097 -12.69386,-14.05591 -23.67729,-28.1656 -32.09682,-38.52885 -2.08917,-2.36327 -14.5619,-12.48163 -20.29035,-18.85702 -10.16454,-1.8269 -87.55115,-3.84271 -94.21669,0.23658 -2.38377,1.5875 -2.69182,2.81822 -4.6182,5.37967 -4.46609,21.0868 -7.75149,58.0167 -7.75149,58.0167 0.50045,-20.99978 -3.64248,41.74868 -6.51046,65.48394 -19.0944,92.64803 -6.65959,181.33946 -2.87365,264.20819 -2.63124,6.92339 -4.87721,14.57855 -7.62985,22.02178 -3.16548,8.4699 -4.40631,7.39793 -6.79325,12.13038 -20.06774,26.46796 -17.15497,41.87771 -25.42006,62.02657 -7.237435,17.97931 -7.907773,27.89731 -4.001546,45.5027 z"
   id="path3762"
   inkscape:connector-curvature="0"
   sodipodi:nodetypes="csccscscccccccssccscccsccscccccscccccccccccccccscccccc" /></svg>