<?xml version="1.0" encoding="UTF-8" standalone="no"?>
<svg
   xmlns:dc="http://purl.org/dc/elements/1.1/"
   xmlns:cc="http://creativecommons.org/ns#"
   xmlns:rdf="http://www.w3.org/1999/02/22-rdf-syntax-ns#"
   xmlns:svg="http://www.w3.org/2000/svg"
   xmlns="http://www.w3.org/2000/svg"
   xmlns:sodipodi="http://sodipodi.sourceforge.net/DTD/sodipodi-0.dtd"
   xmlns:inkscape="http://www.inkscape.org/namespaces/inkscape"
   version="1.1"
   id="Layer_1"
   x="0px"
   y="0px"
   width="1024"
   height="1024"
   viewBox="0 0 1024 1024"
   enable-background="new 0 0 512 512"
   xml:space="preserve"
   inkscape:version="0.48.0 r9654"
   sodipodi:docname="shinhebrew-x5e9.svg"><title
   id="title3743">Sinai 357</title><metadata
   id="metadata72"><rdf:RDF><cc:Work
       rdf:about=""><dc:format>image/svg+xml</dc:format><dc:type
         rdf:resource="http://purl.org/dc/dcmitype/StillImage" /><dc:title>Sinai 357</dc:title><dc:date>2017</dc:date><dc:creator><cc:Agent><dc:title>Celeste Claire Horner</dc:title></cc:Agent></dc:creator><dc:publisher><cc:Agent><dc:title>beitdina.net</dc:title></cc:Agent></dc:publisher></cc:Work></rdf:RDF></metadata><defs
   id="defs70" /><sodipodi:namedview
   pagecolor="#ffffff"
   bordercolor="#666666"
   borderopacity="1"
   objecttolerance="10"
   gridtolerance="10"
   guidetolerance="10"
   inkscape:pageopacity="0"
   inkscape:pageshadow="2"
   inkscape:window-width="1152"
   inkscape:window-height="814"
   id="namedview68"
   showgrid="false"
   inkscape:zoom="0.22533119"
   inkscape:cx="-914.7383"
   inkscape:cy="1052.4352"
   inkscape:window-x="-8"
   inkscape:window-y="-8"
   inkscape:window-maximized="1"
   inkscape:current-layer="Layer_1" />
   
	<g
   id="Grid"
   transform="matrix(2.0004581,0,0,2.0004578,0.50019527,4.813853)">
		<rect
   x="0"
   stroke-miterlimit="10"
   width="512"
   height="512"
   id="rect4"
   y="0"
   style="fill:none;stroke:#a9ccdb;stroke-miterlimit:10" />
		<line
   stroke-miterlimit="10"
   x1="0"
   y1="32"
   x2="512"
   y2="32"
   id="line6"
   style="fill:none;stroke:#a9ccdb;stroke-miterlimit:10" />
		<line
   stroke-miterlimit="10"
   x1="0"
   y1="64"
   x2="512"
   y2="64"
   id="line8"
   style="fill:none;stroke:#a9ccdb;stroke-miterlimit:10" />
		<line
   stroke-miterlimit="10"
   x1="0"
   y1="96"
   x2="512"
   y2="96"
   id="line10"
   style="fill:none;stroke:#a9ccdb;stroke-miterlimit:10" />
		<line
   stroke-miterlimit="10"
   x1="0"
   y1="128"
   x2="512"
   y2="128"
   id="line12"
   style="fill:none;stroke:#a9ccdb;stroke-miterlimit:10" />
		<line
   stroke-miterlimit="10"
   x1="0"
   y1="160"
   x2="512"
   y2="160"
   id="line14"
   style="fill:none;stroke:#a9ccdb;stroke-miterlimit:10" />
		<line
   stroke-miterlimit="10"
   x1="0"
   y1="192"
   x2="512"
   y2="192"
   id="line16"
   style="fill:none;stroke:#a9ccdb;stroke-miterlimit:10" />
		<line
   stroke-miterlimit="10"
   x1="0"
   y1="224"
   x2="512"
   y2="224"
   id="line18"
   style="fill:none;stroke:#a9ccdb;stroke-miterlimit:10" />
		<line
   stroke-miterlimit="10"
   x1="0"
   y1="256"
   x2="512"
   y2="256"
   id="line20"
   style="fill:none;stroke:#a9ccdb;stroke-miterlimit:10" />
		<line
   stroke-miterlimit="10"
   x1="0"
   y1="288"
   x2="512"
   y2="288"
   id="line22"
   style="fill:none;stroke:#a9ccdb;stroke-miterlimit:10" />
		<line
   stroke-miterlimit="10"
   x1="0"
   y1="320"
   x2="512"
   y2="320"
   id="line24"
   style="fill:none;stroke:#a9ccdb;stroke-miterlimit:10" />
		<line
   stroke-miterlimit="10"
   x1="0"
   y1="352"
   x2="512"
   y2="352"
   id="line26"
   style="fill:none;stroke:#a9ccdb;stroke-miterlimit:10" />
		<line
   stroke-miterlimit="10"
   x1="0"
   y1="384"
   x2="512"
   y2="384"
   id="line28"
   style="fill:none;stroke:#a9ccdb;stroke-miterlimit:10" />
		<line
   stroke-miterlimit="10"
   x1="0"
   y1="416"
   x2="512"
   y2="416"
   id="line30"
   style="fill:none;stroke:#a9ccdb;stroke-miterlimit:10" />
		<line
   stroke-miterlimit="10"
   x1="0"
   y1="448"
   x2="512"
   y2="448"
   id="line32"
   style="fill:none;stroke:#ff0000;stroke-miterlimit:10" />
		<line
   stroke-miterlimit="10"
   x1="0"
   y1="480"
   x2="512"
   y2="480"
   id="line34"
   style="fill:none;stroke:#a9ccdb;stroke-miterlimit:10" />
		<line
   stroke-miterlimit="10"
   x1="32"
   y1="0"
   x2="32"
   y2="512"
   id="line36"
   style="fill:none;stroke:#a9ccdb;stroke-miterlimit:10" />
		<line
   stroke-miterlimit="10"
   x1="64"
   y1="0"
   x2="64"
   y2="512"
   id="line38"
   style="fill:none;stroke:#a9ccdb;stroke-miterlimit:10" />
		<line
   stroke-miterlimit="10"
   x1="96"
   y1="0"
   x2="96"
   y2="512"
   id="line40"
   style="fill:none;stroke:#a9ccdb;stroke-miterlimit:10" />
		<line
   stroke-miterlimit="10"
   x1="128"
   y1="0"
   x2="128"
   y2="512"
   id="line42"
   style="fill:none;stroke:#a9ccdb;stroke-miterlimit:10" />
		<line
   stroke-miterlimit="10"
   x1="160"
   y1="0"
   x2="160"
   y2="512"
   id="line44"
   style="fill:none;stroke:#a9ccdb;stroke-miterlimit:10" />
		<line
   stroke-miterlimit="10"
   x1="192"
   y1="0"
   x2="192"
   y2="512"
   id="line46"
   style="fill:none;stroke:#a9ccdb;stroke-miterlimit:10" />
		<line
   stroke-miterlimit="10"
   x1="224"
   y1="0"
   x2="224"
   y2="512"
   id="line48"
   style="fill:none;stroke:#a9ccdb;stroke-miterlimit:10" />
		<line
   stroke-miterlimit="10"
   x1="256"
   y1="0"
   x2="256"
   y2="512"
   id="line50"
   style="fill:none;stroke:#a9ccdb;stroke-miterlimit:10" />
		<line
   stroke-miterlimit="10"
   x1="288"
   y1="0"
   x2="288"
   y2="512"
   id="line52"
   style="fill:none;stroke:#a9ccdb;stroke-miterlimit:10" />
		<line
   stroke-miterlimit="10"
   x1="320"
   y1="0"
   x2="320"
   y2="512"
   id="line54"
   style="fill:none;stroke:#a9ccdb;stroke-miterlimit:10" />
		<line
   stroke-miterlimit="10"
   x1="352"
   y1="0"
   x2="352"
   y2="512"
   id="line56"
   style="fill:none;stroke:#a9ccdb;stroke-miterlimit:10" />
		<line
   stroke-miterlimit="10"
   x1="384"
   y1="0"
   x2="384"
   y2="512"
   id="line58"
   style="fill:none;stroke:#a9ccdb;stroke-miterlimit:10" />
		<line
   stroke-miterlimit="10"
   x1="416"
   y1="0"
   x2="416"
   y2="512"
   id="line60"
   style="fill:none;stroke:#a9ccdb;stroke-miterlimit:10" />
		<line
   stroke-miterlimit="10"
   x1="448"
   y1="0"
   x2="448"
   y2="512"
   id="line62"
   style="fill:none;stroke:#a9ccdb;stroke-miterlimit:10" />
		<line
   stroke-miterlimit="10"
   x1="480"
   y1="0"
   x2="480"
   y2="512"
   id="line64"
   style="fill:none;stroke:#a9ccdb;stroke-miterlimit:10" />
	</g>
	

	
<path
   style="fill:#6c5946"
   d="m 68.407698,766.09029 c 4.951163,22.10369 13.736379,41.56403 28.848426,54.4609 6.081676,5.19021 13.188036,9.31741 21.481546,12.12611 15.36886,5.11583 32.90275,5.66206 49.92469,5.46499 15.92818,-1.68573 31.94714,-13.31224 44.07287,-28.47831 20.71852,-27.64907 11.88177,-67.67846 11.46711,-98.26927 0.71054,-25.27502 14.93342,-50.90015 15.97266,-74.19514 -1.0947,-18.38207 1.43308,-15.57275 2.30688,-35.02433 5.3991,-21.40831 10.96558,-11.82206 17.67868,-8.38816 4.9806,3.65712 27.1667,10.57551 32.04632,14.45996 24.65172,24.31661 30.52585,61.15018 42.35056,95.64497 8.01725,37.82557 20.88014,67.9152 46.20996,91.66358 4.05605,3.80282 8.43177,7.44303 13.15845,10.92638 2.78747,4.50063 7.34175,9.94533 12.2127,14.67694 8.54469,4.75516 37.25895,11.12367 42.01505,9.80274 27.29062,-9.08095 53.25677,-22.27337 53.65236,-52.45795 -0.0218,-9.61912 -4.32796,-17.17008 -4.2206,-28.3368 -9.45153,-40.95464 -33.30038,-79.67847 -75.94071,-110.64743 -13.19817,-9.58562 -19.45384,-27.53492 -23.06398,-37.24386 -7.24694,-19.48958 -9.38084,-37.06904 -30.06491,-44.0722 -14.9527,-4.43819 -17.93738,-5.96957 -36.18838,-14.4125 -6.303,-5.68007 -27.96488,-11.27789 -39.50387,-15.27469 -11.12155,-3.85222 -19.97514,-9.68492 -21.85858,-13.52253 -2.15764,-32.34399 3.41581,-61.28062 7.33079,-92.07421 0.10121,-1.19817 21.41496,-14.07422 36.08175,-8.20918 19.10788,4.94842 37.52815,11.57501 55.30387,19.43176 41.43281,18.31302 88.77814,65.27592 123.75313,91.28222 41.61467,50.31388 95.76198,62.13774 117.58215,120.22928 6.27815,17.73038 9.49945,36.52487 12.00225,55.81924 1.63546,29.55985 13.28025,58.78184 29.31825,79.60799 15.40913,18.34881 30.84793,39.77944 45.01597,44.73888 10.3526,3.0499 12.658,4.75158 22.6064,4.32296 11.68761,-2.36449 23.26043,-8.32248 33.06403,-16.3195 10.82585,-8.8309 19.4943,-20.14824 23.77753,-31.85884 4.14123,-11.7037 5.8642,-24.59745 6.63355,-37.73984 0.59248,-11.22401 -0.56293,-22.16691 -3.55524,-36.81157 -1.51056,-27.81769 -17.07719,-48.4652 -33.11447,-67.10879 -13.40343,-13.23074 -21.99628,-29.54705 -35.46602,-40.66442 -11.6952,-9.57273 -38.42266,-18.52698 -49.50305,-29.58022 -78.15561,-57.2237 -164.90005,-140.48966 -242.31203,-192.84119 -21.40753,-14.4773 -38.2136,-24.86086 -59.9066,-28.98954 -21.26209,2.22913 -46.25562,0.18249 -46.69977,-2.73207 -8.29148,1.23621 -24.48735,-4.63164 -29.78973,-11.13746 -15.23473,-17.96701 -19.48041,-41.79047 -33.16011,-58.11097 -2.08917,-2.36327 -3.43523,-5.29153 -5.72845,-6.37539 -10.16454,-1.8269 -36.95871,-3.10661 -43.62425,0.97268 -2.38377,1.5875 -2.69182,2.81822 -4.6182,5.37967 -4.46609,21.0868 -5.81659,39.15343 -7.75149,58.0167 -2.14342,20.8961 -3.64248,41.74868 -6.51046,65.48394 -19.0944,92.64803 -31.62284,158.45648 -59.04097,241.32521 -2.5805,7.57879 -5.59076,14.9903 -9.22242,22.1906 -20.067736,26.46796 -32.757005,37.1971 -41.022095,57.34596 -7.237436,17.97931 -7.907774,27.89731 -4.001547,45.5027 z"
   id="path3762"
   inkscape:connector-curvature="0"
   sodipodi:nodetypes="cscccccccccscccccssccscccsccccccsccccccscccccccsccccc" /></svg>