<?xml version="1.0" encoding="UTF-8" standalone="no"?>
<svg
   xmlns:dc="http://purl.org/dc/elements/1.1/"
   xmlns:cc="http://creativecommons.org/ns#"
   xmlns:rdf="http://www.w3.org/1999/02/22-rdf-syntax-ns#"
   xmlns:svg="http://www.w3.org/2000/svg"
   xmlns="http://www.w3.org/2000/svg"
   xmlns:sodipodi="http://sodipodi.sourceforge.net/DTD/sodipodi-0.dtd"
   xmlns:inkscape="http://www.inkscape.org/namespaces/inkscape"
   version="1.1"
   id="Layer_1"
   x="0px"
   y="0px"
   width="1066.6666"
   height="1092.2667"
   viewBox="0 0 1000 1024"
   enable-background="new 0 0 512 512"
   xml:space="preserve"
   inkscape:version="0.92.1 r15371"
   sodipodi:docname="tavhebrew-x5ea.svg"><title
   id="title3743">Sinai 357</title><metadata
   id="metadata72"><rdf:RDF><cc:Work
       rdf:about=""><dc:format>image/svg+xml</dc:format><dc:type
         rdf:resource="http://purl.org/dc/dcmitype/StillImage" /><dc:title>Sinai 357</dc:title><dc:date>2017</dc:date><dc:creator><cc:Agent><dc:title>Celeste Claire Horner</dc:title></cc:Agent></dc:creator><dc:publisher><cc:Agent><dc:title>beitdina.net</dc:title></cc:Agent></dc:publisher></cc:Work></rdf:RDF></metadata><defs
   id="defs70" /><sodipodi:namedview
   pagecolor="#ffffff"
   bordercolor="#666666"
   borderopacity="1"
   objecttolerance="10"
   gridtolerance="10"
   guidetolerance="10"
   inkscape:pageopacity="0"
   inkscape:pageshadow="2"
   inkscape:window-width="1152"
   inkscape:window-height="814"
   id="namedview68"
   showgrid="false"
   inkscape:zoom="0.25488282"
   inkscape:cx="556.04322"
   inkscape:cy="582.72249"
   inkscape:window-x="-8"
   inkscape:window-y="-8"
   inkscape:window-maximized="1"
   inkscape:current-layer="Layer_1" />
   
	<g
   id="Grid"
   transform="matrix(1.9524943,0,0,2.0181509,2.4516249,-0.31695871)">
		<rect
   x="0"
   stroke-miterlimit="10"
   width="512"
   height="512"
   id="rect4"
   y="0"
   style="fill:none;stroke:#a9ccdb;stroke-miterlimit:10" />
		<line
   stroke-miterlimit="10"
   x1="0"
   y1="32"
   x2="512"
   y2="32"
   id="line6"
   style="fill:none;stroke:#a9ccdb;stroke-miterlimit:10" />
		<line
   stroke-miterlimit="10"
   x1="0"
   y1="64"
   x2="512"
   y2="64"
   id="line8"
   style="fill:none;stroke:#a9ccdb;stroke-miterlimit:10" />
		<line
   stroke-miterlimit="10"
   x1="0"
   y1="96"
   x2="512"
   y2="96"
   id="line10"
   style="fill:none;stroke:#a9ccdb;stroke-miterlimit:10" />
		<line
   stroke-miterlimit="10"
   x1="0"
   y1="128"
   x2="512"
   y2="128"
   id="line12"
   style="fill:none;stroke:#a9ccdb;stroke-miterlimit:10" />
		<line
   stroke-miterlimit="10"
   x1="0"
   y1="160"
   x2="512"
   y2="160"
   id="line14"
   style="fill:none;stroke:#a9ccdb;stroke-miterlimit:10" />
		<line
   stroke-miterlimit="10"
   x1="0"
   y1="192"
   x2="512"
   y2="192"
   id="line16"
   style="fill:none;stroke:#a9ccdb;stroke-miterlimit:10" />
		<line
   stroke-miterlimit="10"
   x1="0"
   y1="224"
   x2="512"
   y2="224"
   id="line18"
   style="fill:none;stroke:#a9ccdb;stroke-miterlimit:10" />
		<line
   stroke-miterlimit="10"
   x1="0"
   y1="256"
   x2="512"
   y2="256"
   id="line20"
   style="fill:none;stroke:#a9ccdb;stroke-miterlimit:10" />
		<line
   stroke-miterlimit="10"
   x1="0"
   y1="288"
   x2="512"
   y2="288"
   id="line22"
   style="fill:none;stroke:#a9ccdb;stroke-miterlimit:10" />
		<line
   stroke-miterlimit="10"
   x1="0"
   y1="320"
   x2="512"
   y2="320"
   id="line24"
   style="fill:none;stroke:#a9ccdb;stroke-miterlimit:10" />
		<line
   stroke-miterlimit="10"
   x1="0"
   y1="352"
   x2="512"
   y2="352"
   id="line26"
   style="fill:none;stroke:#a9ccdb;stroke-miterlimit:10" />
		<line
   stroke-miterlimit="10"
   x1="0"
   y1="384"
   x2="512"
   y2="384"
   id="line28"
   style="fill:none;stroke:#a9ccdb;stroke-miterlimit:10" />
		<line
   stroke-miterlimit="10"
   x1="0"
   y1="416"
   x2="512"
   y2="416"
   id="line30"
   style="fill:none;stroke:#a9ccdb;stroke-miterlimit:10" />
		<line
   stroke-miterlimit="10"
   x1="0"
   y1="448"
   x2="512"
   y2="448"
   id="line32"
   style="fill:none;stroke:#ff0000;stroke-miterlimit:10" />
		<line
   stroke-miterlimit="10"
   x1="0"
   y1="480"
   x2="512"
   y2="480"
   id="line34"
   style="fill:none;stroke:#a9ccdb;stroke-miterlimit:10" />
		<line
   stroke-miterlimit="10"
   x1="32"
   y1="0"
   x2="32"
   y2="512"
   id="line36"
   style="fill:none;stroke:#a9ccdb;stroke-miterlimit:10" />
		<line
   stroke-miterlimit="10"
   x1="64"
   y1="0"
   x2="64"
   y2="512"
   id="line38"
   style="fill:none;stroke:#a9ccdb;stroke-miterlimit:10" />
		<line
   stroke-miterlimit="10"
   x1="96"
   y1="0"
   x2="96"
   y2="512"
   id="line40"
   style="fill:none;stroke:#a9ccdb;stroke-miterlimit:10" />
		<line
   stroke-miterlimit="10"
   x1="128"
   y1="0"
   x2="128"
   y2="512"
   id="line42"
   style="fill:none;stroke:#a9ccdb;stroke-miterlimit:10" />
		<line
   stroke-miterlimit="10"
   x1="160"
   y1="0"
   x2="160"
   y2="512"
   id="line44"
   style="fill:none;stroke:#a9ccdb;stroke-miterlimit:10" />
		<line
   stroke-miterlimit="10"
   x1="192"
   y1="0"
   x2="192"
   y2="512"
   id="line46"
   style="fill:none;stroke:#a9ccdb;stroke-miterlimit:10" />
		<line
   stroke-miterlimit="10"
   x1="224"
   y1="0"
   x2="224"
   y2="512"
   id="line48"
   style="fill:none;stroke:#a9ccdb;stroke-miterlimit:10" />
		<line
   stroke-miterlimit="10"
   x1="256"
   y1="0"
   x2="256"
   y2="512"
   id="line50"
   style="fill:none;stroke:#a9ccdb;stroke-miterlimit:10" />
		<line
   stroke-miterlimit="10"
   x1="288"
   y1="0"
   x2="288"
   y2="512"
   id="line52"
   style="fill:none;stroke:#a9ccdb;stroke-miterlimit:10" />
		<line
   stroke-miterlimit="10"
   x1="320"
   y1="0"
   x2="320"
   y2="512"
   id="line54"
   style="fill:none;stroke:#a9ccdb;stroke-miterlimit:10" />
		<line
   stroke-miterlimit="10"
   x1="352"
   y1="0"
   x2="352"
   y2="512"
   id="line56"
   style="fill:none;stroke:#a9ccdb;stroke-miterlimit:10" />
		<line
   stroke-miterlimit="10"
   x1="384"
   y1="0"
   x2="384"
   y2="512"
   id="line58"
   style="fill:none;stroke:#a9ccdb;stroke-miterlimit:10" />
		<line
   stroke-miterlimit="10"
   x1="416"
   y1="0"
   x2="416"
   y2="512"
   id="line60"
   style="fill:none;stroke:#a9ccdb;stroke-miterlimit:10" />
		<line
   stroke-miterlimit="10"
   x1="448"
   y1="0"
   x2="448"
   y2="512"
   id="line62"
   style="fill:none;stroke:#a9ccdb;stroke-miterlimit:10" />
		<line
   stroke-miterlimit="10"
   x1="480"
   y1="0"
   x2="480"
   y2="512"
   id="line64"
   style="fill:none;stroke:#a9ccdb;stroke-miterlimit:10" />
	</g>

<path
   style="fill:#800000;fill-opacity:0.6197183;stroke-width:0.9762339"
   d="m 220.01013,354.07793 c 3.60937,12.42971 10.86403,30.51325 9.41044,66.88944 0.2718,41.86416 -16.4744,44.99674 -19.25842,83.39016 -8.84606,12.87278 2.29511,78.89602 -1.48817,94.2508 -7.09419,13.8164 -0.6014,27.51198 1.93898,41.25619 3.26994,17.40716 9.42272,32.99632 7.59023,55.77157 -2.26968,24.35605 -50.5368,54.58235 -58.31839,77.03989 -5.346,14.58063 -5.79427,15.18588 -8.37507,26.03199 -1.96141,8.24282 -1.48349,12.8615 0.0617,18.0563 0.7921,2.66288 1.86476,5.47712 3.03307,9.00848 8.94036,29.07061 1.03779,13.15918 12.38592,37.40864 0.98429,2.13843 1.689,4.34253 1.93965,6.88341 2.3945,9.40824 13.03004,15.2787 19.4902,18.17125 14.03521,6.2843 17.1277,8.734 39.68256,12.1213 15.83897,2.16227 70.30704,0.37359 78.58219,-11.14033 16.13804,-25.25224 23.27376,-35.40592 24.25603,-55.06124 4.49219,-10.81057 10.10522,-21.00492 17.75683,-28.6856 7.66364,-7.69275 14.70486,-10.07997 27.38059,-10.82315 6.58367,3.65781 16.19638,4.05527 23.41033,6.82002 19.15323,5.42271 80.49682,60.15004 102.06325,63.89555 56.72213,9.85112 118.1662,10.52519 165.2654,-15.7367 5.88826,-3.28321 20.74773,-27.21732 26.15035,-31.37726 20.19945,-19.92292 10.26592,-55.48809 23.8037,-78.20063 13.22115,-20.32494 1.14228,-41.7696 11.65206,-61.79822 7.35426,-14.01517 13.67072,-27.97375 18.4259,-41.89802 1.79839,-6.2882 12.05648,-29.54404 13.49475,-34.89251 22.07093,-82.07454 6.6877,-51.58226 18.47124,-77.05123 20.18654,-44.07077 20.62931,-70.4738 20.62931,-106.3456 0.49952,-32.55335 9.29078,-50.32203 9.29078,-82.80307 2.36734,-17.07358 -3.62433,-29.32695 -5.29444,-41.92125 -7.58703,-6.05517 -11.71008,-11.21149 -17.57641,-16.26743 -2.53774,-2.18717 -5.40169,-4.35555 -9.0134,-6.56978 0.14739,-3.04366 -7.34727,-5.19718 -11.24778,-6.73143 -10.53351,-4.14332 -27.58905,-3.77037 -45.16781,-4.21602 -6.62032,0.43896 -43.17678,5.23553 -47.64479,7.98081 -12.75006,7.83402 -13.96782,31.70672 -8.53637,49.68776 2.98606,9.88548 17.7035,9.69968 18.00756,18.52691 0.20567,5.97114 1.22175,-6.19643 1.47641,-1.08245 1.56781,4.33325 -2.19298,24.00078 -5.33354,37.7912 -3.75733,10.71496 -4.21641,22.80626 -4.36768,32.91534 -0.19109,13.49476 -13.59636,42.67022 -13.22017,52.60706 0.6857,15.57744 -1.18091,32.37138 -2.40388,44.50532 -1.91175,8.62926 -3.71716,9.62777 -2.22104,17.57739 2.6148,13.97488 1.94543,19.63737 -8.52372,25.61081 -13.89979,7.93089 -11.6547,8.73379 -16.93386,29.23296 -0.5565,1.32798 -1.1312,2.71354 -1.71245,4.12598 -1.67581,4.0723 -3.40621,8.36808 -4.91316,12.15174 -1.28011,3.21412 -2.39899,6.05871 -3.18621,8.08289 -1.0675,2.78284 -3.45633,10.38231 -4.61301,13.5255 -13.3859,24.1569 18.95492,89.25379 -5.85121,104.55781 -8.82206,2.06602 -25.42429,9.87621 -40.56301,6.61404 -14.19884,-6.46292 -28.52078,-13.22645 -42.64421,-20.09604 -19.6988,-9.58144 -39.01142,-19.36921 -57.06513,-28.83544 -15.75354,-8.14829 -30.70549,-13.41936 -42.8216,-8.5166 -13.51616,6.29392 -55.27165,22.67235 -62.80317,19.84667 -6.59251,-2.52615 -11.82027,-5.71247 -14.91542,-9.92515 -7.70798,-16.49611 -4.62775,-22.49192 -5.51632,-33.99331 0.60133,-20.97419 2.32801,-40.01157 1.04169,-60.92203 10.15862,-15.86172 5.82417,-88.34519 13.47679,-105.63241 9.29907,-21.00655 21.87171,-42.34887 26.53528,-62.28533 -0.26348,-15.08111 3.88458,-39.73907 4.70913,-55.16703 2.3031,-43.09267 34.03977,-82.3655 26.42611,-120.85133 -2.52177,-2.38654 -0.47285,-22.2339 -3.04571,-24.59398 -14.15085,-13.21089 -10.7213,-4.14445 -15.52232,-11.41145 -3.09337,-4.68227 -5.28884,-5.89608 -13.97833,-12.85797 -8.099,-6.47336 -15.34053,-13.36462 -21.33822,-20.68083 -8.12045,-10.8637 -33.86424,-4.65833 -42.91267,-7.36932 -14.76919,-4.42499 -18.73197,4.7602 -40.34816,7.48727 -19.61361,2.64719 -42.05463,-0.89406 -58.26624,8.58592 -3.58467,2.25037 -6.91706,5.28344 -9.96137,9.54614 -10.87089,15.25372 -29.47409,49.85055 -22.2151,69.13023 -1.59854,15.54281 -9.47282,35.0331 -5.60408,48.76401 -1.66058,11.00592 9.173,22.15702 22.85108,25.7833 7.89081,1.73253 12.00475,15.73544 14.03253,24.10809 z"
   id="path3789-6"
   inkscape:connector-curvature="0"
   sodipodi:nodetypes="cccccccsscccscccsccssccscsccccscscsssccccccscssccccsccccccscsccsccsccccccc" /></svg>