<?xml version="1.0" encoding="UTF-8" standalone="no"?>
<svg
   xmlns:dc="http://purl.org/dc/elements/1.1/"
   xmlns:cc="http://creativecommons.org/ns#"
   xmlns:rdf="http://www.w3.org/1999/02/22-rdf-syntax-ns#"
   xmlns:svg="http://www.w3.org/2000/svg"
   xmlns="http://www.w3.org/2000/svg"
   xmlns:sodipodi="http://sodipodi.sourceforge.net/DTD/sodipodi-0.dtd"
   xmlns:inkscape="http://www.inkscape.org/namespaces/inkscape"
   version="1.1"
   id="Layer_1"
   x="0px"
   y="0px"
   width="1236.2667"
   height="1236.2667"
   viewBox="0 0 1159 1159"
   enable-background="new 0 0 512 512"
   xml:space="preserve"
   inkscape:version="0.92.1 r15371"
   sodipodi:docname="yodhebrew-x5d9.svg"
   inkscape:export-filename="C:\Fonts\Proto-Sianitic\S2450776_Sianitic.png"
   inkscape:export-xdpi="90"
   inkscape:export-ydpi="90"><title
   id="title3743">Sinai 245/776</title><metadata
   id="metadata72"><rdf:RDF><cc:Work
       rdf:about=""><dc:format>image/svg+xml</dc:format><dc:type
         rdf:resource="http://purl.org/dc/dcmitype/StillImage" /><dc:title>Sinai 245/776</dc:title><dc:date>2021</dc:date><dc:creator><cc:Agent><dc:title>InkScape</dc:title></cc:Agent></dc:creator><dc:publisher><cc:Agent><dc:title>beitdina.net</dc:title></cc:Agent></dc:publisher><cc:license
         rdf:resource="http://scripts.sil.org/OFL" /></cc:Work><cc:License
       rdf:about="http://scripts.sil.org/OFL"><cc:permits
         rdf:resource="http://scripts.sil.org/pub/OFL/Reproduction" /><cc:permits
         rdf:resource="http://scripts.sil.org/pub/OFL/Distribution" /><cc:permits
         rdf:resource="http://scripts.sil.org/pub/OFL/Embedding" /><cc:permits
         rdf:resource="http://scripts.sil.org/pub/OFL/DerivativeWorks" /><cc:requires
         rdf:resource="http://scripts.sil.org/pub/OFL/Notice" /><cc:requires
         rdf:resource="http://scripts.sil.org/pub/OFL/Attribution" /><cc:requires
         rdf:resource="http://scripts.sil.org/pub/OFL/ShareAlike" /><cc:requires
         rdf:resource="http://scripts.sil.org/pub/OFL/DerivativeRenaming" /><cc:requires
         rdf:resource="http://scripts.sil.org/pub/OFL/BundlingWhenSelling" /></cc:License></rdf:RDF></metadata><defs
   id="defs70"><linearGradient
     id="linearGradient4617"><stop
       style="stop-color:#030303;stop-opacity:1;"
       offset="0"
       id="stop4619" /><stop
       style="stop-color:#030303;stop-opacity:0;"
       offset="1"
       id="stop4621" /></linearGradient><linearGradient
     id="linearGradient4587"><stop
       style="stop-color:#ee9751;stop-opacity:1;"
       offset="0"
       id="stop4589" /><stop
       style="stop-color:#ee9751;stop-opacity:0;"
       offset="1"
       id="stop4591" /></linearGradient></defs><sodipodi:namedview
   pagecolor="#ffffff"
   bordercolor="#666666"
   borderopacity="1"
   objecttolerance="10"
   gridtolerance="10"
   guidetolerance="10"
   inkscape:pageopacity="0"
   inkscape:pageshadow="2"
   inkscape:window-width="1152"
   inkscape:window-height="814"
   id="namedview68"
   showgrid="false"
   inkscape:zoom="0.23085024"
   inkscape:cx="-1186.4722"
   inkscape:cy="239.40306"
   inkscape:window-x="-8"
   inkscape:window-y="-8"
   inkscape:window-maximized="1"
   inkscape:current-layer="g917"
   inkscape:snap-intersection-paths="true" />
   
	<g
   id="Grid"
   transform="matrix(2.2469488,0,0,2.2533508,-1.4161501,12.931703)">
		<rect
   x="0"
   stroke-miterlimit="10"
   width="512"
   height="512"
   id="rect4"
   y="0"
   style="fill:none;stroke:#a9ccdb;stroke-miterlimit:10" />
		<line
   stroke-miterlimit="10"
   x1="0"
   y1="32"
   x2="512"
   y2="32"
   id="line6"
   style="fill:none;stroke:#a9ccdb;stroke-miterlimit:10" />
		<line
   stroke-miterlimit="10"
   x1="0"
   y1="64"
   x2="512"
   y2="64"
   id="line8"
   style="fill:none;stroke:#a9ccdb;stroke-miterlimit:10" />
		<line
   stroke-miterlimit="10"
   x1="0"
   y1="96"
   x2="512"
   y2="96"
   id="line10"
   style="fill:none;stroke:#a9ccdb;stroke-miterlimit:10" />
		<line
   stroke-miterlimit="10"
   x1="0"
   y1="128"
   x2="512"
   y2="128"
   id="line12"
   style="fill:none;stroke:#a9ccdb;stroke-miterlimit:10" />
		<line
   stroke-miterlimit="10"
   x1="0"
   y1="160"
   x2="512"
   y2="160"
   id="line14"
   style="fill:none;stroke:#a9ccdb;stroke-miterlimit:10" />
		<line
   stroke-miterlimit="10"
   x1="0"
   y1="192"
   x2="512"
   y2="192"
   id="line16"
   style="fill:none;stroke:#a9ccdb;stroke-miterlimit:10" />
		<line
   stroke-miterlimit="10"
   x1="0"
   y1="224"
   x2="512"
   y2="224"
   id="line18"
   style="fill:none;stroke:#a9ccdb;stroke-miterlimit:10" />
		<line
   stroke-miterlimit="10"
   x1="0"
   y1="256"
   x2="512"
   y2="256"
   id="line20"
   style="fill:none;stroke:#a9ccdb;stroke-miterlimit:10" />
		<line
   stroke-miterlimit="10"
   x1="0"
   y1="288"
   x2="512"
   y2="288"
   id="line22"
   style="fill:none;stroke:#a9ccdb;stroke-miterlimit:10" />
		<line
   stroke-miterlimit="10"
   x1="0"
   y1="320"
   x2="512"
   y2="320"
   id="line24"
   style="fill:none;stroke:#a9ccdb;stroke-miterlimit:10" />
		<line
   stroke-miterlimit="10"
   x1="0"
   y1="352"
   x2="512"
   y2="352"
   id="line26"
   style="fill:none;stroke:#a9ccdb;stroke-miterlimit:10" />
		<line
   stroke-miterlimit="10"
   x1="0"
   y1="384"
   x2="512"
   y2="384"
   id="line28"
   style="fill:none;stroke:#a9ccdb;stroke-miterlimit:10" />
		<line
   stroke-miterlimit="10"
   x1="0"
   y1="416"
   x2="512"
   y2="416"
   id="line30"
   style="fill:none;stroke:#a9ccdb;stroke-miterlimit:10" />
		<line
   stroke-miterlimit="10"
   x1="0"
   y1="448"
   x2="512"
   y2="448"
   id="line32"
   style="fill:none;stroke:#ff0000;stroke-miterlimit:10" />
		<line
   stroke-miterlimit="10"
   x1="0"
   y1="480"
   x2="512"
   y2="480"
   id="line34"
   style="fill:none;stroke:#a9ccdb;stroke-miterlimit:10" />
		<line
   stroke-miterlimit="10"
   x1="32"
   y1="0"
   x2="32"
   y2="512"
   id="line36"
   style="fill:none;stroke:#a9ccdb;stroke-miterlimit:10" />
		<line
   stroke-miterlimit="10"
   x1="64"
   y1="0"
   x2="64"
   y2="512"
   id="line38"
   style="fill:none;stroke:#a9ccdb;stroke-miterlimit:10" />
		<line
   stroke-miterlimit="10"
   x1="96"
   y1="0"
   x2="96"
   y2="512"
   id="line40"
   style="fill:none;stroke:#a9ccdb;stroke-miterlimit:10" />
		<line
   stroke-miterlimit="10"
   x1="128"
   y1="0"
   x2="128"
   y2="512"
   id="line42"
   style="fill:none;stroke:#a9ccdb;stroke-miterlimit:10" />
		<line
   stroke-miterlimit="10"
   x1="160"
   y1="0"
   x2="160"
   y2="512"
   id="line44"
   style="fill:none;stroke:#a9ccdb;stroke-miterlimit:10" />
		<line
   stroke-miterlimit="10"
   x1="192"
   y1="0"
   x2="192"
   y2="512"
   id="line46"
   style="fill:none;stroke:#a9ccdb;stroke-miterlimit:10" />
		<line
   stroke-miterlimit="10"
   x1="224"
   y1="0"
   x2="224"
   y2="512"
   id="line48"
   style="fill:none;stroke:#a9ccdb;stroke-miterlimit:10" />
		<line
   stroke-miterlimit="10"
   x1="256"
   y1="0"
   x2="256"
   y2="512"
   id="line50"
   style="fill:none;stroke:#a9ccdb;stroke-miterlimit:10" />
		<line
   stroke-miterlimit="10"
   x1="288"
   y1="0"
   x2="288"
   y2="512"
   id="line52"
   style="fill:none;stroke:#a9ccdb;stroke-miterlimit:10" />
		<line
   stroke-miterlimit="10"
   x1="320"
   y1="0"
   x2="320"
   y2="512"
   id="line54"
   style="fill:none;stroke:#a9ccdb;stroke-miterlimit:10" />
		<line
   stroke-miterlimit="10"
   x1="352"
   y1="0"
   x2="352"
   y2="512"
   id="line56"
   style="fill:none;stroke:#a9ccdb;stroke-miterlimit:10" />
		<line
   stroke-miterlimit="10"
   x1="384"
   y1="0"
   x2="384"
   y2="512"
   id="line58"
   style="fill:none;stroke:#a9ccdb;stroke-miterlimit:10" />
		<line
   stroke-miterlimit="10"
   x1="416"
   y1="0"
   x2="416"
   y2="512"
   id="line60"
   style="fill:none;stroke:#a9ccdb;stroke-miterlimit:10" />
		<line
   stroke-miterlimit="10"
   x1="448"
   y1="0"
   x2="448"
   y2="512"
   id="line62"
   style="fill:none;stroke:#a9ccdb;stroke-miterlimit:10" />
		<line
   stroke-miterlimit="10"
   x1="480"
   y1="0"
   x2="480"
   y2="512"
   id="line64"
   style="fill:none;stroke:#a9ccdb;stroke-miterlimit:10" />
	</g>
<g
   id="g57"
   transform="translate(624.92727,-593.7934)"><path
     style="fill:#766556;fill-opacity:0.94366198;stroke-width:8.68169594"
     d="m -372.88119,1284.7162 c -8.9583,-2.3501 -14.8308,-8.6663 -19.3095,-16.0221 -3.8008,-6.2424 -6.5979,-13.2335 -9.4252,-19.1848 -12.341,-25.5711 -8.7759,-60.2424 -8.5014,-76.4223 1.4646,-88.6798 -20.3539,-141.2296 -37.2488,-136.828 -7.4508,1.9411 2.5103,7.0412 -17.5724,8.8517 -11.5762,1.0437 -19.7599,1.4219 -26.129,0.5055 -27.7961,-7.9057 -30.0176,-34.141 -32.3177,-58.94256 -2.8892,-32.4223 4.2131,-54.4363 27.6931,-74.8164 6.7262,-5.8382 29.5758,-13.9333 45.9317,-30.96283 16.3559,-17.0295 29.9409,-27.63445 41.7635,-28.80787 30.0409,-2.98164 35.5175,-9.90383 49.6945,5.54709 40.6693,44.32351 54.8715,166.11437 22.9642,182.26527 -10.245,5.1858 -21.9566,-5.3431 -22.4475,2.4219 -0.5345,10.8928 24.053,39.4613 25.8986,50.743 4.4688,14.719 -4.5627,32.3153 -5.368,46.4298 -0.6798,11.9125 -2.0086,23.5146 -1.9116,34.6454 0.1938,18.0982 1.4866,47.1037 -1.4421,66.7033 -1.0962,5.9056 -0.1163,18.604 3.4681,20.2957 2.3023,2.6298 0.2366,6.971 -2.7199,10.779 -1.7446,2.6712 -5.2718,5.1092 -9.4329,7.1323 -8.4609,4.1136 -19.5425,6.5118 -23.5877,5.6669 z"
     id="path63"
     inkscape:connector-curvature="0"
     sodipodi:nodetypes="csccccccsssscccsccccsc" /></g><g
   id="g917"
   transform="translate(-108.47211,34.594075)"><path
     style="fill:#5c4b38;stroke-width:8.00826454"
     d="m 349.14168,611.45886 c -19.5272,-30.44055 -29.88734,-68.71177 -38.2505,-141.30059 -6.78102,-58.85647 -11.90297,-64.63128 -49.62722,-55.95293 -49.39729,11.3637 -52.07391,10.04742 -73.50271,-36.14608 -16.11479,-34.73825 -18.72475,-47.38002 -12.59395,-61.0008 6.17165,-10.92025 14.46795,-20.42738 23.89067,-28.45996 9.38724,-8.00233 19.89244,-14.5412 30.52859,-19.55585 13.49721,-6.36355 27.20532,-10.2726 39.10737,-11.60303 35.73898,-1.43615 40.97293,1.08071 71.24654,34.26048 37.51006,41.11091 41.83547,60.85442 44.83588,204.65528 1.00211,48.02805 4.1698,100.09482 7.0393,115.70393 4.52368,24.60721 3.26961,28.38021 -9.433,28.38021 -8.05766,0 -23.0161,-13.04129 -33.24097,-28.98066 z"
     id="path923"
     inkscape:connector-curvature="0"
     sodipodi:nodetypes="sssscsscsssss" /></g></svg>